<?xml version="1.0" encoding="UTF-8" standalone="no"?><svg xmlns="http://www.w3.org/2000/svg" xmlns:xlink="http://www.w3.org/1999/xlink" clip-rule="evenodd" stroke-miterlimit="4.00" viewBox="0 0 310 28"><desc>SVG generated by Keynote</desc><defs></defs><g transform="matrix(1.00, 0.00, -0.00, -1.00, 0.0, 28.0)"><text xml:space="preserve" font-family="HelveticaNeue-Light" font-size="32.0" fill="#000000" transform="matrix(1.00, 0.00, -0.00, -1.00, 1.0, 2.0)">O</text><text xml:space="preserve" font-family="HelveticaNeue-Light" font-size="32.0" fill="#000000" transform="matrix(1.00, 0.00, -0.00, -1.00, 24.7, 2.0)">u</text><text xml:space="preserve" font-family="HelveticaNeue-Light" font-size="32.0" fill="#000000" transform="matrix(1.00, 0.00, -0.00, -1.00, 41.9, 2.0)">r</text><text xml:space="preserve" font-family="HelveticaNeue-Light" font-size="32.0" fill="#000000" transform="matrix(1.00, 0.00, -0.00, -1.00, 52.0, 2.0)"> </text><text xml:space="preserve" font-family="HelveticaNeue-Light" font-size="32.0" fill="#000000" transform="matrix(1.00, 0.00, -0.00, -1.00, 60.9, 2.0)">i</text><text xml:space="preserve" font-family="HelveticaNeue-Light" font-size="32.0" fill="#000000" transform="matrix(1.00, 0.00, -0.00, -1.00, 66.8, 2.0)">n</text><text xml:space="preserve" font-family="HelveticaNeue-Light" font-size="32.0" fill="#000000" transform="matrix(1.00, 0.00, -0.00, -1.00, 84.0, 2.0)">t</text><text xml:space="preserve" font-family="HelveticaNeue-Light" font-size="32.0" fill="#000000" transform="matrix(1.00, 0.00, -0.00, -1.00, 93.4, 2.0)">e</text><text xml:space="preserve" font-family="HelveticaNeue-Light" font-size="32.0" fill="#000000" transform="matrix(1.00, 0.00, -0.00, -1.00, 110.1, 2.0)">r</text><text xml:space="preserve" font-family="HelveticaNeue-Light" font-size="32.0" fill="#000000" transform="matrix(1.00, 0.00, -0.00, -1.00, 120.1, 2.0)">v</text><text xml:space="preserve" font-family="HelveticaNeue-Light" font-size="32.0" fill="#000000" transform="matrix(1.00, 0.00, -0.00, -1.00, 135.0, 2.0)">i</text><text xml:space="preserve" font-family="HelveticaNeue-Light" font-size="32.0" fill="#000000" transform="matrix(1.00, 0.00, -0.00, -1.00, 140.9, 2.0)">e</text><text xml:space="preserve" font-family="HelveticaNeue-Light" font-size="32.0" fill="#000000" transform="matrix(1.00, 0.00, -0.00, -1.00, 157.5, 2.0)">w</text><text xml:space="preserve" font-family="HelveticaNeue-Light" font-size="32.0" fill="#000000" transform="matrix(1.00, 0.00, -0.00, -1.00, 181.2, 2.0)">e</text><text xml:space="preserve" font-family="HelveticaNeue-Light" font-size="32.0" fill="#000000" transform="matrix(1.00, 0.00, -0.00, -1.00, 197.8, 2.0)">e</text><text xml:space="preserve" font-family="HelveticaNeue-Light" font-size="32.0" fill="#000000" transform="matrix(1.00, 0.00, -0.00, -1.00, 214.4, 2.0)"> </text><text xml:space="preserve" font-family="HelveticaNeue-Light" font-size="32.0" fill="#000000" transform="matrix(1.00, 0.00, -0.00, -1.00, 223.3, 2.0)">s</text><text xml:space="preserve" font-family="HelveticaNeue-Light" font-size="32.0" fill="#000000" transform="matrix(1.00, 0.00, -0.00, -1.00, 238.7, 2.0)">a</text><text xml:space="preserve" font-family="HelveticaNeue-Light" font-size="32.0" fill="#000000" transform="matrix(1.00, 0.00, -0.00, -1.00, 255.3, 2.0)">i</text><text xml:space="preserve" font-family="HelveticaNeue-Light" font-size="32.0" fill="#000000" transform="matrix(1.00, 0.00, -0.00, -1.00, 261.2, 2.0)">d</text><text xml:space="preserve" font-family="HelveticaNeue-Light" font-size="32.0" fill="#000000" transform="matrix(1.00, 0.00, -0.00, -1.00, 279.6, 2.0)">…</text></g></svg>