<?xml version="1.0" encoding="UTF-8" standalone="no"?><svg xmlns="http://www.w3.org/2000/svg" xmlns:xlink="http://www.w3.org/1999/xlink" clip-rule="evenodd" stroke-miterlimit="4.00" viewBox="0 0 1920 1080"><desc>SVG generated by Keynote</desc><defs></defs><g transform="matrix(1.00, 0.00, -0.00, -1.00, 0.0, 1080.0)"><path d="M 0.0 1080.0 L 1920.0 1080.0 L 1920.0 0.0 L 0.0 0.0 Z M 0.0 1080.0 " fill="#FEFFFF"></path><text xml:space="preserve" font-family="HelveticaNeue-Thin" font-size="45.0" fill="#52575F" transform="matrix(1.00, 0.00, -0.00, -1.00, 474.0, 872.0)">F</text><text xml:space="preserve" font-family="HelveticaNeue-Thin" font-size="45.0" fill="#52575F" transform="matrix(1.00, 0.00, -0.00, -1.00, 497.1, 872.0)">i</text><text xml:space="preserve" font-family="HelveticaNeue-Thin" font-size="45.0" fill="#52575F" transform="matrix(1.00, 0.00, -0.00, -1.00, 504.7, 872.0)">n</text><text xml:space="preserve" font-family="HelveticaNeue-Thin" font-size="45.0" fill="#52575F" transform="matrix(1.00, 0.00, -0.00, -1.00, 528.0, 872.0)">d</text><text xml:space="preserve" font-family="HelveticaNeue-Thin" font-size="45.0" fill="#52575F" transform="matrix(1.00, 0.00, -0.00, -1.00, 553.1, 872.0)"> </text><text xml:space="preserve" font-family="HelveticaNeue-Thin" font-size="45.0" fill="#52575F" transform="matrix(1.00, 0.00, -0.00, -1.00, 565.6, 872.0)">s</text><text xml:space="preserve" font-family="HelveticaNeue-Thin" font-size="45.0" fill="#52575F" transform="matrix(1.00, 0.00, -0.00, -1.00, 587.2, 872.0)">o</text><text xml:space="preserve" font-family="HelveticaNeue-Thin" font-size="45.0" fill="#52575F" transform="matrix(1.00, 0.00, -0.00, -1.00, 611.4, 872.0)">m</text><text xml:space="preserve" font-family="HelveticaNeue-Thin" font-size="45.0" fill="#52575F" transform="matrix(1.00, 0.00, -0.00, -1.00, 647.2, 872.0)">e</text><text xml:space="preserve" font-family="HelveticaNeue-Thin" font-size="45.0" fill="#52575F" transform="matrix(1.00, 0.00, -0.00, -1.00, 670.6, 872.0)">t</text><text xml:space="preserve" font-family="HelveticaNeue-Thin" font-size="45.0" fill="#52575F" transform="matrix(1.00, 0.00, -0.00, -1.00, 682.2, 872.0)">h</text><text xml:space="preserve" font-family="HelveticaNeue-Thin" font-size="45.0" fill="#52575F" transform="matrix(1.00, 0.00, -0.00, -1.00, 705.6, 872.0)">i</text><text xml:space="preserve" font-family="HelveticaNeue-Thin" font-size="45.0" fill="#52575F" transform="matrix(1.00, 0.00, -0.00, -1.00, 713.1, 872.0)">n</text><text xml:space="preserve" font-family="HelveticaNeue-Thin" font-size="45.0" fill="#52575F" transform="matrix(1.00, 0.00, -0.00, -1.00, 736.5, 872.0)">g</text><text xml:space="preserve" font-family="HelveticaNeue-Thin" font-size="45.0" fill="#52575F" transform="matrix(1.00, 0.00, -0.00, -1.00, 760.6, 872.0)"> </text><text xml:space="preserve" font-family="HelveticaNeue-Thin" font-size="45.0" fill="#52575F" transform="matrix(1.00, 0.00, -0.00, -1.00, 773.2, 872.0)">i</text><text xml:space="preserve" font-family="HelveticaNeue-Thin" font-size="45.0" fill="#52575F" transform="matrix(1.00, 0.00, -0.00, -1.00, 780.7, 872.0)">n</text><text xml:space="preserve" font-family="HelveticaNeue-Thin" font-size="45.0" fill="#52575F" transform="matrix(1.00, 0.00, -0.00, -1.00, 804.1, 872.0)">t</text><text xml:space="preserve" font-family="HelveticaNeue-Thin" font-size="45.0" fill="#52575F" transform="matrix(1.00, 0.00, -0.00, -1.00, 815.1, 872.0)">e</text><text xml:space="preserve" font-family="HelveticaNeue-Thin" font-size="45.0" fill="#52575F" transform="matrix(1.00, 0.00, -0.00, -1.00, 838.5, 872.0)">r</text><text xml:space="preserve" font-family="HelveticaNeue-Thin" font-size="45.0" fill="#52575F" transform="matrix(1.00, 0.00, -0.00, -1.00, 850.4, 872.0)">e</text><text xml:space="preserve" font-family="HelveticaNeue-Thin" font-size="45.0" fill="#52575F" transform="matrix(1.00, 0.00, -0.00, -1.00, 873.8, 872.0)">s</text><text xml:space="preserve" font-family="HelveticaNeue-Thin" font-size="45.0" fill="#52575F" transform="matrix(1.00, 0.00, -0.00, -1.00, 895.4, 872.0)">t</text><text xml:space="preserve" font-family="HelveticaNeue-Thin" font-size="45.0" fill="#52575F" transform="matrix(1.00, 0.00, -0.00, -1.00, 907.1, 872.0)">i</text><text xml:space="preserve" font-family="HelveticaNeue-Thin" font-size="45.0" fill="#52575F" transform="matrix(1.00, 0.00, -0.00, -1.00, 914.6, 872.0)">n</text><text xml:space="preserve" font-family="HelveticaNeue-Thin" font-size="45.0" fill="#52575F" transform="matrix(1.00, 0.00, -0.00, -1.00, 938.0, 872.0)">g</text><text xml:space="preserve" font-family="HelveticaNeue-Thin" font-size="45.0" fill="#52575F" transform="matrix(1.00, 0.00, -0.00, -1.00, 962.2, 872.0)"> </text><text xml:space="preserve" font-family="Helvetica-Light" font-size="24.0" fill="#000000" transform="matrix(1.00, 0.00, -0.00, -1.00, 1887.0, 18.0)">1</text><text xml:space="preserve" font-family="Helvetica-Light" font-size="24.0" fill="#000000" transform="matrix(1.00, 0.00, -0.00, -1.00, 1900.3, 18.0)">7</text><text xml:space="preserve" font-family="HelveticaNeue-Light" font-size="60.0" fill="#000000" transform="matrix(1.00, 0.00, -0.00, -1.00, 163.0, 873.0)">S</text><text xml:space="preserve" font-family="HelveticaNeue-Light" font-size="60.0" fill="#000000" transform="matrix(1.00, 0.00, -0.00, -1.00, 200.8, 873.0)">c</text><text xml:space="preserve" font-family="HelveticaNeue-Light" font-size="60.0" fill="#000000" transform="matrix(1.00, 0.00, -0.00, -1.00, 231.9, 873.0)">e</text><text xml:space="preserve" font-family="HelveticaNeue-Light" font-size="60.0" fill="#000000" transform="matrix(1.00, 0.00, -0.00, -1.00, 263.1, 873.0)">n</text><text xml:space="preserve" font-family="HelveticaNeue-Light" font-size="60.0" fill="#000000" transform="matrix(1.00, 0.00, -0.00, -1.00, 295.3, 873.0)">a</text><text xml:space="preserve" font-family="HelveticaNeue-Light" font-size="60.0" fill="#000000" transform="matrix(1.00, 0.00, -0.00, -1.00, 326.4, 873.0)">r</text><text xml:space="preserve" font-family="HelveticaNeue-Light" font-size="60.0" fill="#000000" transform="matrix(1.00, 0.00, -0.00, -1.00, 345.3, 873.0)">i</text><text xml:space="preserve" font-family="HelveticaNeue-Light" font-size="60.0" fill="#000000" transform="matrix(1.00, 0.00, -0.00, -1.00, 356.4, 873.0)">o</text><text xml:space="preserve" font-family="HelveticaNeue-Light" font-size="60.0" fill="#000000" transform="matrix(1.00, 0.00, -0.00, -1.00, 389.8, 873.0)">s</text><text xml:space="preserve" font-family="HelveticaNeue-Light" font-size="60.0" fill="#000000" transform="matrix(1.00, 0.00, -0.00, -1.00, 418.7, 873.0)"> </text><text xml:space="preserve" font-family="HelveticaNeue-Light" font-size="60.0" fill="#000000" transform="matrix(1.00, 0.00, -0.00, -1.00, 435.3, 873.0)">-</text><image xlink:href="FC7E98A8B28347B1CB7BA6DEDAB3E44D.png" width="1920.00" height="1080.00" transform="matrix(1.00, 0.00, -0.00, -1.00, 0.0, 1080.0)"></image><text xml:space="preserve" font-family="HelveticaNeue" font-size="100.0" fill="#A6AAA8" transform="matrix(1.00, 0.00, -0.00, -1.00, 1195.0, 101.0)">1</text><text xml:space="preserve" font-family="HelveticaNeue" font-size="60.0" fill="#FEFFFF" transform="matrix(1.00, 0.00, -0.00, -1.00, 1268.0, 137.0)">Y</text><text xml:space="preserve" font-family="HelveticaNeue" font-size="60.0" fill="#FEFFFF" transform="matrix(1.00, 0.00, -0.00, -1.00, 1300.2, 137.0)">o</text><text xml:space="preserve" font-family="HelveticaNeue" font-size="60.0" fill="#FEFFFF" transform="matrix(1.00, 0.00, -0.00, -1.00, 1334.7, 137.0)">u</text><text xml:space="preserve" font-family="HelveticaNeue" font-size="60.0" fill="#FEFFFF" transform="matrix(1.00, 0.00, -0.00, -1.00, 1368.0, 137.0)">r</text><text xml:space="preserve" font-family="HelveticaNeue" font-size="60.0" fill="#FEFFFF" transform="matrix(1.00, 0.00, -0.00, -1.00, 1388.0, 137.0)"> </text><text xml:space="preserve" font-family="HelveticaNeue" font-size="60.0" fill="#FEFFFF" transform="matrix(1.00, 0.00, -0.00, -1.00, 1404.7, 137.0)">T</text><text xml:space="preserve" font-family="HelveticaNeue" font-size="60.0" fill="#FEFFFF" transform="matrix(1.00, 0.00, -0.00, -1.00, 1439.1, 137.0)">V</text><text xml:space="preserve" font-family="HelveticaNeue" font-size="60.0" fill="#FEFFFF" transform="matrix(1.00, 0.00, -0.00, -1.00, 1475.8, 137.0)"> </text><text xml:space="preserve" font-family="HelveticaNeue" font-size="60.0" fill="#FEFFFF" transform="matrix(1.00, 0.00, -0.00, -1.00, 1492.5, 137.0)">A</text><text xml:space="preserve" font-family="HelveticaNeue" font-size="60.0" fill="#FEFFFF" transform="matrix(1.00, 0.00, -0.00, -1.00, 1531.3, 137.0)">s</text><text xml:space="preserve" font-family="HelveticaNeue" font-size="60.0" fill="#FEFFFF" transform="matrix(1.00, 0.00, -0.00, -1.00, 1561.3, 137.0)">s</text><text xml:space="preserve" font-family="HelveticaNeue" font-size="60.0" fill="#FEFFFF" transform="matrix(1.00, 0.00, -0.00, -1.00, 1591.3, 137.0)">i</text><text xml:space="preserve" font-family="HelveticaNeue" font-size="60.0" fill="#FEFFFF" transform="matrix(1.00, 0.00, -0.00, -1.00, 1604.7, 137.0)">s</text><text xml:space="preserve" font-family="HelveticaNeue" font-size="60.0" fill="#FEFFFF" transform="matrix(1.00, 0.00, -0.00, -1.00, 1634.7, 137.0)">t</text><text xml:space="preserve" font-family="HelveticaNeue" font-size="60.0" fill="#FEFFFF" transform="matrix(1.00, 0.00, -0.00, -1.00, 1653.6, 137.0)">a</text><text xml:space="preserve" font-family="HelveticaNeue" font-size="60.0" fill="#FEFFFF" transform="matrix(1.00, 0.00, -0.00, -1.00, 1685.8, 137.0)">n</text><text xml:space="preserve" font-family="HelveticaNeue" font-size="60.0" fill="#FEFFFF" transform="matrix(1.00, 0.00, -0.00, -1.00, 1719.1, 137.0)">c</text><text xml:space="preserve" font-family="HelveticaNeue" font-size="60.0" fill="#FEFFFF" transform="matrix(1.00, 0.00, -0.00, -1.00, 1751.4, 137.0)">e</text><text xml:space="preserve" font-family="HelveticaNeue-Thin" font-size="40.0" fill="#FEFFFF" transform="matrix(1.00, 0.00, -0.00, -1.00, 1278.0, 75.0)">P</text><text xml:space="preserve" font-family="HelveticaNeue-Thin" font-size="40.0" fill="#FEFFFF" transform="matrix(1.00, 0.00, -0.00, -1.00, 1300.0, 75.0)">e</text><text xml:space="preserve" font-family="HelveticaNeue-Thin" font-size="40.0" fill="#FEFFFF" transform="matrix(1.00, 0.00, -0.00, -1.00, 1320.7, 75.0)">r</text><text xml:space="preserve" font-family="HelveticaNeue-Thin" font-size="40.0" fill="#FEFFFF" transform="matrix(1.00, 0.00, -0.00, -1.00, 1331.8, 75.0)">s</text><text xml:space="preserve" font-family="HelveticaNeue-Thin" font-size="40.0" fill="#FEFFFF" transform="matrix(1.00, 0.00, -0.00, -1.00, 1351.1, 75.0)">o</text><text xml:space="preserve" font-family="HelveticaNeue-Thin" font-size="40.0" fill="#FEFFFF" transform="matrix(1.00, 0.00, -0.00, -1.00, 1372.6, 75.0)">n</text><text xml:space="preserve" font-family="HelveticaNeue-Thin" font-size="40.0" fill="#FEFFFF" transform="matrix(1.00, 0.00, -0.00, -1.00, 1393.3, 75.0)">a</text><text xml:space="preserve" font-family="HelveticaNeue-Thin" font-size="40.0" fill="#FEFFFF" transform="matrix(1.00, 0.00, -0.00, -1.00, 1413.3, 75.0)">l</text><text xml:space="preserve" font-family="HelveticaNeue-Thin" font-size="40.0" fill="#FEFFFF" transform="matrix(1.00, 0.00, -0.00, -1.00, 1420.0, 75.0)">i</text><text xml:space="preserve" font-family="HelveticaNeue-Thin" font-size="40.0" fill="#FEFFFF" transform="matrix(1.00, 0.00, -0.00, -1.00, 1426.8, 75.0)">z</text><text xml:space="preserve" font-family="HelveticaNeue-Thin" font-size="40.0" fill="#FEFFFF" transform="matrix(1.00, 0.00, -0.00, -1.00, 1443.1, 75.0)">e</text><text xml:space="preserve" font-family="HelveticaNeue-Thin" font-size="40.0" fill="#FEFFFF" transform="matrix(1.00, 0.00, -0.00, -1.00, 1463.8, 75.0)">d</text><text xml:space="preserve" font-family="HelveticaNeue-Thin" font-size="40.0" fill="#FEFFFF" transform="matrix(1.00, 0.00, -0.00, -1.00, 1486.1, 75.0)"> </text><text xml:space="preserve" font-family="HelveticaNeue-Thin" font-size="40.0" fill="#FEFFFF" transform="matrix(1.00, 0.00, -0.00, -1.00, 1497.2, 75.0)">C</text><text xml:space="preserve" font-family="HelveticaNeue-Thin" font-size="40.0" fill="#FEFFFF" transform="matrix(1.00, 0.00, -0.00, -1.00, 1525.4, 75.0)">o</text><text xml:space="preserve" font-family="HelveticaNeue-Thin" font-size="40.0" fill="#FEFFFF" transform="matrix(1.00, 0.00, -0.00, -1.00, 1546.8, 75.0)">n</text><text xml:space="preserve" font-family="HelveticaNeue-Thin" font-size="40.0" fill="#FEFFFF" transform="matrix(1.00, 0.00, -0.00, -1.00, 1567.6, 75.0)">t</text><text xml:space="preserve" font-family="HelveticaNeue-Thin" font-size="40.0" fill="#FEFFFF" transform="matrix(1.00, 0.00, -0.00, -1.00, 1577.4, 75.0)">e</text><text xml:space="preserve" font-family="HelveticaNeue-Thin" font-size="40.0" fill="#FEFFFF" transform="matrix(1.00, 0.00, -0.00, -1.00, 1598.2, 75.0)">n</text><text xml:space="preserve" font-family="HelveticaNeue-Thin" font-size="40.0" fill="#FEFFFF" transform="matrix(1.00, 0.00, -0.00, -1.00, 1618.9, 75.0)">t</text><text xml:space="preserve" font-family="HelveticaNeue-Thin" font-size="40.0" fill="#FEFFFF" transform="matrix(1.00, 0.00, -0.00, -1.00, 1278.0, 37.0)">P</text><text xml:space="preserve" font-family="HelveticaNeue-Thin" font-size="40.0" fill="#FEFFFF" transform="matrix(1.00, 0.00, -0.00, -1.00, 1300.8, 37.0)">r</text><text xml:space="preserve" font-family="HelveticaNeue-Thin" font-size="40.0" fill="#FEFFFF" transform="matrix(1.00, 0.00, -0.00, -1.00, 1311.5, 37.0)">o</text><text xml:space="preserve" font-family="HelveticaNeue-Thin" font-size="40.0" fill="#FEFFFF" transform="matrix(1.00, 0.00, -0.00, -1.00, 1333.0, 37.0)">a</text><text xml:space="preserve" font-family="HelveticaNeue-Thin" font-size="40.0" fill="#FEFFFF" transform="matrix(1.00, 0.00, -0.00, -1.00, 1353.0, 37.0)">c</text><text xml:space="preserve" font-family="HelveticaNeue-Thin" font-size="40.0" fill="#FEFFFF" transform="matrix(1.00, 0.00, -0.00, -1.00, 1373.7, 37.0)">t</text><text xml:space="preserve" font-family="HelveticaNeue-Thin" font-size="40.0" fill="#FEFFFF" transform="matrix(1.00, 0.00, -0.00, -1.00, 1384.1, 37.0)">i</text><text xml:space="preserve" font-family="HelveticaNeue-Thin" font-size="40.0" fill="#FEFFFF" transform="matrix(1.00, 0.00, -0.00, -1.00, 1390.8, 37.0)">v</text><text xml:space="preserve" font-family="HelveticaNeue-Thin" font-size="40.0" fill="#FEFFFF" transform="matrix(1.00, 0.00, -0.00, -1.00, 1408.6, 37.0)">e</text><text xml:space="preserve" font-family="Helvetica-Light" font-size="24.0" fill="#000000" transform="matrix(1.00, 0.00, -0.00, -1.00, 946.0, 26.0)">3</text><text xml:space="preserve" font-family="Helvetica-Light" font-size="24.0" fill="#000000" transform="matrix(1.00, 0.00, -0.00, -1.00, 959.3, 26.0)">3</text></g></svg>