<?xml version="1.0" encoding="UTF-8" standalone="no"?><svg xmlns="http://www.w3.org/2000/svg" xmlns:xlink="http://www.w3.org/1999/xlink" clip-rule="evenodd" stroke-miterlimit="4.00" viewBox="0 0 1920 1080"><desc>SVG generated by Keynote</desc><defs></defs><g transform="matrix(1.00, 0.00, -0.00, -1.00, 0.0, 1080.0)"><path d="M 0.0 1080.0 L 1920.0 1080.0 L 1920.0 0.0 L 0.0 0.0 Z M 0.0 1080.0 " fill="#FEFFFF"></path><image xlink:href="1F8B61D6F74866B230237746BD00E8AB.png" width="960.00" height="540.00" transform="matrix(2.00, 0.00, -0.00, -2.00, 0.0, 1080.0)"></image><text xml:space="preserve" font-family="HelveticaNeue" font-size="60.0" fill="#000000" transform="matrix(1.00, 0.00, -0.00, -1.00, 106.0, 917.0)">F</text><text xml:space="preserve" font-family="HelveticaNeue" font-size="60.0" fill="#000000" transform="matrix(1.00, 0.00, -0.00, -1.00, 140.4, 917.0)">i</text><text xml:space="preserve" font-family="HelveticaNeue" font-size="60.0" fill="#000000" transform="matrix(1.00, 0.00, -0.00, -1.00, 153.8, 917.0)">n</text><text xml:space="preserve" font-family="HelveticaNeue" font-size="60.0" fill="#000000" transform="matrix(1.00, 0.00, -0.00, -1.00, 187.1, 917.0)">a</text><text xml:space="preserve" font-family="HelveticaNeue" font-size="60.0" fill="#000000" transform="matrix(1.00, 0.00, -0.00, -1.00, 219.3, 917.0)">l</text><text xml:space="preserve" font-family="HelveticaNeue" font-size="60.0" fill="#000000" transform="matrix(1.00, 0.00, -0.00, -1.00, 232.7, 917.0)"> </text><text xml:space="preserve" font-family="HelveticaNeue" font-size="60.0" fill="#000000" transform="matrix(1.00, 0.00, -0.00, -1.00, 249.3, 917.0)">v</text><text xml:space="preserve" font-family="HelveticaNeue" font-size="60.0" fill="#000000" transform="matrix(1.00, 0.00, -0.00, -1.00, 279.3, 917.0)">e</text><text xml:space="preserve" font-family="HelveticaNeue" font-size="60.0" fill="#000000" transform="matrix(1.00, 0.00, -0.00, -1.00, 311.6, 917.0)">r</text><text xml:space="preserve" font-family="HelveticaNeue" font-size="60.0" fill="#000000" transform="matrix(1.00, 0.00, -0.00, -1.00, 331.5, 917.0)">s</text><text xml:space="preserve" font-family="HelveticaNeue" font-size="60.0" fill="#000000" transform="matrix(1.00, 0.00, -0.00, -1.00, 361.5, 917.0)">i</text><text xml:space="preserve" font-family="HelveticaNeue" font-size="60.0" fill="#000000" transform="matrix(1.00, 0.00, -0.00, -1.00, 374.9, 917.0)">o</text><text xml:space="preserve" font-family="HelveticaNeue" font-size="60.0" fill="#000000" transform="matrix(1.00, 0.00, -0.00, -1.00, 409.3, 917.0)">n</text><text xml:space="preserve" font-family="Helvetica-Light" font-size="50.0" fill="#000000" transform="matrix(1.00, 0.00, -0.00, -1.00, 150.0, 645.0)">D</text><text xml:space="preserve" font-family="Helvetica-Light" font-size="50.0" fill="#000000" transform="matrix(1.00, 0.00, -0.00, -1.00, 186.1, 645.0)">a</text><text xml:space="preserve" font-family="Helvetica-Light" font-size="50.0" fill="#000000" transform="matrix(1.00, 0.00, -0.00, -1.00, 213.9, 645.0)">s</text><text xml:space="preserve" font-family="Helvetica-Light" font-size="50.0" fill="#000000" transform="matrix(1.00, 0.00, -0.00, -1.00, 238.9, 645.0)">h</text><text xml:space="preserve" font-family="Helvetica-Light" font-size="50.0" fill="#000000" transform="matrix(1.00, 0.00, -0.00, -1.00, 266.7, 645.0)">b</text><text xml:space="preserve" font-family="Helvetica-Light" font-size="50.0" fill="#000000" transform="matrix(1.00, 0.00, -0.00, -1.00, 297.2, 645.0)">o</text><text xml:space="preserve" font-family="Helvetica-Light" font-size="50.0" fill="#000000" transform="matrix(1.00, 0.00, -0.00, -1.00, 325.1, 645.0)">a</text><text xml:space="preserve" font-family="Helvetica-Light" font-size="50.0" fill="#000000" transform="matrix(1.00, 0.00, -0.00, -1.00, 352.9, 645.0)">r</text><text xml:space="preserve" font-family="Helvetica-Light" font-size="50.0" fill="#000000" transform="matrix(1.00, 0.00, -0.00, -1.00, 368.6, 645.0)">d</text><text xml:space="preserve" font-family="Helvetica-Light" font-size="50.0" fill="#000000" transform="matrix(1.00, 0.00, -0.00, -1.00, 399.2, 645.0)"> </text><text xml:space="preserve" font-family="Helvetica-Light" font-size="50.0" fill="#000000" transform="matrix(1.00, 0.00, -0.00, -1.00, 258.0, 585.0)">+</text><text xml:space="preserve" font-family="Helvetica-Light" font-size="50.0" fill="#000000" transform="matrix(1.00, 0.00, -0.00, -1.00, 291.0, 585.0)"> </text><text xml:space="preserve" font-family="Helvetica-Light" font-size="50.0" fill="#000000" transform="matrix(1.00, 0.00, -0.00, -1.00, 167.0, 525.0)">C</text><text xml:space="preserve" font-family="Helvetica-Light" font-size="50.0" fill="#000000" transform="matrix(1.00, 0.00, -0.00, -1.00, 203.1, 525.0)">o</text><text xml:space="preserve" font-family="Helvetica-Light" font-size="50.0" fill="#000000" transform="matrix(1.00, 0.00, -0.00, -1.00, 230.9, 525.0)">n</text><text xml:space="preserve" font-family="Helvetica-Light" font-size="50.0" fill="#000000" transform="matrix(1.00, 0.00, -0.00, -1.00, 258.7, 525.0)">t</text><text xml:space="preserve" font-family="Helvetica-Light" font-size="50.0" fill="#000000" transform="matrix(1.00, 0.00, -0.00, -1.00, 272.6, 525.0)">r</text><text xml:space="preserve" font-family="Helvetica-Light" font-size="50.0" fill="#000000" transform="matrix(1.00, 0.00, -0.00, -1.00, 288.4, 525.0)">o</text><text xml:space="preserve" font-family="Helvetica-Light" font-size="50.0" fill="#000000" transform="matrix(1.00, 0.00, -0.00, -1.00, 316.1, 525.0)">l</text><text xml:space="preserve" font-family="Helvetica-Light" font-size="50.0" fill="#000000" transform="matrix(1.00, 0.00, -0.00, -1.00, 327.2, 525.0)">l</text><text xml:space="preserve" font-family="Helvetica-Light" font-size="50.0" fill="#000000" transform="matrix(1.00, 0.00, -0.00, -1.00, 338.4, 525.0)">e</text><text xml:space="preserve" font-family="Helvetica-Light" font-size="50.0" fill="#000000" transform="matrix(1.00, 0.00, -0.00, -1.00, 366.1, 525.0)">r</text><text xml:space="preserve" font-family="Helvetica-Light" font-size="24.0" fill="#000000" transform="matrix(1.00, 0.00, -0.00, -1.00, 946.0, 26.0)">5</text><text xml:space="preserve" font-family="Helvetica-Light" font-size="24.0" fill="#000000" transform="matrix(1.00, 0.00, -0.00, -1.00, 959.3, 26.0)">3</text></g></svg>