<?xml version="1.0" encoding="UTF-8" standalone="no"?><svg xmlns="http://www.w3.org/2000/svg" xmlns:xlink="http://www.w3.org/1999/xlink" clip-rule="evenodd" stroke-miterlimit="4.00" viewBox="0 0 1920 1080"><desc>SVG generated by Keynote</desc><defs></defs><g transform="matrix(1.00, 0.00, -0.00, -1.00, 0.0, 1080.0)"><path d="M 0.0 1080.0 L 1920.0 1080.0 L 1920.0 0.0 L 0.0 0.0 Z M 0.0 1080.0 " fill="#FEFFFF"></path><image xlink:href="926F12FCAF9D4CA6118ACCB4D55D2ED9.png" width="1920.00" height="1080.00" transform="matrix(1.00, 0.00, -0.00, -1.00, 0.0, 1080.0)"></image><text xml:space="preserve" font-family="Helvetica-Light" font-size="50.0" fill="#FEFFFF" transform="matrix(1.00, 0.00, -0.00, -1.00, 52.0, 119.0)">F</text><text xml:space="preserve" font-family="Helvetica-Light" font-size="50.0" fill="#FEFFFF" transform="matrix(1.00, 0.00, -0.00, -1.00, 79.8, 119.0)">e</text><text xml:space="preserve" font-family="Helvetica-Light" font-size="50.0" fill="#FEFFFF" transform="matrix(1.00, 0.00, -0.00, -1.00, 107.6, 119.0)">e</text><text xml:space="preserve" font-family="Helvetica-Light" font-size="50.0" fill="#FEFFFF" transform="matrix(1.00, 0.00, -0.00, -1.00, 135.4, 119.0)">d</text><text xml:space="preserve" font-family="Helvetica-Light" font-size="50.0" fill="#FEFFFF" transform="matrix(1.00, 0.00, -0.00, -1.00, 165.9, 119.0)">b</text><text xml:space="preserve" font-family="Helvetica-Light" font-size="50.0" fill="#FEFFFF" transform="matrix(1.00, 0.00, -0.00, -1.00, 196.5, 119.0)">a</text><text xml:space="preserve" font-family="Helvetica-Light" font-size="50.0" fill="#FEFFFF" transform="matrix(1.00, 0.00, -0.00, -1.00, 224.3, 119.0)">c</text><text xml:space="preserve" font-family="Helvetica-Light" font-size="50.0" fill="#FEFFFF" transform="matrix(1.00, 0.00, -0.00, -1.00, 252.1, 119.0)">k</text><text xml:space="preserve" font-family="Helvetica-Light" font-size="50.0" fill="#FEFFFF" transform="matrix(1.00, 0.00, -0.00, -1.00, 277.1, 119.0)"> </text><text xml:space="preserve" font-family="Helvetica-Light" font-size="50.0" fill="#DCDDE0" transform="matrix(1.00, 0.00, -0.00, -1.00, 52.0, 59.0)">B</text><text xml:space="preserve" font-family="Helvetica-Light" font-size="50.0" fill="#DCDDE0" transform="matrix(1.00, 0.00, -0.00, -1.00, 85.3, 59.0)">u</text><text xml:space="preserve" font-family="Helvetica-Light" font-size="50.0" fill="#DCDDE0" transform="matrix(1.00, 0.00, -0.00, -1.00, 113.2, 59.0)">t</text><text xml:space="preserve" font-family="Helvetica-Light" font-size="50.0" fill="#DCDDE0" transform="matrix(1.00, 0.00, -0.00, -1.00, 127.1, 59.0)">t</text><text xml:space="preserve" font-family="Helvetica-Light" font-size="50.0" fill="#DCDDE0" transform="matrix(1.00, 0.00, -0.00, -1.00, 141.0, 59.0)">o</text><text xml:space="preserve" font-family="Helvetica-Light" font-size="50.0" fill="#DCDDE0" transform="matrix(1.00, 0.00, -0.00, -1.00, 168.8, 59.0)">n</text><text xml:space="preserve" font-family="Helvetica-Light" font-size="50.0" fill="#DCDDE0" transform="matrix(1.00, 0.00, -0.00, -1.00, 196.6, 59.0)"> </text><text xml:space="preserve" font-family="Helvetica-Light" font-size="50.0" fill="#DCDDE0" transform="matrix(1.00, 0.00, -0.00, -1.00, 210.5, 59.0)">t</text><text xml:space="preserve" font-family="Helvetica-Light" font-size="50.0" fill="#DCDDE0" transform="matrix(1.00, 0.00, -0.00, -1.00, 224.4, 59.0)">o</text><text xml:space="preserve" font-family="Helvetica-Light" font-size="50.0" fill="#DCDDE0" transform="matrix(1.00, 0.00, -0.00, -1.00, 252.2, 59.0)">o</text><text xml:space="preserve" font-family="Helvetica-Light" font-size="50.0" fill="#DCDDE0" transform="matrix(1.00, 0.00, -0.00, -1.00, 280.0, 59.0)"> </text><text xml:space="preserve" font-family="Helvetica-Light" font-size="50.0" fill="#DCDDE0" transform="matrix(1.00, 0.00, -0.00, -1.00, 293.9, 59.0)">s</text><text xml:space="preserve" font-family="Helvetica-Light" font-size="50.0" fill="#DCDDE0" transform="matrix(1.00, 0.00, -0.00, -1.00, 318.9, 59.0)">e</text><text xml:space="preserve" font-family="Helvetica-Light" font-size="50.0" fill="#DCDDE0" transform="matrix(1.00, 0.00, -0.00, -1.00, 346.7, 59.0)">n</text><text xml:space="preserve" font-family="Helvetica-Light" font-size="50.0" fill="#DCDDE0" transform="matrix(1.00, 0.00, -0.00, -1.00, 374.5, 59.0)">s</text><text xml:space="preserve" font-family="Helvetica-Light" font-size="50.0" fill="#DCDDE0" transform="matrix(1.00, 0.00, -0.00, -1.00, 399.5, 59.0)">i</text><text xml:space="preserve" font-family="Helvetica-Light" font-size="50.0" fill="#DCDDE0" transform="matrix(1.00, 0.00, -0.00, -1.00, 410.6, 59.0)">t</text><text xml:space="preserve" font-family="Helvetica-Light" font-size="50.0" fill="#DCDDE0" transform="matrix(1.00, 0.00, -0.00, -1.00, 424.5, 59.0)">i</text><text xml:space="preserve" font-family="Helvetica-Light" font-size="50.0" fill="#DCDDE0" transform="matrix(1.00, 0.00, -0.00, -1.00, 435.6, 59.0)">v</text><text xml:space="preserve" font-family="Helvetica-Light" font-size="50.0" fill="#DCDDE0" transform="matrix(1.00, 0.00, -0.00, -1.00, 460.6, 59.0)">e</text><text xml:space="preserve" font-family="Helvetica-Light" font-size="24.0" fill="#000000" transform="matrix(1.00, 0.00, -0.00, -1.00, 946.0, 26.0)">5</text><text xml:space="preserve" font-family="Helvetica-Light" font-size="24.0" fill="#000000" transform="matrix(1.00, 0.00, -0.00, -1.00, 959.3, 26.0)">1</text></g></svg>