<?xml version="1.0" encoding="UTF-8" standalone="no"?><svg xmlns="http://www.w3.org/2000/svg" xmlns:xlink="http://www.w3.org/1999/xlink" clip-rule="evenodd" stroke-miterlimit="4.00" viewBox="0 0 389 33"><desc>SVG generated by Keynote</desc><defs></defs><g transform="matrix(1.00, 0.00, -0.00, -1.00, 0.0, 33.0)"><text xml:space="preserve" font-family="HelveticaNeue-Thin" font-size="40.0" fill="#000000" transform="matrix(1.00, 0.00, -0.00, -1.00, -1.0, 2.0)">E</text><text xml:space="preserve" font-family="HelveticaNeue-Thin" font-size="40.0" fill="#000000" transform="matrix(1.00, 0.00, -0.00, -1.00, 21.4, 2.0)">n</text><text xml:space="preserve" font-family="HelveticaNeue-Thin" font-size="40.0" fill="#000000" transform="matrix(1.00, 0.00, -0.00, -1.00, 42.2, 2.0)">a</text><text xml:space="preserve" font-family="HelveticaNeue-Thin" font-size="40.0" fill="#000000" transform="matrix(1.00, 0.00, -0.00, -1.00, 62.2, 2.0)">b</text><text xml:space="preserve" font-family="HelveticaNeue-Thin" font-size="40.0" fill="#000000" transform="matrix(1.00, 0.00, -0.00, -1.00, 84.4, 2.0)">l</text><text xml:space="preserve" font-family="HelveticaNeue-Thin" font-size="40.0" fill="#000000" transform="matrix(1.00, 0.00, -0.00, -1.00, 91.1, 2.0)">e</text><text xml:space="preserve" font-family="HelveticaNeue-Thin" font-size="40.0" fill="#000000" transform="matrix(1.00, 0.00, -0.00, -1.00, 111.9, 2.0)"> </text><text xml:space="preserve" font-family="HelveticaNeue-Thin" font-size="40.0" fill="#000000" transform="matrix(1.00, 0.00, -0.00, -1.00, 123.0, 2.0)">v</text><text xml:space="preserve" font-family="HelveticaNeue-Thin" font-size="40.0" fill="#000000" transform="matrix(1.00, 0.00, -0.00, -1.00, 140.8, 2.0)">o</text><text xml:space="preserve" font-family="HelveticaNeue-Thin" font-size="40.0" fill="#000000" transform="matrix(1.00, 0.00, -0.00, -1.00, 162.2, 2.0)">i</text><text xml:space="preserve" font-family="HelveticaNeue-Thin" font-size="40.0" fill="#000000" transform="matrix(1.00, 0.00, -0.00, -1.00, 169.0, 2.0)">c</text><text xml:space="preserve" font-family="HelveticaNeue-Thin" font-size="40.0" fill="#000000" transform="matrix(1.00, 0.00, -0.00, -1.00, 189.7, 2.0)">e</text><text xml:space="preserve" font-family="HelveticaNeue-Thin" font-size="40.0" fill="#000000" transform="matrix(1.00, 0.00, -0.00, -1.00, 210.5, 2.0)"> </text><text xml:space="preserve" font-family="HelveticaNeue-Thin" font-size="40.0" fill="#000000" transform="matrix(1.00, 0.00, -0.00, -1.00, 221.6, 2.0)">c</text><text xml:space="preserve" font-family="HelveticaNeue-Thin" font-size="40.0" fill="#000000" transform="matrix(1.00, 0.00, -0.00, -1.00, 242.4, 2.0)">o</text><text xml:space="preserve" font-family="HelveticaNeue-Thin" font-size="40.0" fill="#000000" transform="matrix(1.00, 0.00, -0.00, -1.00, 263.8, 2.0)">m</text><text xml:space="preserve" font-family="HelveticaNeue-Thin" font-size="40.0" fill="#000000" transform="matrix(1.00, 0.00, -0.00, -1.00, 295.7, 2.0)">m</text><text xml:space="preserve" font-family="HelveticaNeue-Thin" font-size="40.0" fill="#000000" transform="matrix(1.00, 0.00, -0.00, -1.00, 327.5, 2.0)">a</text><text xml:space="preserve" font-family="HelveticaNeue-Thin" font-size="40.0" fill="#000000" transform="matrix(1.00, 0.00, -0.00, -1.00, 347.5, 2.0)">n</text><text xml:space="preserve" font-family="HelveticaNeue-Thin" font-size="40.0" fill="#000000" transform="matrix(1.00, 0.00, -0.00, -1.00, 368.3, 2.0)">d</text></g></svg>