<?xml version="1.0" encoding="UTF-8" standalone="no"?><svg xmlns="http://www.w3.org/2000/svg" xmlns:xlink="http://www.w3.org/1999/xlink" clip-rule="evenodd" stroke-miterlimit="4.00" viewBox="0 0 425 150"><desc>SVG generated by Keynote</desc><defs></defs><g transform="matrix(1.00, 0.00, -0.00, -1.00, 0.0, 150.0)"><g><clipPath id="clip-571"><path d="M 49.8 32.6 L 424.5 32.6 L 424.5 151.9 L 49.8 151.9 Z M 49.8 32.6 "></path></clipPath><g clip-path="url(#clip-571)"><text xml:space="preserve" font-family="HelveticaNeue" font-size="40.0" fill="#000000" transform="matrix(1.00, 0.00, -0.00, -1.00, 61.0, 102.0)">S</text><text xml:space="preserve" font-family="HelveticaNeue" font-size="40.0" fill="#000000" transform="matrix(1.00, 0.00, -0.00, -1.00, 86.9, 102.0)">e</text><text xml:space="preserve" font-family="HelveticaNeue" font-size="40.0" fill="#000000" transform="matrix(1.00, 0.00, -0.00, -1.00, 108.4, 102.0)">a</text><text xml:space="preserve" font-family="HelveticaNeue" font-size="40.0" fill="#000000" transform="matrix(1.00, 0.00, -0.00, -1.00, 129.9, 102.0)">m</text><text xml:space="preserve" font-family="HelveticaNeue" font-size="40.0" fill="#000000" transform="matrix(1.00, 0.00, -0.00, -1.00, 164.0, 102.0)">l</text><text xml:space="preserve" font-family="HelveticaNeue" font-size="40.0" fill="#000000" transform="matrix(1.00, 0.00, -0.00, -1.00, 172.9, 102.0)">e</text><text xml:space="preserve" font-family="HelveticaNeue" font-size="40.0" fill="#000000" transform="matrix(1.00, 0.00, -0.00, -1.00, 194.4, 102.0)">s</text><text xml:space="preserve" font-family="HelveticaNeue" font-size="40.0" fill="#000000" transform="matrix(1.00, 0.00, -0.00, -1.00, 214.4, 102.0)">s</text><text xml:space="preserve" font-family="HelveticaNeue" font-size="40.0" fill="#000000" transform="matrix(1.00, 0.00, -0.00, -1.00, 234.4, 102.0)">l</text><text xml:space="preserve" font-family="HelveticaNeue" font-size="40.0" fill="#000000" transform="matrix(1.00, 0.00, -0.00, -1.00, 243.2, 102.0)">y</text><text xml:space="preserve" font-family="HelveticaNeue" font-size="40.0" fill="#000000" transform="matrix(1.00, 0.00, -0.00, -1.00, 263.2, 102.0)"> </text><text xml:space="preserve" font-family="HelveticaNeue" font-size="40.0" fill="#000000" transform="matrix(1.00, 0.00, -0.00, -1.00, 274.4, 102.0)">S</text><text xml:space="preserve" font-family="HelveticaNeue" font-size="40.0" fill="#000000" transform="matrix(1.00, 0.00, -0.00, -1.00, 300.3, 102.0)">w</text><text xml:space="preserve" font-family="HelveticaNeue" font-size="40.0" fill="#000000" transform="matrix(1.00, 0.00, -0.00, -1.00, 330.6, 102.0)">i</text><text xml:space="preserve" font-family="HelveticaNeue" font-size="40.0" fill="#000000" transform="matrix(1.00, 0.00, -0.00, -1.00, 339.5, 102.0)">t</text><text xml:space="preserve" font-family="HelveticaNeue" font-size="40.0" fill="#000000" transform="matrix(1.00, 0.00, -0.00, -1.00, 352.1, 102.0)">c</text><text xml:space="preserve" font-family="HelveticaNeue" font-size="40.0" fill="#000000" transform="matrix(1.00, 0.00, -0.00, -1.00, 373.6, 102.0)">h</text><text xml:space="preserve" font-family="HelveticaNeue" font-size="40.0" fill="#000000" transform="matrix(1.00, 0.00, -0.00, -1.00, 395.8, 102.0)"> </text><text xml:space="preserve" font-family="HelveticaNeue" font-size="40.0" fill="#000000" transform="matrix(1.00, 0.00, -0.00, -1.00, 61.0, 54.0)">B</text><text xml:space="preserve" font-family="HelveticaNeue" font-size="40.0" fill="#000000" transform="matrix(1.00, 0.00, -0.00, -1.00, 88.4, 54.0)">e</text><text xml:space="preserve" font-family="HelveticaNeue" font-size="40.0" fill="#000000" transform="matrix(1.00, 0.00, -0.00, -1.00, 109.9, 54.0)">t</text><text xml:space="preserve" font-family="HelveticaNeue" font-size="40.0" fill="#000000" transform="matrix(1.00, 0.00, -0.00, -1.00, 122.5, 54.0)">w</text><text xml:space="preserve" font-family="HelveticaNeue" font-size="40.0" fill="#000000" transform="matrix(1.00, 0.00, -0.00, -1.00, 152.8, 54.0)">e</text><text xml:space="preserve" font-family="HelveticaNeue" font-size="40.0" fill="#000000" transform="matrix(1.00, 0.00, -0.00, -1.00, 174.3, 54.0)">e</text><text xml:space="preserve" font-family="HelveticaNeue" font-size="40.0" fill="#000000" transform="matrix(1.00, 0.00, -0.00, -1.00, 195.8, 54.0)">n</text><text xml:space="preserve" font-family="HelveticaNeue" font-size="40.0" fill="#000000" transform="matrix(1.00, 0.00, -0.00, -1.00, 218.0, 54.0)"> </text><text xml:space="preserve" font-family="HelveticaNeue" font-size="40.0" fill="#000000" transform="matrix(1.00, 0.00, -0.00, -1.00, 229.1, 54.0)">D</text><text xml:space="preserve" font-family="HelveticaNeue" font-size="40.0" fill="#000000" transform="matrix(1.00, 0.00, -0.00, -1.00, 257.3, 54.0)">e</text><text xml:space="preserve" font-family="HelveticaNeue" font-size="40.0" fill="#000000" transform="matrix(1.00, 0.00, -0.00, -1.00, 278.8, 54.0)">v</text><text xml:space="preserve" font-family="HelveticaNeue" font-size="40.0" fill="#000000" transform="matrix(1.00, 0.00, -0.00, -1.00, 298.8, 54.0)">i</text><text xml:space="preserve" font-family="HelveticaNeue" font-size="40.0" fill="#000000" transform="matrix(1.00, 0.00, -0.00, -1.00, 307.6, 54.0)">c</text><text xml:space="preserve" font-family="HelveticaNeue" font-size="40.0" fill="#000000" transform="matrix(1.00, 0.00, -0.00, -1.00, 329.1, 54.0)">e</text><text xml:space="preserve" font-family="HelveticaNeue" font-size="40.0" fill="#000000" transform="matrix(1.00, 0.00, -0.00, -1.00, 350.6, 54.0)">s</text></g></g><g><clipPath id="clip-572"><path d="M 55.4 -2.5 L 427.0 -2.5 L 427.0 51.2 L 55.4 51.2 Z M 55.4 -2.5 "></path></clipPath><g clip-path="url(#clip-572)"><text xml:space="preserve" font-family="HelveticaNeue-Thin" font-size="30.0" fill="#000000" transform="matrix(1.00, 0.00, -0.00, -1.00, 64.0, 14.0)">I</text><text xml:space="preserve" font-family="HelveticaNeue-Thin" font-size="30.0" fill="#000000" transform="matrix(1.00, 0.00, -0.00, -1.00, 69.1, 14.0)">n</text><text xml:space="preserve" font-family="HelveticaNeue-Thin" font-size="30.0" fill="#000000" transform="matrix(1.00, 0.00, -0.00, -1.00, 84.7, 14.0)">t</text><text xml:space="preserve" font-family="HelveticaNeue-Thin" font-size="30.0" fill="#000000" transform="matrix(1.00, 0.00, -0.00, -1.00, 92.0, 14.0)">e</text><text xml:space="preserve" font-family="HelveticaNeue-Thin" font-size="30.0" fill="#000000" transform="matrix(1.00, 0.00, -0.00, -1.00, 107.6, 14.0)">g</text><text xml:space="preserve" font-family="HelveticaNeue-Thin" font-size="30.0" fill="#000000" transform="matrix(1.00, 0.00, -0.00, -1.00, 123.7, 14.0)">r</text><text xml:space="preserve" font-family="HelveticaNeue-Thin" font-size="30.0" fill="#000000" transform="matrix(1.00, 0.00, -0.00, -1.00, 131.4, 14.0)">a</text><text xml:space="preserve" font-family="HelveticaNeue-Thin" font-size="30.0" fill="#000000" transform="matrix(1.00, 0.00, -0.00, -1.00, 146.4, 14.0)">t</text><text xml:space="preserve" font-family="HelveticaNeue-Thin" font-size="30.0" fill="#000000" transform="matrix(1.00, 0.00, -0.00, -1.00, 154.2, 14.0)">i</text><text xml:space="preserve" font-family="HelveticaNeue-Thin" font-size="30.0" fill="#000000" transform="matrix(1.00, 0.00, -0.00, -1.00, 159.2, 14.0)">o</text><text xml:space="preserve" font-family="HelveticaNeue-Thin" font-size="30.0" fill="#000000" transform="matrix(1.00, 0.00, -0.00, -1.00, 175.4, 14.0)">n</text><text xml:space="preserve" font-family="HelveticaNeue-Thin" font-size="30.0" fill="#000000" transform="matrix(1.00, 0.00, -0.00, -1.00, 190.9, 14.0)"> </text><text xml:space="preserve" font-family="HelveticaNeue-Thin" font-size="30.0" fill="#000000" transform="matrix(1.00, 0.00, -0.00, -1.00, 199.3, 14.0)">o</text><text xml:space="preserve" font-family="HelveticaNeue-Thin" font-size="30.0" fill="#000000" transform="matrix(1.00, 0.00, -0.00, -1.00, 215.4, 14.0)">f</text><text xml:space="preserve" font-family="HelveticaNeue-Thin" font-size="30.0" fill="#000000" transform="matrix(1.00, 0.00, -0.00, -1.00, 222.6, 14.0)"> </text><text xml:space="preserve" font-family="HelveticaNeue-Thin" font-size="30.0" fill="#000000" transform="matrix(1.00, 0.00, -0.00, -1.00, 230.9, 14.0)">a</text><text xml:space="preserve" font-family="HelveticaNeue-Thin" font-size="30.0" fill="#000000" transform="matrix(1.00, 0.00, -0.00, -1.00, 245.9, 14.0)">l</text><text xml:space="preserve" font-family="HelveticaNeue-Thin" font-size="30.0" fill="#000000" transform="matrix(1.00, 0.00, -0.00, -1.00, 251.0, 14.0)">l</text><text xml:space="preserve" font-family="HelveticaNeue-Thin" font-size="30.0" fill="#000000" transform="matrix(1.00, 0.00, -0.00, -1.00, 256.0, 14.0)"> </text><text xml:space="preserve" font-family="HelveticaNeue-Thin" font-size="30.0" fill="#000000" transform="matrix(1.00, 0.00, -0.00, -1.00, 264.4, 14.0)">d</text><text xml:space="preserve" font-family="HelveticaNeue-Thin" font-size="30.0" fill="#000000" transform="matrix(1.00, 0.00, -0.00, -1.00, 281.0, 14.0)">e</text><text xml:space="preserve" font-family="HelveticaNeue-Thin" font-size="30.0" fill="#000000" transform="matrix(1.00, 0.00, -0.00, -1.00, 296.6, 14.0)">v</text><text xml:space="preserve" font-family="HelveticaNeue-Thin" font-size="30.0" fill="#000000" transform="matrix(1.00, 0.00, -0.00, -1.00, 309.9, 14.0)">i</text><text xml:space="preserve" font-family="HelveticaNeue-Thin" font-size="30.0" fill="#000000" transform="matrix(1.00, 0.00, -0.00, -1.00, 315.0, 14.0)">c</text><text xml:space="preserve" font-family="HelveticaNeue-Thin" font-size="30.0" fill="#000000" transform="matrix(1.00, 0.00, -0.00, -1.00, 330.5, 14.0)">e</text><text xml:space="preserve" font-family="HelveticaNeue-Thin" font-size="30.0" fill="#000000" transform="matrix(1.00, 0.00, -0.00, -1.00, 346.1, 14.0)">s</text></g></g><g><clipPath id="clip-573"><path d="M 6.9 38.4 L 39.9 38.4 L 39.9 150.0 L 6.9 150.0 Z M 6.9 38.4 "></path></clipPath><g clip-path="url(#clip-573)"><text xml:space="preserve" font-family="HelveticaNeue" font-size="70.0" fill="#A6AAA8" transform="matrix(1.00, 0.00, -0.00, -1.00, 7.0, 76.0)">1</text></g></g></g></svg>