<?xml version="1.0" encoding="UTF-8" standalone="no"?><svg xmlns="http://www.w3.org/2000/svg" xmlns:xlink="http://www.w3.org/1999/xlink" clip-rule="evenodd" stroke-miterlimit="4.00" viewBox="0 0 1920 1080"><desc>SVG generated by Keynote</desc><defs></defs><g transform="matrix(1.00, 0.00, -0.00, -1.00, 0.0, 1080.0)"><path d="M 0.0 1080.0 L 1920.0 1080.0 L 1920.0 0.0 L 0.0 0.0 Z M 0.0 1080.0 " fill="#FEFFFF"></path><text xml:space="preserve" font-family="HelveticaNeue" font-size="50.0" fill="#000000" transform="matrix(1.00, 0.00, -0.00, -1.00, 577.0, 521.0)">B</text><text xml:space="preserve" font-family="HelveticaNeue" font-size="50.0" fill="#000000" transform="matrix(1.00, 0.00, -0.00, -1.00, 611.2, 521.0)">u</text><text xml:space="preserve" font-family="HelveticaNeue" font-size="50.0" fill="#000000" transform="matrix(1.00, 0.00, -0.00, -1.00, 639.0, 521.0)">t</text><text xml:space="preserve" font-family="HelveticaNeue" font-size="50.0" fill="#000000" transform="matrix(1.00, 0.00, -0.00, -1.00, 654.8, 521.0)">,</text><text xml:space="preserve" font-family="HelveticaNeue" font-size="50.0" fill="#000000" transform="matrix(1.00, 0.00, -0.00, -1.00, 668.7, 521.0)"> </text><text xml:space="preserve" font-family="HelveticaNeue" font-size="50.0" fill="#000000" transform="matrix(1.00, 0.00, -0.00, -1.00, 682.6, 521.0)">s</text><text xml:space="preserve" font-family="HelveticaNeue" font-size="50.0" fill="#000000" transform="matrix(1.00, 0.00, -0.00, -1.00, 707.6, 521.0)">o</text><text xml:space="preserve" font-family="HelveticaNeue" font-size="50.0" fill="#000000" transform="matrix(1.00, 0.00, -0.00, -1.00, 736.3, 521.0)">m</text><text xml:space="preserve" font-family="HelveticaNeue" font-size="50.0" fill="#000000" transform="matrix(1.00, 0.00, -0.00, -1.00, 779.0, 521.0)">e</text><text xml:space="preserve" font-family="HelveticaNeue" font-size="50.0" fill="#000000" transform="matrix(1.00, 0.00, -0.00, -1.00, 805.8, 521.0)">t</text><text xml:space="preserve" font-family="HelveticaNeue" font-size="50.0" fill="#000000" transform="matrix(1.00, 0.00, -0.00, -1.00, 821.5, 521.0)">h</text><text xml:space="preserve" font-family="HelveticaNeue" font-size="50.0" fill="#000000" transform="matrix(1.00, 0.00, -0.00, -1.00, 849.4, 521.0)">i</text><text xml:space="preserve" font-family="HelveticaNeue" font-size="50.0" fill="#000000" transform="matrix(1.00, 0.00, -0.00, -1.00, 860.5, 521.0)">n</text><text xml:space="preserve" font-family="HelveticaNeue" font-size="50.0" fill="#000000" transform="matrix(1.00, 0.00, -0.00, -1.00, 888.2, 521.0)">g</text><text xml:space="preserve" font-family="HelveticaNeue" font-size="50.0" fill="#000000" transform="matrix(1.00, 0.00, -0.00, -1.00, 917.0, 521.0)"> </text><text xml:space="preserve" font-family="HelveticaNeue" font-size="50.0" fill="#000000" transform="matrix(1.00, 0.00, -0.00, -1.00, 930.9, 521.0)">i</text><text xml:space="preserve" font-family="HelveticaNeue" font-size="50.0" fill="#000000" transform="matrix(1.00, 0.00, -0.00, -1.00, 942.0, 521.0)">s</text><text xml:space="preserve" font-family="HelveticaNeue" font-size="50.0" fill="#000000" transform="matrix(1.00, 0.00, -0.00, -1.00, 967.0, 521.0)"> </text><text xml:space="preserve" font-family="HelveticaNeue" font-size="50.0" fill="#000000" transform="matrix(1.00, 0.00, -0.00, -1.00, 980.9, 521.0)">n</text><text xml:space="preserve" font-family="HelveticaNeue" font-size="50.0" fill="#000000" transform="matrix(1.00, 0.00, -0.00, -1.00, 1008.7, 521.0)">o</text><text xml:space="preserve" font-family="HelveticaNeue" font-size="50.0" fill="#000000" transform="matrix(1.00, 0.00, -0.00, -1.00, 1037.3, 521.0)">t</text><text xml:space="preserve" font-family="HelveticaNeue" font-size="50.0" fill="#000000" transform="matrix(1.00, 0.00, -0.00, -1.00, 1053.1, 521.0)"> </text><text xml:space="preserve" font-family="HelveticaNeue" font-size="50.0" fill="#000000" transform="matrix(1.00, 0.00, -0.00, -1.00, 1067.0, 521.0)">q</text><text xml:space="preserve" font-family="HelveticaNeue" font-size="50.0" fill="#000000" transform="matrix(1.00, 0.00, -0.00, -1.00, 1096.7, 521.0)">u</text><text xml:space="preserve" font-family="HelveticaNeue" font-size="50.0" fill="#000000" transform="matrix(1.00, 0.00, -0.00, -1.00, 1124.4, 521.0)">i</text><text xml:space="preserve" font-family="HelveticaNeue" font-size="50.0" fill="#000000" transform="matrix(1.00, 0.00, -0.00, -1.00, 1135.5, 521.0)">t</text><text xml:space="preserve" font-family="HelveticaNeue" font-size="50.0" fill="#000000" transform="matrix(1.00, 0.00, -0.00, -1.00, 1151.3, 521.0)">e</text><text xml:space="preserve" font-family="HelveticaNeue" font-size="50.0" fill="#000000" transform="matrix(1.00, 0.00, -0.00, -1.00, 1178.2, 521.0)"> </text><text xml:space="preserve" font-family="HelveticaNeue" font-size="50.0" fill="#000000" transform="matrix(1.00, 0.00, -0.00, -1.00, 1192.0, 521.0)">r</text><text xml:space="preserve" font-family="HelveticaNeue" font-size="50.0" fill="#000000" transform="matrix(1.00, 0.00, -0.00, -1.00, 1208.7, 521.0)">i</text><text xml:space="preserve" font-family="HelveticaNeue" font-size="50.0" fill="#000000" transform="matrix(1.00, 0.00, -0.00, -1.00, 1219.8, 521.0)">g</text><text xml:space="preserve" font-family="HelveticaNeue" font-size="50.0" fill="#000000" transform="matrix(1.00, 0.00, -0.00, -1.00, 1248.5, 521.0)">h</text><text xml:space="preserve" font-family="HelveticaNeue" font-size="50.0" fill="#000000" transform="matrix(1.00, 0.00, -0.00, -1.00, 1276.3, 521.0)">t</text><text xml:space="preserve" font-family="HelveticaNeue" font-size="50.0" fill="#000000" transform="matrix(1.00, 0.00, -0.00, -1.00, 1292.0, 521.0)">…</text><text xml:space="preserve" font-family="Helvetica-Light" font-size="24.0" fill="#000000" transform="matrix(1.00, 0.00, -0.00, -1.00, 946.0, 26.0)">1</text><text xml:space="preserve" font-family="Helvetica-Light" font-size="24.0" fill="#000000" transform="matrix(1.00, 0.00, -0.00, -1.00, 959.3, 26.0)">8</text></g></svg>