<?xml version="1.0" encoding="UTF-8" standalone="no"?><svg xmlns="http://www.w3.org/2000/svg" xmlns:xlink="http://www.w3.org/1999/xlink" clip-rule="evenodd" stroke-miterlimit="4.00" viewBox="0 0 151 33"><desc>SVG generated by Keynote</desc><defs></defs><g transform="matrix(1.00, 0.00, -0.00, -1.00, 0.0, 33.0)"><text xml:space="preserve" font-family="HelveticaNeue-Thin" font-size="40.0" fill="#000000" transform="matrix(1.00, 0.00, -0.00, -1.00, -1.0, 2.0)">P</text><text xml:space="preserve" font-family="HelveticaNeue-Thin" font-size="40.0" fill="#000000" transform="matrix(1.00, 0.00, -0.00, -1.00, 21.8, 2.0)">r</text><text xml:space="preserve" font-family="HelveticaNeue-Thin" font-size="40.0" fill="#000000" transform="matrix(1.00, 0.00, -0.00, -1.00, 32.5, 2.0)">o</text><text xml:space="preserve" font-family="HelveticaNeue-Thin" font-size="40.0" fill="#000000" transform="matrix(1.00, 0.00, -0.00, -1.00, 54.0, 2.0)">a</text><text xml:space="preserve" font-family="HelveticaNeue-Thin" font-size="40.0" fill="#000000" transform="matrix(1.00, 0.00, -0.00, -1.00, 74.0, 2.0)">c</text><text xml:space="preserve" font-family="HelveticaNeue-Thin" font-size="40.0" fill="#000000" transform="matrix(1.00, 0.00, -0.00, -1.00, 94.7, 2.0)">t</text><text xml:space="preserve" font-family="HelveticaNeue-Thin" font-size="40.0" fill="#000000" transform="matrix(1.00, 0.00, -0.00, -1.00, 105.1, 2.0)">i</text><text xml:space="preserve" font-family="HelveticaNeue-Thin" font-size="40.0" fill="#000000" transform="matrix(1.00, 0.00, -0.00, -1.00, 111.8, 2.0)">v</text><text xml:space="preserve" font-family="HelveticaNeue-Thin" font-size="40.0" fill="#000000" transform="matrix(1.00, 0.00, -0.00, -1.00, 129.6, 2.0)">e</text></g></svg>