<?xml version="1.0" encoding="UTF-8" standalone="no"?><svg xmlns="http://www.w3.org/2000/svg" xmlns:xlink="http://www.w3.org/1999/xlink" clip-rule="evenodd" stroke-miterlimit="4.00" viewBox="0 0 1920 1080"><desc>SVG generated by Keynote</desc><defs></defs><g transform="matrix(1.00, 0.00, -0.00, -1.00, 0.0, 1080.0)"><path d="M 0.0 1080.0 L 1920.0 1080.0 L 1920.0 0.0 L 0.0 0.0 Z M 0.0 1080.0 " fill="#FEFFFF"></path><g><clipPath id="clip-1263"><path d="M 1035.0 832.0 L 1473.0 832.0 L 1473.0 -1232.0 L 1035.0 -1232.0 Z M 1035.4 832.4 "></path></clipPath><g clip-path="url(#clip-1263)"><image xlink:href="../../7BF17EFB-FC8B-4E1A-ACCC-40F242AA78C2/assets/08819784475791A4F35FA8252A862B21.png" width="114.00" height="541.00" transform="matrix(3.84, 0.00, -0.00, -3.82, 1035.8, 832.6)"></image></g></g><image xlink:href="../../7BF17EFB-FC8B-4E1A-ACCC-40F242AA78C2/assets/3A9EFF29E6DDFDB0EB5F9B51899A0EA9.png" width="438.00" height="76.00" transform="matrix(1.00, 0.00, -0.00, -0.99, 1036.0, 233.0)"></image><g opacity="0.65"><g><clipPath id="clip-1264"><path d="M 1368.0 402.0 L 1432.0 402.0 L 1432.0 466.0 L 1368.0 466.0 Z M 1368.0 402.0 "></path></clipPath><g clip-path="url(#clip-1264)"><path d="M 1420.9 454.5 C 1432.6 442.8 1432.6 423.8 1420.9 412.1 C 1409.2 400.4 1390.2 400.4 1378.5 412.1 C 1366.8 423.8 1366.8 442.8 1378.5 454.5 C 1390.2 466.2 1409.2 466.2 1420.9 454.5 Z M 1420.9 454.5 " fill="#DCDDE0"></path></g></g></g><text xml:space="preserve" font-family="HelveticaNeue" font-size="100.0" fill="#A6AAA8" transform="matrix(1.00, 0.00, -0.00, -1.00, 153.0, 627.0)">1</text><g><clipPath id="clip-1265"><path d="M 666.0 1130.0 L 1827.0 1130.0 L 1827.0 -31.0 L 666.0 -31.0 Z M 666.4 1130.3 "></path></clipPath><g clip-path="url(#clip-1265)"><image xlink:href="../../7BF17EFB-FC8B-4E1A-ACCC-40F242AA78C2/assets/13CA076A141AAC16F7526866D7ECC828.png" width="769.00" height="540.00" transform="matrix(2.15, 0.00, -0.00, -2.15, 421.0, 1130.0)"></image></g></g><image xlink:href="../../7BF17EFB-FC8B-4E1A-ACCC-40F242AA78C2/assets/EBE5211A1485C795A35D610A09CF3A04.png" width="438.00" height="106.00" transform="matrix(1.00, 0.00, -0.00, -1.00, 1036.0, 941.0)"></image><text xml:space="preserve" font-family="HelveticaNeue" font-size="60.0" fill="#000000" transform="matrix(1.00, 0.00, -0.00, -1.00, 226.0, 663.0)">Y</text><text xml:space="preserve" font-family="HelveticaNeue" font-size="60.0" fill="#000000" transform="matrix(1.00, 0.00, -0.00, -1.00, 258.2, 663.0)">o</text><text xml:space="preserve" font-family="HelveticaNeue" font-size="60.0" fill="#000000" transform="matrix(1.00, 0.00, -0.00, -1.00, 292.7, 663.0)">u</text><text xml:space="preserve" font-family="HelveticaNeue" font-size="60.0" fill="#000000" transform="matrix(1.00, 0.00, -0.00, -1.00, 326.0, 663.0)">r</text><text xml:space="preserve" font-family="HelveticaNeue" font-size="60.0" fill="#000000" transform="matrix(1.00, 0.00, -0.00, -1.00, 346.0, 663.0)"> </text><text xml:space="preserve" font-family="HelveticaNeue" font-size="60.0" fill="#000000" transform="matrix(1.00, 0.00, -0.00, -1.00, 362.7, 663.0)">T</text><text xml:space="preserve" font-family="HelveticaNeue" font-size="60.0" fill="#000000" transform="matrix(1.00, 0.00, -0.00, -1.00, 397.1, 663.0)">V</text><text xml:space="preserve" font-family="HelveticaNeue" font-size="60.0" fill="#000000" transform="matrix(1.00, 0.00, -0.00, -1.00, 433.8, 663.0)"> </text><text xml:space="preserve" font-family="HelveticaNeue" font-size="60.0" fill="#000000" transform="matrix(1.00, 0.00, -0.00, -1.00, 450.5, 663.0)">A</text><text xml:space="preserve" font-family="HelveticaNeue" font-size="60.0" fill="#000000" transform="matrix(1.00, 0.00, -0.00, -1.00, 489.3, 663.0)">s</text><text xml:space="preserve" font-family="HelveticaNeue" font-size="60.0" fill="#000000" transform="matrix(1.00, 0.00, -0.00, -1.00, 519.3, 663.0)">s</text><text xml:space="preserve" font-family="HelveticaNeue" font-size="60.0" fill="#000000" transform="matrix(1.00, 0.00, -0.00, -1.00, 549.3, 663.0)">i</text><text xml:space="preserve" font-family="HelveticaNeue" font-size="60.0" fill="#000000" transform="matrix(1.00, 0.00, -0.00, -1.00, 562.7, 663.0)">s</text><text xml:space="preserve" font-family="HelveticaNeue" font-size="60.0" fill="#000000" transform="matrix(1.00, 0.00, -0.00, -1.00, 592.7, 663.0)">t</text><text xml:space="preserve" font-family="HelveticaNeue" font-size="60.0" fill="#000000" transform="matrix(1.00, 0.00, -0.00, -1.00, 611.6, 663.0)">a</text><text xml:space="preserve" font-family="HelveticaNeue" font-size="60.0" fill="#000000" transform="matrix(1.00, 0.00, -0.00, -1.00, 643.8, 663.0)">n</text><text xml:space="preserve" font-family="HelveticaNeue" font-size="60.0" fill="#000000" transform="matrix(1.00, 0.00, -0.00, -1.00, 677.1, 663.0)">t</text><text xml:space="preserve" font-family="HelveticaNeue-Thin" font-size="40.0" fill="#000000" transform="matrix(1.00, 0.00, -0.00, -1.00, 236.0, 602.0)">P</text><text xml:space="preserve" font-family="HelveticaNeue-Thin" font-size="40.0" fill="#000000" transform="matrix(1.00, 0.00, -0.00, -1.00, 258.0, 602.0)">e</text><text xml:space="preserve" font-family="HelveticaNeue-Thin" font-size="40.0" fill="#000000" transform="matrix(1.00, 0.00, -0.00, -1.00, 278.7, 602.0)">r</text><text xml:space="preserve" font-family="HelveticaNeue-Thin" font-size="40.0" fill="#000000" transform="matrix(1.00, 0.00, -0.00, -1.00, 289.8, 602.0)">s</text><text xml:space="preserve" font-family="HelveticaNeue-Thin" font-size="40.0" fill="#000000" transform="matrix(1.00, 0.00, -0.00, -1.00, 309.1, 602.0)">o</text><text xml:space="preserve" font-family="HelveticaNeue-Thin" font-size="40.0" fill="#000000" transform="matrix(1.00, 0.00, -0.00, -1.00, 330.6, 602.0)">n</text><text xml:space="preserve" font-family="HelveticaNeue-Thin" font-size="40.0" fill="#000000" transform="matrix(1.00, 0.00, -0.00, -1.00, 351.3, 602.0)">a</text><text xml:space="preserve" font-family="HelveticaNeue-Thin" font-size="40.0" fill="#000000" transform="matrix(1.00, 0.00, -0.00, -1.00, 371.3, 602.0)">l</text><text xml:space="preserve" font-family="HelveticaNeue-Thin" font-size="40.0" fill="#000000" transform="matrix(1.00, 0.00, -0.00, -1.00, 378.0, 602.0)">i</text><text xml:space="preserve" font-family="HelveticaNeue-Thin" font-size="40.0" fill="#000000" transform="matrix(1.00, 0.00, -0.00, -1.00, 384.8, 602.0)">z</text><text xml:space="preserve" font-family="HelveticaNeue-Thin" font-size="40.0" fill="#000000" transform="matrix(1.00, 0.00, -0.00, -1.00, 401.1, 602.0)">e</text><text xml:space="preserve" font-family="HelveticaNeue-Thin" font-size="40.0" fill="#000000" transform="matrix(1.00, 0.00, -0.00, -1.00, 421.8, 602.0)">d</text><text xml:space="preserve" font-family="HelveticaNeue-Thin" font-size="40.0" fill="#000000" transform="matrix(1.00, 0.00, -0.00, -1.00, 444.1, 602.0)"> </text><text xml:space="preserve" font-family="HelveticaNeue-Thin" font-size="40.0" fill="#000000" transform="matrix(1.00, 0.00, -0.00, -1.00, 455.2, 602.0)">C</text><text xml:space="preserve" font-family="HelveticaNeue-Thin" font-size="40.0" fill="#000000" transform="matrix(1.00, 0.00, -0.00, -1.00, 483.4, 602.0)">o</text><text xml:space="preserve" font-family="HelveticaNeue-Thin" font-size="40.0" fill="#000000" transform="matrix(1.00, 0.00, -0.00, -1.00, 504.8, 602.0)">n</text><text xml:space="preserve" font-family="HelveticaNeue-Thin" font-size="40.0" fill="#000000" transform="matrix(1.00, 0.00, -0.00, -1.00, 525.6, 602.0)">t</text><text xml:space="preserve" font-family="HelveticaNeue-Thin" font-size="40.0" fill="#000000" transform="matrix(1.00, 0.00, -0.00, -1.00, 535.4, 602.0)">e</text><text xml:space="preserve" font-family="HelveticaNeue-Thin" font-size="40.0" fill="#000000" transform="matrix(1.00, 0.00, -0.00, -1.00, 556.2, 602.0)">n</text><text xml:space="preserve" font-family="HelveticaNeue-Thin" font-size="40.0" fill="#000000" transform="matrix(1.00, 0.00, -0.00, -1.00, 576.9, 602.0)">t</text><text xml:space="preserve" font-family="HelveticaNeue-Thin" font-size="40.0" fill="#000000" transform="matrix(1.00, 0.00, -0.00, -1.00, 236.0, 546.0)">P</text><text xml:space="preserve" font-family="HelveticaNeue-Thin" font-size="40.0" fill="#000000" transform="matrix(1.00, 0.00, -0.00, -1.00, 258.8, 546.0)">r</text><text xml:space="preserve" font-family="HelveticaNeue-Thin" font-size="40.0" fill="#000000" transform="matrix(1.00, 0.00, -0.00, -1.00, 269.5, 546.0)">o</text><text xml:space="preserve" font-family="HelveticaNeue-Thin" font-size="40.0" fill="#000000" transform="matrix(1.00, 0.00, -0.00, -1.00, 291.0, 546.0)">a</text><text xml:space="preserve" font-family="HelveticaNeue-Thin" font-size="40.0" fill="#000000" transform="matrix(1.00, 0.00, -0.00, -1.00, 311.0, 546.0)">c</text><text xml:space="preserve" font-family="HelveticaNeue-Thin" font-size="40.0" fill="#000000" transform="matrix(1.00, 0.00, -0.00, -1.00, 331.7, 546.0)">t</text><text xml:space="preserve" font-family="HelveticaNeue-Thin" font-size="40.0" fill="#000000" transform="matrix(1.00, 0.00, -0.00, -1.00, 342.1, 546.0)">i</text><text xml:space="preserve" font-family="HelveticaNeue-Thin" font-size="40.0" fill="#000000" transform="matrix(1.00, 0.00, -0.00, -1.00, 348.8, 546.0)">v</text><text xml:space="preserve" font-family="HelveticaNeue-Thin" font-size="40.0" fill="#000000" transform="matrix(1.00, 0.00, -0.00, -1.00, 366.6, 546.0)">e</text><text xml:space="preserve" font-family="Helvetica-Light" font-size="24.0" fill="#000000" transform="matrix(1.00, 0.00, -0.00, -1.00, 946.0, 26.0)">3</text><text xml:space="preserve" font-family="Helvetica-Light" font-size="24.0" fill="#000000" transform="matrix(1.00, 0.00, -0.00, -1.00, 959.3, 26.0)">4</text></g></svg>