<?xml version="1.0" encoding="UTF-8" standalone="no"?><svg xmlns="http://www.w3.org/2000/svg" xmlns:xlink="http://www.w3.org/1999/xlink" clip-rule="evenodd" stroke-miterlimit="4.00" viewBox="0 0 1920 1080"><desc>SVG generated by Keynote</desc><defs></defs><g transform="matrix(1.00, 0.00, -0.00, -1.00, 0.0, 1080.0)"><path d="M 0.0 1080.0 L 1920.0 1080.0 L 1920.0 0.0 L 0.0 0.0 Z M 0.0 1080.0 " fill="#FEFFFF"></path><text xml:space="preserve" font-family="HelveticaNeue-Light" font-size="50.0" fill="#52575F" transform="matrix(1.00, 0.00, -0.00, -1.00, 194.0, 400.0)">S</text><text xml:space="preserve" font-family="HelveticaNeue-Light" font-size="50.0" fill="#52575F" transform="matrix(1.00, 0.00, -0.00, -1.00, 225.5, 400.0)">m</text><text xml:space="preserve" font-family="HelveticaNeue-Light" font-size="50.0" fill="#52575F" transform="matrix(1.00, 0.00, -0.00, -1.00, 267.1, 400.0)">a</text><text xml:space="preserve" font-family="HelveticaNeue-Light" font-size="50.0" fill="#52575F" transform="matrix(1.00, 0.00, -0.00, -1.00, 293.1, 400.0)">r</text><text xml:space="preserve" font-family="HelveticaNeue-Light" font-size="50.0" fill="#52575F" transform="matrix(1.00, 0.00, -0.00, -1.00, 308.9, 400.0)">t</text><text xml:space="preserve" font-family="HelveticaNeue-Light" font-size="50.0" fill="#52575F" transform="matrix(1.00, 0.00, -0.00, -1.00, 323.6, 400.0)">p</text><text xml:space="preserve" font-family="HelveticaNeue-Light" font-size="50.0" fill="#52575F" transform="matrix(1.00, 0.00, -0.00, -1.00, 352.4, 400.0)">h</text><text xml:space="preserve" font-family="HelveticaNeue-Light" font-size="50.0" fill="#52575F" transform="matrix(1.00, 0.00, -0.00, -1.00, 379.2, 400.0)">o</text><text xml:space="preserve" font-family="HelveticaNeue-Light" font-size="50.0" fill="#52575F" transform="matrix(1.00, 0.00, -0.00, -1.00, 407.0, 400.0)">n</text><text xml:space="preserve" font-family="HelveticaNeue-Light" font-size="50.0" fill="#52575F" transform="matrix(1.00, 0.00, -0.00, -1.00, 433.9, 400.0)">e</text><text xml:space="preserve" font-family="HelveticaNeue-Light" font-size="50.0" fill="#52575F" transform="matrix(1.00, 0.00, -0.00, -1.00, 459.8, 400.0)"> </text><text xml:space="preserve" font-family="HelveticaNeue-Light" font-size="50.0" fill="#52575F" transform="matrix(1.00, 0.00, -0.00, -1.00, 473.7, 400.0)">k</text><text xml:space="preserve" font-family="HelveticaNeue-Light" font-size="50.0" fill="#52575F" transform="matrix(1.00, 0.00, -0.00, -1.00, 498.7, 400.0)">n</text><text xml:space="preserve" font-family="HelveticaNeue-Light" font-size="50.0" fill="#52575F" transform="matrix(1.00, 0.00, -0.00, -1.00, 525.5, 400.0)">o</text><text xml:space="preserve" font-family="HelveticaNeue-Light" font-size="50.0" fill="#52575F" transform="matrix(1.00, 0.00, -0.00, -1.00, 553.4, 400.0)">w</text><text xml:space="preserve" font-family="HelveticaNeue-Light" font-size="50.0" fill="#52575F" transform="matrix(1.00, 0.00, -0.00, -1.00, 590.4, 400.0)">s</text><text xml:space="preserve" font-family="HelveticaNeue-Light" font-size="50.0" fill="#52575F" transform="matrix(1.00, 0.00, -0.00, -1.00, 614.5, 400.0)">…</text><text xml:space="preserve" font-family="HelveticaNeue-Light" font-size="50.0" fill="#52575F" transform="matrix(1.00, 0.00, -0.00, -1.00, 664.5, 400.0)"> </text><text xml:space="preserve" font-family="HelveticaNeue" font-size="50.0" fill="#000000" transform="matrix(1.00, 0.00, -0.00, -1.00, 195.0, 757.0)">H</text><text xml:space="preserve" font-family="HelveticaNeue" font-size="50.0" fill="#000000" transform="matrix(1.00, 0.00, -0.00, -1.00, 231.1, 757.0)">o</text><text xml:space="preserve" font-family="HelveticaNeue" font-size="50.0" fill="#000000" transform="matrix(1.00, 0.00, -0.00, -1.00, 259.8, 757.0)">w</text><text xml:space="preserve" font-family="HelveticaNeue" font-size="50.0" fill="#000000" transform="matrix(1.00, 0.00, -0.00, -1.00, 297.7, 757.0)"> </text><text xml:space="preserve" font-family="HelveticaNeue" font-size="50.0" fill="#000000" transform="matrix(1.00, 0.00, -0.00, -1.00, 311.6, 757.0)">w</text><text xml:space="preserve" font-family="HelveticaNeue" font-size="50.0" fill="#000000" transform="matrix(1.00, 0.00, -0.00, -1.00, 349.5, 757.0)">e</text><text xml:space="preserve" font-family="HelveticaNeue" font-size="50.0" fill="#000000" transform="matrix(1.00, 0.00, -0.00, -1.00, 376.4, 757.0)"> </text><text xml:space="preserve" font-family="HelveticaNeue" font-size="50.0" fill="#000000" transform="matrix(1.00, 0.00, -0.00, -1.00, 390.2, 757.0)">c</text><text xml:space="preserve" font-family="HelveticaNeue" font-size="50.0" fill="#000000" transform="matrix(1.00, 0.00, -0.00, -1.00, 417.1, 757.0)">a</text><text xml:space="preserve" font-family="HelveticaNeue" font-size="50.0" fill="#000000" transform="matrix(1.00, 0.00, -0.00, -1.00, 444.0, 757.0)">n</text><text xml:space="preserve" font-family="HelveticaNeue" font-size="50.0" fill="#000000" transform="matrix(1.00, 0.00, -0.00, -1.00, 471.8, 757.0)"> </text><text xml:space="preserve" font-family="HelveticaNeue" font-size="50.0" fill="#000000" transform="matrix(1.00, 0.00, -0.00, -1.00, 485.6, 757.0)">u</text><text xml:space="preserve" font-family="HelveticaNeue" font-size="50.0" fill="#000000" transform="matrix(1.00, 0.00, -0.00, -1.00, 513.5, 757.0)">t</text><text xml:space="preserve" font-family="HelveticaNeue" font-size="50.0" fill="#000000" transform="matrix(1.00, 0.00, -0.00, -1.00, 529.2, 757.0)">i</text><text xml:space="preserve" font-family="HelveticaNeue" font-size="50.0" fill="#000000" transform="matrix(1.00, 0.00, -0.00, -1.00, 540.3, 757.0)">l</text><text xml:space="preserve" font-family="HelveticaNeue" font-size="50.0" fill="#000000" transform="matrix(1.00, 0.00, -0.00, -1.00, 551.4, 757.0)">i</text><text xml:space="preserve" font-family="HelveticaNeue" font-size="50.0" fill="#000000" transform="matrix(1.00, 0.00, -0.00, -1.00, 562.5, 757.0)">z</text><text xml:space="preserve" font-family="HelveticaNeue" font-size="50.0" fill="#000000" transform="matrix(1.00, 0.00, -0.00, -1.00, 586.5, 757.0)">e</text><text xml:space="preserve" font-family="HelveticaNeue" font-size="50.0" fill="#000000" transform="matrix(1.00, 0.00, -0.00, -1.00, 613.4, 757.0)"> </text><text xml:space="preserve" font-family="HelveticaNeue" font-size="50.0" fill="#000000" transform="matrix(1.00, 0.00, -0.00, -1.00, 627.2, 757.0)">w</text><text xml:space="preserve" font-family="HelveticaNeue" font-size="50.0" fill="#000000" transform="matrix(1.00, 0.00, -0.00, -1.00, 665.2, 757.0)">h</text><text xml:space="preserve" font-family="HelveticaNeue" font-size="50.0" fill="#000000" transform="matrix(1.00, 0.00, -0.00, -1.00, 693.0, 757.0)">a</text><text xml:space="preserve" font-family="HelveticaNeue" font-size="50.0" fill="#000000" transform="matrix(1.00, 0.00, -0.00, -1.00, 719.8, 757.0)">t</text><text xml:space="preserve" font-family="HelveticaNeue" font-size="50.0" fill="#000000" transform="matrix(1.00, 0.00, -0.00, -1.00, 735.6, 757.0)"> </text><text xml:space="preserve" font-family="HelveticaNeue" font-size="50.0" fill="#000000" transform="matrix(1.00, 0.00, -0.00, -1.00, 195.0, 686.0)">S</text><text xml:space="preserve" font-family="HelveticaNeue" font-size="50.0" fill="#000000" transform="matrix(1.00, 0.00, -0.00, -1.00, 227.4, 686.0)">m</text><text xml:space="preserve" font-family="HelveticaNeue" font-size="50.0" fill="#000000" transform="matrix(1.00, 0.00, -0.00, -1.00, 270.1, 686.0)">a</text><text xml:space="preserve" font-family="HelveticaNeue" font-size="50.0" fill="#000000" transform="matrix(1.00, 0.00, -0.00, -1.00, 296.9, 686.0)">r</text><text xml:space="preserve" font-family="HelveticaNeue" font-size="50.0" fill="#000000" transform="matrix(1.00, 0.00, -0.00, -1.00, 313.6, 686.0)">t</text><text xml:space="preserve" font-family="HelveticaNeue" font-size="50.0" fill="#000000" transform="matrix(1.00, 0.00, -0.00, -1.00, 329.3, 686.0)">p</text><text xml:space="preserve" font-family="HelveticaNeue" font-size="50.0" fill="#000000" transform="matrix(1.00, 0.00, -0.00, -1.00, 359.0, 686.0)">h</text><text xml:space="preserve" font-family="HelveticaNeue" font-size="50.0" fill="#000000" transform="matrix(1.00, 0.00, -0.00, -1.00, 386.8, 686.0)">o</text><text xml:space="preserve" font-family="HelveticaNeue" font-size="50.0" fill="#000000" transform="matrix(1.00, 0.00, -0.00, -1.00, 415.5, 686.0)">n</text><text xml:space="preserve" font-family="HelveticaNeue" font-size="50.0" fill="#000000" transform="matrix(1.00, 0.00, -0.00, -1.00, 443.3, 686.0)">e</text><text xml:space="preserve" font-family="HelveticaNeue" font-size="50.0" fill="#000000" transform="matrix(1.00, 0.00, -0.00, -1.00, 470.1, 686.0)"> </text><text xml:space="preserve" font-family="HelveticaNeue" font-size="50.0" fill="#000000" transform="matrix(1.00, 0.00, -0.00, -1.00, 484.0, 686.0)">o</text><text xml:space="preserve" font-family="HelveticaNeue" font-size="50.0" fill="#000000" transform="matrix(1.00, 0.00, -0.00, -1.00, 512.7, 686.0)">ﬀ</text><text xml:space="preserve" font-family="HelveticaNeue" font-size="50.0" fill="#000000" transform="matrix(1.00, 0.00, -0.00, -1.00, 541.6, 686.0)">e</text><text xml:space="preserve" font-family="HelveticaNeue" font-size="50.0" fill="#000000" transform="matrix(1.00, 0.00, -0.00, -1.00, 568.4, 686.0)">r</text><text xml:space="preserve" font-family="HelveticaNeue" font-size="50.0" fill="#000000" transform="matrix(1.00, 0.00, -0.00, -1.00, 585.1, 686.0)">s</text><text xml:space="preserve" font-family="HelveticaNeue" font-size="50.0" fill="#000000" transform="matrix(1.00, 0.00, -0.00, -1.00, 610.1, 686.0)"> </text><text xml:space="preserve" font-family="HelveticaNeue" font-size="50.0" fill="#000000" transform="matrix(1.00, 0.00, -0.00, -1.00, 624.0, 686.0)">a</text><text xml:space="preserve" font-family="HelveticaNeue" font-size="50.0" fill="#000000" transform="matrix(1.00, 0.00, -0.00, -1.00, 650.8, 686.0)">n</text><text xml:space="preserve" font-family="HelveticaNeue" font-size="50.0" fill="#000000" transform="matrix(1.00, 0.00, -0.00, -1.00, 678.6, 686.0)">d</text><text xml:space="preserve" font-family="HelveticaNeue" font-size="50.0" fill="#000000" transform="matrix(1.00, 0.00, -0.00, -1.00, 708.3, 686.0)"> </text><text xml:space="preserve" font-family="HelveticaNeue" font-size="50.0" fill="#000000" transform="matrix(1.00, 0.00, -0.00, -1.00, 195.0, 614.0)">i</text><text xml:space="preserve" font-family="HelveticaNeue" font-size="50.0" fill="#000000" transform="matrix(1.00, 0.00, -0.00, -1.00, 206.1, 614.0)">n</text><text xml:space="preserve" font-family="HelveticaNeue" font-size="50.0" fill="#000000" transform="matrix(1.00, 0.00, -0.00, -1.00, 233.9, 614.0)">c</text><text xml:space="preserve" font-family="HelveticaNeue" font-size="50.0" fill="#000000" transform="matrix(1.00, 0.00, -0.00, -1.00, 260.8, 614.0)">o</text><text xml:space="preserve" font-family="HelveticaNeue" font-size="50.0" fill="#000000" transform="matrix(1.00, 0.00, -0.00, -1.00, 289.4, 614.0)">r</text><text xml:space="preserve" font-family="HelveticaNeue" font-size="50.0" fill="#000000" transform="matrix(1.00, 0.00, -0.00, -1.00, 306.1, 614.0)">p</text><text xml:space="preserve" font-family="HelveticaNeue" font-size="50.0" fill="#000000" transform="matrix(1.00, 0.00, -0.00, -1.00, 335.8, 614.0)">o</text><text xml:space="preserve" font-family="HelveticaNeue" font-size="50.0" fill="#000000" transform="matrix(1.00, 0.00, -0.00, -1.00, 364.4, 614.0)">r</text><text xml:space="preserve" font-family="HelveticaNeue" font-size="50.0" fill="#000000" transform="matrix(1.00, 0.00, -0.00, -1.00, 381.1, 614.0)">a</text><text xml:space="preserve" font-family="HelveticaNeue" font-size="50.0" fill="#000000" transform="matrix(1.00, 0.00, -0.00, -1.00, 407.9, 614.0)">t</text><text xml:space="preserve" font-family="HelveticaNeue" font-size="50.0" fill="#000000" transform="matrix(1.00, 0.00, -0.00, -1.00, 423.7, 614.0)">e</text><text xml:space="preserve" font-family="HelveticaNeue" font-size="50.0" fill="#000000" transform="matrix(1.00, 0.00, -0.00, -1.00, 450.5, 614.0)"> </text><text xml:space="preserve" font-family="HelveticaNeue" font-size="50.0" fill="#000000" transform="matrix(1.00, 0.00, -0.00, -1.00, 464.4, 614.0)">t</text><text xml:space="preserve" font-family="HelveticaNeue" font-size="50.0" fill="#000000" transform="matrix(1.00, 0.00, -0.00, -1.00, 480.2, 614.0)">h</text><text xml:space="preserve" font-family="HelveticaNeue" font-size="50.0" fill="#000000" transform="matrix(1.00, 0.00, -0.00, -1.00, 508.0, 614.0)">a</text><text xml:space="preserve" font-family="HelveticaNeue" font-size="50.0" fill="#000000" transform="matrix(1.00, 0.00, -0.00, -1.00, 534.9, 614.0)">t</text><text xml:space="preserve" font-family="HelveticaNeue" font-size="50.0" fill="#000000" transform="matrix(1.00, 0.00, -0.00, -1.00, 550.6, 614.0)"> </text><text xml:space="preserve" font-family="HelveticaNeue" font-size="50.0" fill="#000000" transform="matrix(1.00, 0.00, -0.00, -1.00, 564.5, 614.0)">i</text><text xml:space="preserve" font-family="HelveticaNeue" font-size="50.0" fill="#000000" transform="matrix(1.00, 0.00, -0.00, -1.00, 575.6, 614.0)">n</text><text xml:space="preserve" font-family="HelveticaNeue" font-size="50.0" fill="#000000" transform="matrix(1.00, 0.00, -0.00, -1.00, 603.4, 614.0)">t</text><text xml:space="preserve" font-family="HelveticaNeue" font-size="50.0" fill="#000000" transform="matrix(1.00, 0.00, -0.00, -1.00, 619.2, 614.0)">o</text><text xml:space="preserve" font-family="HelveticaNeue" font-size="50.0" fill="#000000" transform="matrix(1.00, 0.00, -0.00, -1.00, 647.9, 614.0)"> </text><text xml:space="preserve" font-family="HelveticaNeue" font-size="50.0" fill="#000000" transform="matrix(1.00, 0.00, -0.00, -1.00, 661.8, 614.0)">o</text><text xml:space="preserve" font-family="HelveticaNeue" font-size="50.0" fill="#000000" transform="matrix(1.00, 0.00, -0.00, -1.00, 690.5, 614.0)">u</text><text xml:space="preserve" font-family="HelveticaNeue" font-size="50.0" fill="#000000" transform="matrix(1.00, 0.00, -0.00, -1.00, 718.2, 614.0)">r</text><text xml:space="preserve" font-family="HelveticaNeue" font-size="50.0" fill="#000000" transform="matrix(1.00, 0.00, -0.00, -1.00, 734.9, 614.0)"> </text><text xml:space="preserve" font-family="HelveticaNeue" font-size="50.0" fill="#000000" transform="matrix(1.00, 0.00, -0.00, -1.00, 195.0, 542.0)">s</text><text xml:space="preserve" font-family="HelveticaNeue" font-size="50.0" fill="#000000" transform="matrix(1.00, 0.00, -0.00, -1.00, 220.0, 542.0)">o</text><text xml:space="preserve" font-family="HelveticaNeue" font-size="50.0" fill="#000000" transform="matrix(1.00, 0.00, -0.00, -1.00, 248.7, 542.0)">l</text><text xml:space="preserve" font-family="HelveticaNeue" font-size="50.0" fill="#000000" transform="matrix(1.00, 0.00, -0.00, -1.00, 259.8, 542.0)">u</text><text xml:space="preserve" font-family="HelveticaNeue" font-size="50.0" fill="#000000" transform="matrix(1.00, 0.00, -0.00, -1.00, 287.6, 542.0)">t</text><text xml:space="preserve" font-family="HelveticaNeue" font-size="50.0" fill="#000000" transform="matrix(1.00, 0.00, -0.00, -1.00, 303.4, 542.0)">i</text><text xml:space="preserve" font-family="HelveticaNeue" font-size="50.0" fill="#000000" transform="matrix(1.00, 0.00, -0.00, -1.00, 314.5, 542.0)">o</text><text xml:space="preserve" font-family="HelveticaNeue" font-size="50.0" fill="#000000" transform="matrix(1.00, 0.00, -0.00, -1.00, 343.2, 542.0)">n</text><text xml:space="preserve" font-family="HelveticaNeue" font-size="50.0" fill="#000000" transform="matrix(1.00, 0.00, -0.00, -1.00, 371.0, 542.0)">?</text><g opacity="0.40"><g><clipPath id="clip-752"><path d="M 14.0 487.0 L 406.0 487.0 L 406.0 1080.0 L 14.0 1080.0 Z M 14.0 487.0 "></path></clipPath><g clip-path="url(#clip-752)"><text xml:space="preserve" font-family="HelveticaNeue" font-size="500.0" fill="#DCDDE0" transform="matrix(1.00, 0.00, -0.00, -1.00, 21.0, 600.0)">3</text></g></g></g><text xml:space="preserve" font-family="Helvetica-Light" font-size="24.0" fill="#000000" transform="matrix(1.00, 0.00, -0.00, -1.00, 946.0, 26.0)">2</text><text xml:space="preserve" font-family="Helvetica-Light" font-size="24.0" fill="#000000" transform="matrix(1.00, 0.00, -0.00, -1.00, 959.3, 26.0)">7</text></g></svg>