<?xml version="1.0" encoding="UTF-8" standalone="no"?><svg xmlns="http://www.w3.org/2000/svg" xmlns:xlink="http://www.w3.org/1999/xlink" clip-rule="evenodd" stroke-miterlimit="4.00" viewBox="0 0 444 62"><desc>SVG generated by Keynote</desc><defs></defs><g transform="matrix(1.00, 0.00, -0.00, -1.00, 0.0, 62.0)"><text xml:space="preserve" font-family="HelveticaNeue-Thin" font-size="30.0" fill="#FEFFFF" transform="matrix(1.00, 0.00, -0.00, -1.00, 1.0, 38.0)">O</text><text xml:space="preserve" font-family="HelveticaNeue-Thin" font-size="30.0" fill="#FEFFFF" transform="matrix(1.00, 0.00, -0.00, -1.00, 23.2, 38.0)">v</text><text xml:space="preserve" font-family="HelveticaNeue-Thin" font-size="30.0" fill="#FEFFFF" transform="matrix(1.00, 0.00, -0.00, -1.00, 36.5, 38.0)">e</text><text xml:space="preserve" font-family="HelveticaNeue-Thin" font-size="30.0" fill="#FEFFFF" transform="matrix(1.00, 0.00, -0.00, -1.00, 52.1, 38.0)">r</text><text xml:space="preserve" font-family="HelveticaNeue-Thin" font-size="30.0" fill="#FEFFFF" transform="matrix(1.00, 0.00, -0.00, -1.00, 60.5, 38.0)">l</text><text xml:space="preserve" font-family="HelveticaNeue-Thin" font-size="30.0" fill="#FEFFFF" transform="matrix(1.00, 0.00, -0.00, -1.00, 65.5, 38.0)">a</text><text xml:space="preserve" font-family="HelveticaNeue-Thin" font-size="30.0" fill="#FEFFFF" transform="matrix(1.00, 0.00, -0.00, -1.00, 80.5, 38.0)">y</text><text xml:space="preserve" font-family="HelveticaNeue-Thin" font-size="30.0" fill="#FEFFFF" transform="matrix(1.00, 0.00, -0.00, -1.00, 93.8, 38.0)"> </text><text xml:space="preserve" font-family="HelveticaNeue-Thin" font-size="30.0" fill="#FEFFFF" transform="matrix(1.00, 0.00, -0.00, -1.00, 102.2, 38.0)">o</text><text xml:space="preserve" font-family="HelveticaNeue-Thin" font-size="30.0" fill="#FEFFFF" transform="matrix(1.00, 0.00, -0.00, -1.00, 118.3, 38.0)">n</text><text xml:space="preserve" font-family="HelveticaNeue-Thin" font-size="30.0" fill="#FEFFFF" transform="matrix(1.00, 0.00, -0.00, -1.00, 133.8, 38.0)"> </text><text xml:space="preserve" font-family="HelveticaNeue-Thin" font-size="30.0" fill="#FEFFFF" transform="matrix(1.00, 0.00, -0.00, -1.00, 142.2, 38.0)">T</text><text xml:space="preserve" font-family="HelveticaNeue-Thin" font-size="30.0" fill="#FEFFFF" transform="matrix(1.00, 0.00, -0.00, -1.00, 157.8, 38.0)">V</text><text xml:space="preserve" font-family="HelveticaNeue-Thin" font-size="30.0" fill="#FEFFFF" transform="matrix(1.00, 0.00, -0.00, -1.00, 174.4, 38.0)"> </text><text xml:space="preserve" font-family="HelveticaNeue-Thin" font-size="30.0" fill="#FEFFFF" transform="matrix(1.00, 0.00, -0.00, -1.00, 182.8, 38.0)">t</text><text xml:space="preserve" font-family="HelveticaNeue-Thin" font-size="30.0" fill="#FEFFFF" transform="matrix(1.00, 0.00, -0.00, -1.00, 190.1, 38.0)">o</text><text xml:space="preserve" font-family="HelveticaNeue-Thin" font-size="30.0" fill="#FEFFFF" transform="matrix(1.00, 0.00, -0.00, -1.00, 206.2, 38.0)"> </text><text xml:space="preserve" font-family="HelveticaNeue-Thin" font-size="30.0" fill="#FEFFFF" transform="matrix(1.00, 0.00, -0.00, -1.00, 214.6, 38.0)">s</text><text xml:space="preserve" font-family="HelveticaNeue-Thin" font-size="30.0" fill="#FEFFFF" transform="matrix(1.00, 0.00, -0.00, -1.00, 229.0, 38.0)">h</text><text xml:space="preserve" font-family="HelveticaNeue-Thin" font-size="30.0" fill="#FEFFFF" transform="matrix(1.00, 0.00, -0.00, -1.00, 244.6, 38.0)">o</text><text xml:space="preserve" font-family="HelveticaNeue-Thin" font-size="30.0" fill="#FEFFFF" transform="matrix(1.00, 0.00, -0.00, -1.00, 260.7, 38.0)">w</text><text xml:space="preserve" font-family="HelveticaNeue-Thin" font-size="30.0" fill="#FEFFFF" transform="matrix(1.00, 0.00, -0.00, -1.00, 281.8, 38.0)"> </text><text xml:space="preserve" font-family="HelveticaNeue-Thin" font-size="30.0" fill="#FEFFFF" transform="matrix(1.00, 0.00, -0.00, -1.00, 290.1, 38.0)">m</text><text xml:space="preserve" font-family="HelveticaNeue-Thin" font-size="30.0" fill="#FEFFFF" transform="matrix(1.00, 0.00, -0.00, -1.00, 314.0, 38.0)">o</text><text xml:space="preserve" font-family="HelveticaNeue-Thin" font-size="30.0" fill="#FEFFFF" transform="matrix(1.00, 0.00, -0.00, -1.00, 330.1, 38.0)">r</text><text xml:space="preserve" font-family="HelveticaNeue-Thin" font-size="30.0" fill="#FEFFFF" transform="matrix(1.00, 0.00, -0.00, -1.00, 338.1, 38.0)">e</text><text xml:space="preserve" font-family="HelveticaNeue-Thin" font-size="30.0" fill="#FEFFFF" transform="matrix(1.00, 0.00, -0.00, -1.00, 353.7, 38.0)"> </text><text xml:space="preserve" font-family="HelveticaNeue-Thin" font-size="30.0" fill="#FEFFFF" transform="matrix(1.00, 0.00, -0.00, -1.00, 362.0, 38.0)">d</text><text xml:space="preserve" font-family="HelveticaNeue-Thin" font-size="30.0" fill="#FEFFFF" transform="matrix(1.00, 0.00, -0.00, -1.00, 378.7, 38.0)">e</text><text xml:space="preserve" font-family="HelveticaNeue-Thin" font-size="30.0" fill="#FEFFFF" transform="matrix(1.00, 0.00, -0.00, -1.00, 394.3, 38.0)">t</text><text xml:space="preserve" font-family="HelveticaNeue-Thin" font-size="30.0" fill="#FEFFFF" transform="matrix(1.00, 0.00, -0.00, -1.00, 402.0, 38.0)">a</text><text xml:space="preserve" font-family="HelveticaNeue-Thin" font-size="30.0" fill="#FEFFFF" transform="matrix(1.00, 0.00, -0.00, -1.00, 417.0, 38.0)">i</text><text xml:space="preserve" font-family="HelveticaNeue-Thin" font-size="30.0" fill="#FEFFFF" transform="matrix(1.00, 0.00, -0.00, -1.00, 422.1, 38.0)">l</text><text xml:space="preserve" font-family="HelveticaNeue-Thin" font-size="30.0" fill="#FEFFFF" transform="matrix(1.00, 0.00, -0.00, -1.00, 427.1, 38.0)">s</text><text xml:space="preserve" font-family="HelveticaNeue-Thin" font-size="30.0" fill="#FEFFFF" transform="matrix(1.00, 0.00, -0.00, -1.00, 441.6, 38.0)"> </text><text xml:space="preserve" font-family="HelveticaNeue-Thin" font-size="30.0" fill="#FEFFFF" transform="matrix(1.00, 0.00, -0.00, -1.00, 1.0, 2.0)">C</text><text xml:space="preserve" font-family="HelveticaNeue-Thin" font-size="30.0" fill="#FEFFFF" transform="matrix(1.00, 0.00, -0.00, -1.00, 22.1, 2.0)">o</text><text xml:space="preserve" font-family="HelveticaNeue-Thin" font-size="30.0" fill="#FEFFFF" transform="matrix(1.00, 0.00, -0.00, -1.00, 38.2, 2.0)">n</text><text xml:space="preserve" font-family="HelveticaNeue-Thin" font-size="30.0" fill="#FEFFFF" transform="matrix(1.00, 0.00, -0.00, -1.00, 53.8, 2.0)">t</text><text xml:space="preserve" font-family="HelveticaNeue-Thin" font-size="30.0" fill="#FEFFFF" transform="matrix(1.00, 0.00, -0.00, -1.00, 61.1, 2.0)">e</text><text xml:space="preserve" font-family="HelveticaNeue-Thin" font-size="30.0" fill="#FEFFFF" transform="matrix(1.00, 0.00, -0.00, -1.00, 76.4, 2.0)">x</text><text xml:space="preserve" font-family="HelveticaNeue-Thin" font-size="30.0" fill="#FEFFFF" transform="matrix(1.00, 0.00, -0.00, -1.00, 89.7, 2.0)">t</text><text xml:space="preserve" font-family="HelveticaNeue-Thin" font-size="30.0" fill="#FEFFFF" transform="matrix(1.00, 0.00, -0.00, -1.00, 97.5, 2.0)">-</text><text xml:space="preserve" font-family="HelveticaNeue-Thin" font-size="30.0" fill="#FEFFFF" transform="matrix(1.00, 0.00, -0.00, -1.00, 108.0, 2.0)">b</text><text xml:space="preserve" font-family="HelveticaNeue-Thin" font-size="30.0" fill="#FEFFFF" transform="matrix(1.00, 0.00, -0.00, -1.00, 124.7, 2.0)">a</text><text xml:space="preserve" font-family="HelveticaNeue-Thin" font-size="30.0" fill="#FEFFFF" transform="matrix(1.00, 0.00, -0.00, -1.00, 139.7, 2.0)">s</text><text xml:space="preserve" font-family="HelveticaNeue-Thin" font-size="30.0" fill="#FEFFFF" transform="matrix(1.00, 0.00, -0.00, -1.00, 154.1, 2.0)">e</text><text xml:space="preserve" font-family="HelveticaNeue-Thin" font-size="30.0" fill="#FEFFFF" transform="matrix(1.00, 0.00, -0.00, -1.00, 169.7, 2.0)">d</text><text xml:space="preserve" font-family="HelveticaNeue-Thin" font-size="30.0" fill="#FEFFFF" transform="matrix(1.00, 0.00, -0.00, -1.00, 186.4, 2.0)"> </text><text xml:space="preserve" font-family="HelveticaNeue-Thin" font-size="30.0" fill="#FEFFFF" transform="matrix(1.00, 0.00, -0.00, -1.00, 194.7, 2.0)">i</text><text xml:space="preserve" font-family="HelveticaNeue-Thin" font-size="30.0" fill="#FEFFFF" transform="matrix(1.00, 0.00, -0.00, -1.00, 199.8, 2.0)">n</text><text xml:space="preserve" font-family="HelveticaNeue-Thin" font-size="30.0" fill="#FEFFFF" transform="matrix(1.00, 0.00, -0.00, -1.00, 215.3, 2.0)">t</text><text xml:space="preserve" font-family="HelveticaNeue-Thin" font-size="30.0" fill="#FEFFFF" transform="matrix(1.00, 0.00, -0.00, -1.00, 222.7, 2.0)">e</text><text xml:space="preserve" font-family="HelveticaNeue-Thin" font-size="30.0" fill="#FEFFFF" transform="matrix(1.00, 0.00, -0.00, -1.00, 238.2, 2.0)">r</text><text xml:space="preserve" font-family="HelveticaNeue-Thin" font-size="30.0" fill="#FEFFFF" transform="matrix(1.00, 0.00, -0.00, -1.00, 247.4, 2.0)">f</text><text xml:space="preserve" font-family="HelveticaNeue-Thin" font-size="30.0" fill="#FEFFFF" transform="matrix(1.00, 0.00, -0.00, -1.00, 254.6, 2.0)">a</text><text xml:space="preserve" font-family="HelveticaNeue-Thin" font-size="30.0" fill="#FEFFFF" transform="matrix(1.00, 0.00, -0.00, -1.00, 269.6, 2.0)">c</text><text xml:space="preserve" font-family="HelveticaNeue-Thin" font-size="30.0" fill="#FEFFFF" transform="matrix(1.00, 0.00, -0.00, -1.00, 285.2, 2.0)">e</text></g></svg>