<?xml version="1.0" encoding="UTF-8" standalone="no"?><svg xmlns="http://www.w3.org/2000/svg" xmlns:xlink="http://www.w3.org/1999/xlink" clip-rule="evenodd" stroke-miterlimit="4.00" viewBox="0 0 405 41"><desc>SVG generated by Keynote</desc><defs></defs><g transform="matrix(1.00, 0.00, -0.00, -1.00, 0.0, 41.0)"><text xml:space="preserve" font-family="HelveticaNeue" font-size="40.0" fill="#000000" transform="matrix(1.00, 0.00, -0.00, -1.00, -1.0, 10.0)">N</text><text xml:space="preserve" font-family="HelveticaNeue" font-size="40.0" fill="#000000" transform="matrix(1.00, 0.00, -0.00, -1.00, 27.9, 10.0)">e</text><text xml:space="preserve" font-family="HelveticaNeue" font-size="40.0" fill="#000000" transform="matrix(1.00, 0.00, -0.00, -1.00, 49.4, 10.0)">v</text><text xml:space="preserve" font-family="HelveticaNeue" font-size="40.0" fill="#000000" transform="matrix(1.00, 0.00, -0.00, -1.00, 69.4, 10.0)">e</text><text xml:space="preserve" font-family="HelveticaNeue" font-size="40.0" fill="#000000" transform="matrix(1.00, 0.00, -0.00, -1.00, 90.8, 10.0)">r</text><text xml:space="preserve" font-family="HelveticaNeue" font-size="40.0" fill="#000000" transform="matrix(1.00, 0.00, -0.00, -1.00, 104.2, 10.0)">F</text><text xml:space="preserve" font-family="HelveticaNeue" font-size="40.0" fill="#000000" transform="matrix(1.00, 0.00, -0.00, -1.00, 127.1, 10.0)">o</text><text xml:space="preserve" font-family="HelveticaNeue" font-size="40.0" fill="#000000" transform="matrix(1.00, 0.00, -0.00, -1.00, 150.1, 10.0)">r</text><text xml:space="preserve" font-family="HelveticaNeue" font-size="40.0" fill="#000000" transform="matrix(1.00, 0.00, -0.00, -1.00, 162.3, 10.0)">g</text><text xml:space="preserve" font-family="HelveticaNeue" font-size="40.0" fill="#000000" transform="matrix(1.00, 0.00, -0.00, -1.00, 185.2, 10.0)">e</text><text xml:space="preserve" font-family="HelveticaNeue" font-size="40.0" fill="#000000" transform="matrix(1.00, 0.00, -0.00, -1.00, 206.7, 10.0)">t</text><text xml:space="preserve" font-family="HelveticaNeue" font-size="40.0" fill="#000000" transform="matrix(1.00, 0.00, -0.00, -1.00, 219.3, 10.0)"> </text><text xml:space="preserve" font-family="HelveticaNeue" font-size="40.0" fill="#000000" transform="matrix(1.00, 0.00, -0.00, -1.00, 230.4, 10.0)">R</text><text xml:space="preserve" font-family="HelveticaNeue" font-size="40.0" fill="#000000" transform="matrix(1.00, 0.00, -0.00, -1.00, 257.8, 10.0)">e</text><text xml:space="preserve" font-family="HelveticaNeue" font-size="40.0" fill="#000000" transform="matrix(1.00, 0.00, -0.00, -1.00, 279.3, 10.0)">m</text><text xml:space="preserve" font-family="HelveticaNeue" font-size="40.0" fill="#000000" transform="matrix(1.00, 0.00, -0.00, -1.00, 313.4, 10.0)">i</text><text xml:space="preserve" font-family="HelveticaNeue" font-size="40.0" fill="#000000" transform="matrix(1.00, 0.00, -0.00, -1.00, 322.3, 10.0)">n</text><text xml:space="preserve" font-family="HelveticaNeue" font-size="40.0" fill="#000000" transform="matrix(1.00, 0.00, -0.00, -1.00, 344.6, 10.0)">d</text><text xml:space="preserve" font-family="HelveticaNeue" font-size="40.0" fill="#000000" transform="matrix(1.00, 0.00, -0.00, -1.00, 368.3, 10.0)">e</text><text xml:space="preserve" font-family="HelveticaNeue" font-size="40.0" fill="#000000" transform="matrix(1.00, 0.00, -0.00, -1.00, 389.8, 10.0)">r</text></g></svg>