<?xml version="1.0" encoding="UTF-8" standalone="no"?><svg xmlns="http://www.w3.org/2000/svg" xmlns:xlink="http://www.w3.org/1999/xlink" clip-rule="evenodd" stroke-miterlimit="4.00" viewBox="0 0 433 148"><desc>SVG generated by Keynote</desc><defs></defs><g transform="matrix(1.00, 0.00, -0.00, -1.00, 0.0, 148.0)"><g><clipPath id="clip-701"><path d="M 57.3 30.4 L 431.9 30.4 L 431.9 149.7 L 57.3 149.7 Z M 57.3 30.4 "></path></clipPath><g clip-path="url(#clip-701)"><text xml:space="preserve" font-family="HelveticaNeue" font-size="40.0" fill="#000000" transform="matrix(1.00, 0.00, -0.00, -1.00, 69.0, 100.0)">S</text><text xml:space="preserve" font-family="HelveticaNeue" font-size="40.0" fill="#000000" transform="matrix(1.00, 0.00, -0.00, -1.00, 94.9, 100.0)">e</text><text xml:space="preserve" font-family="HelveticaNeue" font-size="40.0" fill="#000000" transform="matrix(1.00, 0.00, -0.00, -1.00, 116.4, 100.0)">a</text><text xml:space="preserve" font-family="HelveticaNeue" font-size="40.0" fill="#000000" transform="matrix(1.00, 0.00, -0.00, -1.00, 137.9, 100.0)">m</text><text xml:space="preserve" font-family="HelveticaNeue" font-size="40.0" fill="#000000" transform="matrix(1.00, 0.00, -0.00, -1.00, 172.0, 100.0)">l</text><text xml:space="preserve" font-family="HelveticaNeue" font-size="40.0" fill="#000000" transform="matrix(1.00, 0.00, -0.00, -1.00, 180.9, 100.0)">e</text><text xml:space="preserve" font-family="HelveticaNeue" font-size="40.0" fill="#000000" transform="matrix(1.00, 0.00, -0.00, -1.00, 202.4, 100.0)">s</text><text xml:space="preserve" font-family="HelveticaNeue" font-size="40.0" fill="#000000" transform="matrix(1.00, 0.00, -0.00, -1.00, 222.4, 100.0)">s</text><text xml:space="preserve" font-family="HelveticaNeue" font-size="40.0" fill="#000000" transform="matrix(1.00, 0.00, -0.00, -1.00, 242.4, 100.0)">l</text><text xml:space="preserve" font-family="HelveticaNeue" font-size="40.0" fill="#000000" transform="matrix(1.00, 0.00, -0.00, -1.00, 251.2, 100.0)">y</text><text xml:space="preserve" font-family="HelveticaNeue" font-size="40.0" fill="#000000" transform="matrix(1.00, 0.00, -0.00, -1.00, 271.2, 100.0)"> </text><text xml:space="preserve" font-family="HelveticaNeue" font-size="40.0" fill="#000000" transform="matrix(1.00, 0.00, -0.00, -1.00, 282.4, 100.0)">S</text><text xml:space="preserve" font-family="HelveticaNeue" font-size="40.0" fill="#000000" transform="matrix(1.00, 0.00, -0.00, -1.00, 308.3, 100.0)">w</text><text xml:space="preserve" font-family="HelveticaNeue" font-size="40.0" fill="#000000" transform="matrix(1.00, 0.00, -0.00, -1.00, 338.6, 100.0)">i</text><text xml:space="preserve" font-family="HelveticaNeue" font-size="40.0" fill="#000000" transform="matrix(1.00, 0.00, -0.00, -1.00, 347.5, 100.0)">t</text><text xml:space="preserve" font-family="HelveticaNeue" font-size="40.0" fill="#000000" transform="matrix(1.00, 0.00, -0.00, -1.00, 360.1, 100.0)">c</text><text xml:space="preserve" font-family="HelveticaNeue" font-size="40.0" fill="#000000" transform="matrix(1.00, 0.00, -0.00, -1.00, 381.6, 100.0)">h</text><text xml:space="preserve" font-family="HelveticaNeue" font-size="40.0" fill="#000000" transform="matrix(1.00, 0.00, -0.00, -1.00, 403.8, 100.0)"> </text><text xml:space="preserve" font-family="HelveticaNeue" font-size="40.0" fill="#000000" transform="matrix(1.00, 0.00, -0.00, -1.00, 69.0, 52.0)">B</text><text xml:space="preserve" font-family="HelveticaNeue" font-size="40.0" fill="#000000" transform="matrix(1.00, 0.00, -0.00, -1.00, 96.4, 52.0)">e</text><text xml:space="preserve" font-family="HelveticaNeue" font-size="40.0" fill="#000000" transform="matrix(1.00, 0.00, -0.00, -1.00, 117.9, 52.0)">t</text><text xml:space="preserve" font-family="HelveticaNeue" font-size="40.0" fill="#000000" transform="matrix(1.00, 0.00, -0.00, -1.00, 130.5, 52.0)">w</text><text xml:space="preserve" font-family="HelveticaNeue" font-size="40.0" fill="#000000" transform="matrix(1.00, 0.00, -0.00, -1.00, 160.8, 52.0)">e</text><text xml:space="preserve" font-family="HelveticaNeue" font-size="40.0" fill="#000000" transform="matrix(1.00, 0.00, -0.00, -1.00, 182.3, 52.0)">e</text><text xml:space="preserve" font-family="HelveticaNeue" font-size="40.0" fill="#000000" transform="matrix(1.00, 0.00, -0.00, -1.00, 203.8, 52.0)">n</text><text xml:space="preserve" font-family="HelveticaNeue" font-size="40.0" fill="#000000" transform="matrix(1.00, 0.00, -0.00, -1.00, 226.0, 52.0)"> </text><text xml:space="preserve" font-family="HelveticaNeue" font-size="40.0" fill="#000000" transform="matrix(1.00, 0.00, -0.00, -1.00, 237.1, 52.0)">C</text><text xml:space="preserve" font-family="HelveticaNeue" font-size="40.0" fill="#000000" transform="matrix(1.00, 0.00, -0.00, -1.00, 266.0, 52.0)">h</text><text xml:space="preserve" font-family="HelveticaNeue" font-size="40.0" fill="#000000" transform="matrix(1.00, 0.00, -0.00, -1.00, 288.2, 52.0)">a</text><text xml:space="preserve" font-family="HelveticaNeue" font-size="40.0" fill="#000000" transform="matrix(1.00, 0.00, -0.00, -1.00, 309.7, 52.0)">n</text><text xml:space="preserve" font-family="HelveticaNeue" font-size="40.0" fill="#000000" transform="matrix(1.00, 0.00, -0.00, -1.00, 332.0, 52.0)">n</text><text xml:space="preserve" font-family="HelveticaNeue" font-size="40.0" fill="#000000" transform="matrix(1.00, 0.00, -0.00, -1.00, 354.2, 52.0)">e</text><text xml:space="preserve" font-family="HelveticaNeue" font-size="40.0" fill="#000000" transform="matrix(1.00, 0.00, -0.00, -1.00, 375.7, 52.0)">l</text><text xml:space="preserve" font-family="HelveticaNeue" font-size="40.0" fill="#000000" transform="matrix(1.00, 0.00, -0.00, -1.00, 384.6, 52.0)">s</text></g></g><g><clipPath id="clip-702"><path d="M 62.8 -2.7 L 434.4 -2.7 L 434.4 51.0 L 62.8 51.0 Z M 62.8 -2.7 "></path></clipPath><g clip-path="url(#clip-702)"><text xml:space="preserve" font-family="HelveticaNeue-Thin" font-size="30.0" fill="#000000" transform="matrix(1.00, 0.00, -0.00, -1.00, 72.0, 13.0)">W</text><text xml:space="preserve" font-family="HelveticaNeue-Thin" font-size="30.0" fill="#000000" transform="matrix(1.00, 0.00, -0.00, -1.00, 99.4, 13.0)">i</text><text xml:space="preserve" font-family="HelveticaNeue-Thin" font-size="30.0" fill="#000000" transform="matrix(1.00, 0.00, -0.00, -1.00, 104.4, 13.0)">t</text><text xml:space="preserve" font-family="HelveticaNeue-Thin" font-size="30.0" fill="#000000" transform="matrix(1.00, 0.00, -0.00, -1.00, 112.2, 13.0)">h</text><text xml:space="preserve" font-family="HelveticaNeue-Thin" font-size="30.0" fill="#000000" transform="matrix(1.00, 0.00, -0.00, -1.00, 127.8, 13.0)"> </text><text xml:space="preserve" font-family="HelveticaNeue-Thin" font-size="30.0" fill="#000000" transform="matrix(1.00, 0.00, -0.00, -1.00, 136.1, 13.0)">H</text><text xml:space="preserve" font-family="HelveticaNeue-Thin" font-size="30.0" fill="#000000" transform="matrix(1.00, 0.00, -0.00, -1.00, 156.2, 13.0)">i</text><text xml:space="preserve" font-family="HelveticaNeue-Thin" font-size="30.0" fill="#000000" transform="matrix(1.00, 0.00, -0.00, -1.00, 161.2, 13.0)">s</text><text xml:space="preserve" font-family="HelveticaNeue-Thin" font-size="30.0" fill="#000000" transform="matrix(1.00, 0.00, -0.00, -1.00, 175.7, 13.0)">t</text><text xml:space="preserve" font-family="HelveticaNeue-Thin" font-size="30.0" fill="#000000" transform="matrix(1.00, 0.00, -0.00, -1.00, 183.0, 13.0)">o</text><text xml:space="preserve" font-family="HelveticaNeue-Thin" font-size="30.0" fill="#000000" transform="matrix(1.00, 0.00, -0.00, -1.00, 199.1, 13.0)">r</text><text xml:space="preserve" font-family="HelveticaNeue-Thin" font-size="30.0" fill="#000000" transform="matrix(1.00, 0.00, -0.00, -1.00, 208.0, 13.0)">y</text><text xml:space="preserve" font-family="HelveticaNeue-Thin" font-size="30.0" fill="#000000" transform="matrix(1.00, 0.00, -0.00, -1.00, 221.3, 13.0)"> </text><text xml:space="preserve" font-family="HelveticaNeue-Thin" font-size="30.0" fill="#000000" transform="matrix(1.00, 0.00, -0.00, -1.00, 229.7, 13.0)">a</text><text xml:space="preserve" font-family="HelveticaNeue-Thin" font-size="30.0" fill="#000000" transform="matrix(1.00, 0.00, -0.00, -1.00, 244.7, 13.0)">n</text><text xml:space="preserve" font-family="HelveticaNeue-Thin" font-size="30.0" fill="#000000" transform="matrix(1.00, 0.00, -0.00, -1.00, 260.2, 13.0)">d</text><text xml:space="preserve" font-family="HelveticaNeue-Thin" font-size="30.0" fill="#000000" transform="matrix(1.00, 0.00, -0.00, -1.00, 276.9, 13.0)"> </text><text xml:space="preserve" font-family="HelveticaNeue-Thin" font-size="30.0" fill="#000000" transform="matrix(1.00, 0.00, -0.00, -1.00, 285.3, 13.0)">F</text><text xml:space="preserve" font-family="HelveticaNeue-Thin" font-size="30.0" fill="#000000" transform="matrix(1.00, 0.00, -0.00, -1.00, 299.8, 13.0)">a</text><text xml:space="preserve" font-family="HelveticaNeue-Thin" font-size="30.0" fill="#000000" transform="matrix(1.00, 0.00, -0.00, -1.00, 314.8, 13.0)">v</text><text xml:space="preserve" font-family="HelveticaNeue-Thin" font-size="30.0" fill="#000000" transform="matrix(1.00, 0.00, -0.00, -1.00, 328.2, 13.0)">o</text><text xml:space="preserve" font-family="HelveticaNeue-Thin" font-size="30.0" fill="#000000" transform="matrix(1.00, 0.00, -0.00, -1.00, 344.3, 13.0)">r</text><text xml:space="preserve" font-family="HelveticaNeue-Thin" font-size="30.0" fill="#000000" transform="matrix(1.00, 0.00, -0.00, -1.00, 352.6, 13.0)">i</text><text xml:space="preserve" font-family="HelveticaNeue-Thin" font-size="30.0" fill="#000000" transform="matrix(1.00, 0.00, -0.00, -1.00, 357.7, 13.0)">t</text><text xml:space="preserve" font-family="HelveticaNeue-Thin" font-size="30.0" fill="#000000" transform="matrix(1.00, 0.00, -0.00, -1.00, 365.0, 13.0)">e</text><text xml:space="preserve" font-family="HelveticaNeue-Thin" font-size="30.0" fill="#000000" transform="matrix(1.00, 0.00, -0.00, -1.00, 380.6, 13.0)"> </text></g></g><g><clipPath id="clip-703"><path d="M -12.9 36.2 L 70.8 36.2 L 70.8 161.0 L -12.9 161.0 Z M -12.9 36.2 "></path></clipPath><g clip-path="url(#clip-703)"><text xml:space="preserve" font-family="HelveticaNeue" font-size="70.0" fill="#A6AAA8" transform="matrix(1.00, 0.00, -0.00, -1.00, 7.0, 74.0)">2</text></g></g></g></svg>