<?xml version="1.0" encoding="UTF-8" standalone="no"?><svg xmlns="http://www.w3.org/2000/svg" xmlns:xlink="http://www.w3.org/1999/xlink" clip-rule="evenodd" stroke-miterlimit="4.00" viewBox="0 0 1920 1080"><desc>SVG generated by Keynote</desc><defs></defs><g transform="matrix(1.00, 0.00, -0.00, -1.00, 0.0, 1080.0)"><path d="M 0.0 1080.0 L 1920.0 1080.0 L 1920.0 0.0 L 0.0 0.0 Z M 0.0 1080.0 " fill="#FEFFFF"></path><image xlink:href="6BE540F664EAD8FA6D5C7B41F78EDEB6.png" width="960.00" height="540.00" transform="matrix(2.00, 0.00, -0.00, -2.00, 0.0, 1080.0)"></image><text xml:space="preserve" font-family="HelveticaNeue" font-size="60.0" fill="#000000" transform="matrix(1.00, 0.00, -0.00, -1.00, 1199.0, 166.0)">O</text><text xml:space="preserve" font-family="HelveticaNeue" font-size="60.0" fill="#000000" transform="matrix(1.00, 0.00, -0.00, -1.00, 1244.6, 166.0)">n</text><text xml:space="preserve" font-family="HelveticaNeue" font-size="60.0" fill="#000000" transform="matrix(1.00, 0.00, -0.00, -1.00, 1278.0, 166.0)">l</text><text xml:space="preserve" font-family="HelveticaNeue" font-size="60.0" fill="#000000" transform="matrix(1.00, 0.00, -0.00, -1.00, 1291.3, 166.0)">y</text><text xml:space="preserve" font-family="HelveticaNeue" font-size="60.0" fill="#000000" transform="matrix(1.00, 0.00, -0.00, -1.00, 1321.3, 166.0)"> </text><text xml:space="preserve" font-family="HelveticaNeue" font-size="60.0" fill="#000000" transform="matrix(1.00, 0.00, -0.00, -1.00, 1338.0, 166.0)">T</text><text xml:space="preserve" font-family="HelveticaNeue" font-size="60.0" fill="#000000" transform="matrix(1.00, 0.00, -0.00, -1.00, 1372.4, 166.0)">h</text><text xml:space="preserve" font-family="HelveticaNeue" font-size="60.0" fill="#000000" transform="matrix(1.00, 0.00, -0.00, -1.00, 1405.8, 166.0)">e</text><text xml:space="preserve" font-family="HelveticaNeue" font-size="60.0" fill="#000000" transform="matrix(1.00, 0.00, -0.00, -1.00, 1438.0, 166.0)"> </text><text xml:space="preserve" font-family="HelveticaNeue" font-size="60.0" fill="#000000" transform="matrix(1.00, 0.00, -0.00, -1.00, 1454.7, 166.0)">O</text><text xml:space="preserve" font-family="HelveticaNeue" font-size="60.0" fill="#000000" transform="matrix(1.00, 0.00, -0.00, -1.00, 1500.3, 166.0)">n</text><text xml:space="preserve" font-family="HelveticaNeue" font-size="60.0" fill="#000000" transform="matrix(1.00, 0.00, -0.00, -1.00, 1533.6, 166.0)">e</text><text xml:space="preserve" font-family="HelveticaNeue" font-size="60.0" fill="#000000" transform="matrix(1.00, 0.00, -0.00, -1.00, 1565.8, 166.0)">s</text><text xml:space="preserve" font-family="HelveticaNeue" font-size="60.0" fill="#000000" transform="matrix(1.00, 0.00, -0.00, -1.00, 1595.8, 166.0)"> </text><text xml:space="preserve" font-family="HelveticaNeue" font-size="60.0" fill="#000000" transform="matrix(1.00, 0.00, -0.00, -1.00, 1612.5, 166.0)">Y</text><text xml:space="preserve" font-family="HelveticaNeue" font-size="60.0" fill="#000000" transform="matrix(1.00, 0.00, -0.00, -1.00, 1644.7, 166.0)">o</text><text xml:space="preserve" font-family="HelveticaNeue" font-size="60.0" fill="#000000" transform="matrix(1.00, 0.00, -0.00, -1.00, 1679.2, 166.0)">u</text><text xml:space="preserve" font-family="HelveticaNeue" font-size="60.0" fill="#000000" transform="matrix(1.00, 0.00, -0.00, -1.00, 1712.5, 166.0)"> </text><text xml:space="preserve" font-family="HelveticaNeue" font-size="60.0" fill="#000000" transform="matrix(1.00, 0.00, -0.00, -1.00, 1729.2, 166.0)">N</text><text xml:space="preserve" font-family="HelveticaNeue" font-size="60.0" fill="#000000" transform="matrix(1.00, 0.00, -0.00, -1.00, 1772.5, 166.0)">e</text><text xml:space="preserve" font-family="HelveticaNeue" font-size="60.0" fill="#000000" transform="matrix(1.00, 0.00, -0.00, -1.00, 1804.8, 166.0)">e</text><text xml:space="preserve" font-family="HelveticaNeue" font-size="60.0" fill="#000000" transform="matrix(1.00, 0.00, -0.00, -1.00, 1837.0, 166.0)">d</text><text xml:space="preserve" font-family="HelveticaNeue-Thin" font-size="40.0" fill="#000000" transform="matrix(1.00, 0.00, -0.00, -1.00, 1209.0, 86.0)">E</text><text xml:space="preserve" font-family="HelveticaNeue-Thin" font-size="40.0" fill="#000000" transform="matrix(1.00, 0.00, -0.00, -1.00, 1231.4, 86.0)">n</text><text xml:space="preserve" font-family="HelveticaNeue-Thin" font-size="40.0" fill="#000000" transform="matrix(1.00, 0.00, -0.00, -1.00, 1252.2, 86.0)">a</text><text xml:space="preserve" font-family="HelveticaNeue-Thin" font-size="40.0" fill="#000000" transform="matrix(1.00, 0.00, -0.00, -1.00, 1272.2, 86.0)">b</text><text xml:space="preserve" font-family="HelveticaNeue-Thin" font-size="40.0" fill="#000000" transform="matrix(1.00, 0.00, -0.00, -1.00, 1294.4, 86.0)">l</text><text xml:space="preserve" font-family="HelveticaNeue-Thin" font-size="40.0" fill="#000000" transform="matrix(1.00, 0.00, -0.00, -1.00, 1301.1, 86.0)">e</text><text xml:space="preserve" font-family="HelveticaNeue-Thin" font-size="40.0" fill="#000000" transform="matrix(1.00, 0.00, -0.00, -1.00, 1321.9, 86.0)"> </text><text xml:space="preserve" font-family="HelveticaNeue-Thin" font-size="40.0" fill="#000000" transform="matrix(1.00, 0.00, -0.00, -1.00, 1333.0, 86.0)">v</text><text xml:space="preserve" font-family="HelveticaNeue-Thin" font-size="40.0" fill="#000000" transform="matrix(1.00, 0.00, -0.00, -1.00, 1350.8, 86.0)">o</text><text xml:space="preserve" font-family="HelveticaNeue-Thin" font-size="40.0" fill="#000000" transform="matrix(1.00, 0.00, -0.00, -1.00, 1372.2, 86.0)">i</text><text xml:space="preserve" font-family="HelveticaNeue-Thin" font-size="40.0" fill="#000000" transform="matrix(1.00, 0.00, -0.00, -1.00, 1379.0, 86.0)">c</text><text xml:space="preserve" font-family="HelveticaNeue-Thin" font-size="40.0" fill="#000000" transform="matrix(1.00, 0.00, -0.00, -1.00, 1399.7, 86.0)">e</text><text xml:space="preserve" font-family="HelveticaNeue-Thin" font-size="40.0" fill="#000000" transform="matrix(1.00, 0.00, -0.00, -1.00, 1420.5, 86.0)"> </text><text xml:space="preserve" font-family="HelveticaNeue-Thin" font-size="40.0" fill="#000000" transform="matrix(1.00, 0.00, -0.00, -1.00, 1431.6, 86.0)">c</text><text xml:space="preserve" font-family="HelveticaNeue-Thin" font-size="40.0" fill="#000000" transform="matrix(1.00, 0.00, -0.00, -1.00, 1452.4, 86.0)">o</text><text xml:space="preserve" font-family="HelveticaNeue-Thin" font-size="40.0" fill="#000000" transform="matrix(1.00, 0.00, -0.00, -1.00, 1473.8, 86.0)">m</text><text xml:space="preserve" font-family="HelveticaNeue-Thin" font-size="40.0" fill="#000000" transform="matrix(1.00, 0.00, -0.00, -1.00, 1505.7, 86.0)">m</text><text xml:space="preserve" font-family="HelveticaNeue-Thin" font-size="40.0" fill="#000000" transform="matrix(1.00, 0.00, -0.00, -1.00, 1537.5, 86.0)">a</text><text xml:space="preserve" font-family="HelveticaNeue-Thin" font-size="40.0" fill="#000000" transform="matrix(1.00, 0.00, -0.00, -1.00, 1557.5, 86.0)">n</text><text xml:space="preserve" font-family="HelveticaNeue-Thin" font-size="40.0" fill="#000000" transform="matrix(1.00, 0.00, -0.00, -1.00, 1578.3, 86.0)">d</text><text xml:space="preserve" font-family="HelveticaNeue" font-size="100.0" fill="#A6AAA8" transform="matrix(1.00, 0.00, -0.00, -1.00, 1126.0, 130.0)">3</text><text xml:space="preserve" font-family="Helvetica-Light" font-size="24.0" fill="#000000" transform="matrix(1.00, 0.00, -0.00, -1.00, 946.0, 26.0)">3</text><text xml:space="preserve" font-family="Helvetica-Light" font-size="24.0" fill="#000000" transform="matrix(1.00, 0.00, -0.00, -1.00, 959.3, 26.0)">8</text></g></svg>