<?xml version="1.0" encoding="UTF-8" standalone="no"?><svg xmlns="http://www.w3.org/2000/svg" xmlns:xlink="http://www.w3.org/1999/xlink" clip-rule="evenodd" stroke-miterlimit="4.00" viewBox="0 0 1920 1080"><desc>SVG generated by Keynote</desc><defs></defs><g transform="matrix(1.00, 0.00, -0.00, -1.00, 0.0, 1080.0)"><path d="M 0.0 1080.0 L 1920.0 1080.0 L 1920.0 0.0 L 0.0 0.0 Z M 0.0 1080.0 " fill="#FEFFFF"></path><text xml:space="preserve" font-family="HelveticaNeue" font-size="60.0" fill="#000000" transform="matrix(1.00, 0.00, -0.00, -1.00, 106.0, 912.0)">I</text><text xml:space="preserve" font-family="HelveticaNeue" font-size="60.0" fill="#000000" transform="matrix(1.00, 0.00, -0.00, -1.00, 121.5, 912.0)">n</text><text xml:space="preserve" font-family="HelveticaNeue" font-size="60.0" fill="#000000" transform="matrix(1.00, 0.00, -0.00, -1.00, 154.9, 912.0)">t</text><text xml:space="preserve" font-family="HelveticaNeue" font-size="60.0" fill="#000000" transform="matrix(1.00, 0.00, -0.00, -1.00, 173.8, 912.0)">e</text><text xml:space="preserve" font-family="HelveticaNeue" font-size="60.0" fill="#000000" transform="matrix(1.00, 0.00, -0.00, -1.00, 206.0, 912.0)">r</text><text xml:space="preserve" font-family="HelveticaNeue" font-size="60.0" fill="#000000" transform="matrix(1.00, 0.00, -0.00, -1.00, 226.0, 912.0)">v</text><text xml:space="preserve" font-family="HelveticaNeue" font-size="60.0" fill="#000000" transform="matrix(1.00, 0.00, -0.00, -1.00, 256.0, 912.0)">i</text><text xml:space="preserve" font-family="HelveticaNeue" font-size="60.0" fill="#000000" transform="matrix(1.00, 0.00, -0.00, -1.00, 269.3, 912.0)">e</text><text xml:space="preserve" font-family="HelveticaNeue" font-size="60.0" fill="#000000" transform="matrix(1.00, 0.00, -0.00, -1.00, 301.5, 912.0)">w</text><text xml:space="preserve" font-family="HelveticaNeue" font-size="60.0" fill="#000000" transform="matrix(1.00, 0.00, -0.00, -1.00, 347.0, 912.0)">s</text><text xml:space="preserve" font-family="HelveticaNeue" font-size="60.0" fill="#000000" transform="matrix(1.00, 0.00, -0.00, -1.00, 377.0, 912.0)"> </text><text xml:space="preserve" font-family="HelveticaNeue" font-size="60.0" fill="#000000" transform="matrix(1.00, 0.00, -0.00, -1.00, 393.7, 912.0)">C</text><text xml:space="preserve" font-family="HelveticaNeue" font-size="60.0" fill="#000000" transform="matrix(1.00, 0.00, -0.00, -1.00, 437.0, 912.0)">o</text><text xml:space="preserve" font-family="HelveticaNeue" font-size="60.0" fill="#000000" transform="matrix(1.00, 0.00, -0.00, -1.00, 471.5, 912.0)">n</text><text xml:space="preserve" font-family="HelveticaNeue" font-size="60.0" fill="#000000" transform="matrix(1.00, 0.00, -0.00, -1.00, 504.8, 912.0)">d</text><text xml:space="preserve" font-family="HelveticaNeue" font-size="60.0" fill="#000000" transform="matrix(1.00, 0.00, -0.00, -1.00, 540.4, 912.0)">u</text><text xml:space="preserve" font-family="HelveticaNeue" font-size="60.0" fill="#000000" transform="matrix(1.00, 0.00, -0.00, -1.00, 573.8, 912.0)">c</text><text xml:space="preserve" font-family="HelveticaNeue" font-size="60.0" fill="#000000" transform="matrix(1.00, 0.00, -0.00, -1.00, 606.0, 912.0)">t</text><text xml:space="preserve" font-family="HelveticaNeue" font-size="60.0" fill="#000000" transform="matrix(1.00, 0.00, -0.00, -1.00, 624.9, 912.0)">e</text><text xml:space="preserve" font-family="HelveticaNeue" font-size="60.0" fill="#000000" transform="matrix(1.00, 0.00, -0.00, -1.00, 657.1, 912.0)">d</text><text xml:space="preserve" font-family="HelveticaNeue" font-size="40.0" fill="#000000" transform="matrix(1.00, 0.00, -0.00, -1.00, 135.0, 767.0)">C</text><text xml:space="preserve" font-family="HelveticaNeue" font-size="40.0" fill="#000000" transform="matrix(1.00, 0.00, -0.00, -1.00, 163.9, 767.0)">o</text><text xml:space="preserve" font-family="HelveticaNeue" font-size="40.0" fill="#000000" transform="matrix(1.00, 0.00, -0.00, -1.00, 186.8, 767.0)">n</text><text xml:space="preserve" font-family="HelveticaNeue" font-size="40.0" fill="#000000" transform="matrix(1.00, 0.00, -0.00, -1.00, 209.1, 767.0)">s</text><text xml:space="preserve" font-family="HelveticaNeue" font-size="40.0" fill="#000000" transform="matrix(1.00, 0.00, -0.00, -1.00, 229.1, 767.0)">u</text><text xml:space="preserve" font-family="HelveticaNeue" font-size="40.0" fill="#000000" transform="matrix(1.00, 0.00, -0.00, -1.00, 251.3, 767.0)">m</text><text xml:space="preserve" font-family="HelveticaNeue" font-size="40.0" fill="#000000" transform="matrix(1.00, 0.00, -0.00, -1.00, 285.4, 767.0)">e</text><text xml:space="preserve" font-family="HelveticaNeue" font-size="40.0" fill="#000000" transform="matrix(1.00, 0.00, -0.00, -1.00, 306.9, 767.0)">r</text><text xml:space="preserve" font-family="HelveticaNeue" font-size="40.0" fill="#000000" transform="matrix(1.00, 0.00, -0.00, -1.00, 320.2, 767.0)"> </text><text xml:space="preserve" font-family="HelveticaNeue" font-size="40.0" fill="#000000" transform="matrix(1.00, 0.00, -0.00, -1.00, 331.4, 767.0)">R</text><text xml:space="preserve" font-family="HelveticaNeue" font-size="40.0" fill="#000000" transform="matrix(1.00, 0.00, -0.00, -1.00, 358.8, 767.0)">e</text><text xml:space="preserve" font-family="HelveticaNeue" font-size="40.0" fill="#000000" transform="matrix(1.00, 0.00, -0.00, -1.00, 380.2, 767.0)">s</text><text xml:space="preserve" font-family="HelveticaNeue" font-size="40.0" fill="#000000" transform="matrix(1.00, 0.00, -0.00, -1.00, 400.2, 767.0)">e</text><text xml:space="preserve" font-family="HelveticaNeue" font-size="40.0" fill="#000000" transform="matrix(1.00, 0.00, -0.00, -1.00, 421.7, 767.0)">a</text><text xml:space="preserve" font-family="HelveticaNeue" font-size="40.0" fill="#000000" transform="matrix(1.00, 0.00, -0.00, -1.00, 443.2, 767.0)">r</text><text xml:space="preserve" font-family="HelveticaNeue" font-size="40.0" fill="#000000" transform="matrix(1.00, 0.00, -0.00, -1.00, 455.8, 767.0)">c</text><text xml:space="preserve" font-family="HelveticaNeue" font-size="40.0" fill="#000000" transform="matrix(1.00, 0.00, -0.00, -1.00, 477.3, 767.0)">h</text><text xml:space="preserve" font-family="HelveticaNeue" font-size="40.0" fill="#000000" transform="matrix(1.00, 0.00, -0.00, -1.00, 600.0, 767.0)">C</text><text xml:space="preserve" font-family="HelveticaNeue" font-size="40.0" fill="#000000" transform="matrix(1.00, 0.00, -0.00, -1.00, 628.9, 767.0)">o</text><text xml:space="preserve" font-family="HelveticaNeue" font-size="40.0" fill="#000000" transform="matrix(1.00, 0.00, -0.00, -1.00, 651.8, 767.0)">n</text><text xml:space="preserve" font-family="HelveticaNeue" font-size="40.0" fill="#000000" transform="matrix(1.00, 0.00, -0.00, -1.00, 674.1, 767.0)">c</text><text xml:space="preserve" font-family="HelveticaNeue" font-size="40.0" fill="#000000" transform="matrix(1.00, 0.00, -0.00, -1.00, 695.6, 767.0)">e</text><text xml:space="preserve" font-family="HelveticaNeue" font-size="40.0" fill="#000000" transform="matrix(1.00, 0.00, -0.00, -1.00, 717.0, 767.0)">p</text><text xml:space="preserve" font-family="HelveticaNeue" font-size="40.0" fill="#000000" transform="matrix(1.00, 0.00, -0.00, -1.00, 740.8, 767.0)">t</text><text xml:space="preserve" font-family="HelveticaNeue" font-size="40.0" fill="#000000" transform="matrix(1.00, 0.00, -0.00, -1.00, 753.4, 767.0)"> </text><text xml:space="preserve" font-family="HelveticaNeue" font-size="40.0" fill="#000000" transform="matrix(1.00, 0.00, -0.00, -1.00, 764.5, 767.0)">T</text><text xml:space="preserve" font-family="HelveticaNeue" font-size="40.0" fill="#000000" transform="matrix(1.00, 0.00, -0.00, -1.00, 783.0, 767.0)">e</text><text xml:space="preserve" font-family="HelveticaNeue" font-size="40.0" fill="#000000" transform="matrix(1.00, 0.00, -0.00, -1.00, 804.5, 767.0)">s</text><text xml:space="preserve" font-family="HelveticaNeue" font-size="40.0" fill="#000000" transform="matrix(1.00, 0.00, -0.00, -1.00, 824.5, 767.0)">t</text><text xml:space="preserve" font-family="HelveticaNeue" font-size="40.0" fill="#000000" transform="matrix(1.00, 0.00, -0.00, -1.00, 837.1, 767.0)">i</text><text xml:space="preserve" font-family="HelveticaNeue" font-size="40.0" fill="#000000" transform="matrix(1.00, 0.00, -0.00, -1.00, 846.0, 767.0)">n</text><text xml:space="preserve" font-family="HelveticaNeue" font-size="40.0" fill="#000000" transform="matrix(1.00, 0.00, -0.00, -1.00, 868.2, 767.0)">g</text><text xml:space="preserve" font-family="HelveticaNeue" font-size="40.0" fill="#000000" transform="matrix(1.00, 0.00, -0.00, -1.00, 1029.0, 767.0)">U</text><text xml:space="preserve" font-family="HelveticaNeue" font-size="40.0" fill="#000000" transform="matrix(1.00, 0.00, -0.00, -1.00, 1057.9, 767.0)">s</text><text xml:space="preserve" font-family="HelveticaNeue" font-size="40.0" fill="#000000" transform="matrix(1.00, 0.00, -0.00, -1.00, 1077.9, 767.0)">a</text><text xml:space="preserve" font-family="HelveticaNeue" font-size="40.0" fill="#000000" transform="matrix(1.00, 0.00, -0.00, -1.00, 1099.4, 767.0)">b</text><text xml:space="preserve" font-family="HelveticaNeue" font-size="40.0" fill="#000000" transform="matrix(1.00, 0.00, -0.00, -1.00, 1123.1, 767.0)">i</text><text xml:space="preserve" font-family="HelveticaNeue" font-size="40.0" fill="#000000" transform="matrix(1.00, 0.00, -0.00, -1.00, 1132.0, 767.0)">l</text><text xml:space="preserve" font-family="HelveticaNeue" font-size="40.0" fill="#000000" transform="matrix(1.00, 0.00, -0.00, -1.00, 1140.8, 767.0)">i</text><text xml:space="preserve" font-family="HelveticaNeue" font-size="40.0" fill="#000000" transform="matrix(1.00, 0.00, -0.00, -1.00, 1149.7, 767.0)">t</text><text xml:space="preserve" font-family="HelveticaNeue" font-size="40.0" fill="#000000" transform="matrix(1.00, 0.00, -0.00, -1.00, 1162.3, 767.0)">y</text><text xml:space="preserve" font-family="HelveticaNeue" font-size="40.0" fill="#000000" transform="matrix(1.00, 0.00, -0.00, -1.00, 1182.3, 767.0)"> </text><text xml:space="preserve" font-family="HelveticaNeue" font-size="40.0" fill="#000000" transform="matrix(1.00, 0.00, -0.00, -1.00, 1193.4, 767.0)">T</text><text xml:space="preserve" font-family="HelveticaNeue" font-size="40.0" fill="#000000" transform="matrix(1.00, 0.00, -0.00, -1.00, 1212.0, 767.0)">e</text><text xml:space="preserve" font-family="HelveticaNeue" font-size="40.0" fill="#000000" transform="matrix(1.00, 0.00, -0.00, -1.00, 1233.4, 767.0)">s</text><text xml:space="preserve" font-family="HelveticaNeue" font-size="40.0" fill="#000000" transform="matrix(1.00, 0.00, -0.00, -1.00, 1253.4, 767.0)">t</text><text xml:space="preserve" font-family="HelveticaNeue" font-size="40.0" fill="#000000" transform="matrix(1.00, 0.00, -0.00, -1.00, 1266.0, 767.0)">i</text><text xml:space="preserve" font-family="HelveticaNeue" font-size="40.0" fill="#000000" transform="matrix(1.00, 0.00, -0.00, -1.00, 1274.9, 767.0)">n</text><text xml:space="preserve" font-family="HelveticaNeue" font-size="40.0" fill="#000000" transform="matrix(1.00, 0.00, -0.00, -1.00, 1297.2, 767.0)">g</text><g><clipPath id="clip-1556"><path d="M 232.0 689.0 L 272.0 689.0 L 272.0 597.0 L 232.0 597.0 Z M 232.1 689.4 "></path></clipPath><g clip-path="url(#clip-1556)"><g><clipPath id="clip-1557"><path d="M 232.1 597.4 L 271.6 597.4 L 271.6 689.4 L 232.1 689.4 Z M 232.1 597.4 "></path></clipPath><g clip-path="url(#clip-1557)"><image xlink:href="../../06B3AA21-D882-422D-839A-D1F582B7C583/assets/EF165E39D9811DD4FD9EE61CC5D7174B.png" width="39.00" height="92.00" transform="matrix(1.03, 0.00, -0.00, -1.00, 232.0, 689.0)"></image></g></g></g></g><g><clipPath id="clip-1558"><path d="M 274.0 689.0 L 314.0 689.0 L 314.0 597.0 L 274.0 597.0 Z M 274.0 689.4 "></path></clipPath><g clip-path="url(#clip-1558)"><g><clipPath id="clip-1559"><path d="M 274.0 597.4 L 313.6 597.4 L 313.6 689.4 L 274.0 689.4 Z M 274.0 597.4 "></path></clipPath><g clip-path="url(#clip-1559)"><image xlink:href="../../06B3AA21-D882-422D-839A-D1F582B7C583/assets/EF165E39D9811DD4FD9EE61CC5D7174B.png" width="39.00" height="92.00" transform="matrix(1.03, 0.00, -0.00, -1.00, 274.0, 689.0)"></image></g></g></g></g><g><clipPath id="clip-1560"><path d="M 316.0 597.4 L 355.5 597.4 L 355.5 689.4 L 316.0 689.4 Z M 316.0 597.4 "></path></clipPath><g clip-path="url(#clip-1560)"><image xlink:href="../../06B3AA21-D882-422D-839A-D1F582B7C583/assets/4103A80BF45D36625AD0EC4FB3977A07.png" width="39.00" height="92.00" transform="matrix(1.03, 0.00, -0.00, -1.00, 316.0, 689.0)"></image></g></g><g><clipPath id="clip-1561"><path d="M 358.0 597.4 L 397.5 597.4 L 397.5 689.4 L 358.0 689.4 Z M 358.0 597.4 "></path></clipPath><g clip-path="url(#clip-1561)"><image xlink:href="../../06B3AA21-D882-422D-839A-D1F582B7C583/assets/4103A80BF45D36625AD0EC4FB3977A07.png" width="39.00" height="92.00" transform="matrix(1.00, 0.00, -0.00, -1.00, 358.0, 689.0)"></image></g></g><g><clipPath id="clip-1562"><path d="M 832.0 689.0 L 872.0 689.0 L 872.0 597.0 L 832.0 597.0 Z M 832.2 689.4 "></path></clipPath><g clip-path="url(#clip-1562)"><g><clipPath id="clip-1563"><path d="M 832.2 597.4 L 871.7 597.4 L 871.7 689.4 L 832.2 689.4 Z M 832.2 597.4 "></path></clipPath><g clip-path="url(#clip-1563)"><image xlink:href="../../06B3AA21-D882-422D-839A-D1F582B7C583/assets/EF165E39D9811DD4FD9EE61CC5D7174B.png" width="39.00" height="92.00" transform="matrix(1.03, 0.00, -0.00, -1.00, 832.0, 689.0)"></image></g></g></g></g><g><clipPath id="clip-1564"><path d="M 664.0 689.0 L 704.0 689.0 L 704.0 597.0 L 664.0 597.0 Z M 664.3 689.4 "></path></clipPath><g clip-path="url(#clip-1564)"><g><clipPath id="clip-1565"><path d="M 664.3 597.4 L 703.8 597.4 L 703.8 689.4 L 664.3 689.4 Z M 664.3 597.4 "></path></clipPath><g clip-path="url(#clip-1565)"><image xlink:href="../../06B3AA21-D882-422D-839A-D1F582B7C583/assets/EF165E39D9811DD4FD9EE61CC5D7174B.png" width="39.00" height="92.00" transform="matrix(1.03, 0.00, -0.00, -1.00, 664.0, 689.0)"></image></g></g></g></g><g><clipPath id="clip-1566"><path d="M 706.0 689.0 L 746.0 689.0 L 746.0 597.0 L 706.0 597.0 Z M 706.3 689.4 "></path></clipPath><g clip-path="url(#clip-1566)"><g><clipPath id="clip-1567"><path d="M 706.3 597.4 L 745.8 597.4 L 745.8 689.4 L 706.3 689.4 Z M 706.3 597.4 "></path></clipPath><g clip-path="url(#clip-1567)"><image xlink:href="../../06B3AA21-D882-422D-839A-D1F582B7C583/assets/EF165E39D9811DD4FD9EE61CC5D7174B.png" width="39.00" height="92.00" transform="matrix(1.03, 0.00, -0.00, -1.00, 706.0, 689.0)"></image></g></g></g></g><g><clipPath id="clip-1568"><path d="M 748.0 689.0 L 788.0 689.0 L 788.0 597.0 L 748.0 597.0 Z M 748.2 689.4 "></path></clipPath><g clip-path="url(#clip-1568)"><g><clipPath id="clip-1569"><path d="M 748.2 597.4 L 787.8 597.4 L 787.8 689.4 L 748.2 689.4 Z M 748.2 597.4 "></path></clipPath><g clip-path="url(#clip-1569)"><image xlink:href="../../06B3AA21-D882-422D-839A-D1F582B7C583/assets/EF165E39D9811DD4FD9EE61CC5D7174B.png" width="39.00" height="92.00" transform="matrix(1.03, 0.00, -0.00, -1.00, 748.0, 689.0)"></image></g></g></g></g><g><clipPath id="clip-1570"><path d="M 790.0 689.0 L 830.0 689.0 L 830.0 597.0 L 790.0 597.0 Z M 790.2 689.4 "></path></clipPath><g clip-path="url(#clip-1570)"><g><clipPath id="clip-1571"><path d="M 790.2 597.4 L 829.7 597.4 L 829.7 689.4 L 790.2 689.4 Z M 790.2 597.4 "></path></clipPath><g clip-path="url(#clip-1571)"><image xlink:href="../../06B3AA21-D882-422D-839A-D1F582B7C583/assets/EF165E39D9811DD4FD9EE61CC5D7174B.png" width="39.00" height="92.00" transform="matrix(1.03, 0.00, -0.00, -1.00, 790.0, 689.0)"></image></g></g></g></g><g><clipPath id="clip-1572"><path d="M 1236.0 689.0 L 1276.0 689.0 L 1276.0 597.0 L 1236.0 597.0 Z M 1236.4 689.4 "></path></clipPath><g clip-path="url(#clip-1572)"><g><clipPath id="clip-1573"><path d="M 1236.4 597.4 L 1275.9 597.4 L 1275.9 689.4 L 1236.4 689.4 Z M 1236.4 597.4 "></path></clipPath><g clip-path="url(#clip-1573)"><image xlink:href="../../06B3AA21-D882-422D-839A-D1F582B7C583/assets/EF165E39D9811DD4FD9EE61CC5D7174B.png" width="39.00" height="92.00" transform="matrix(1.03, 0.00, -0.00, -1.00, 1236.0, 689.0)"></image></g></g></g></g><g><clipPath id="clip-1574"><path d="M 1069.0 689.0 L 1108.0 689.0 L 1108.0 597.0 L 1069.0 597.0 Z M 1068.5 689.4 "></path></clipPath><g clip-path="url(#clip-1574)"><g><clipPath id="clip-1575"><path d="M 1068.5 597.4 L 1108.1 597.4 L 1108.1 689.4 L 1068.5 689.4 Z M 1068.5 597.4 "></path></clipPath><g clip-path="url(#clip-1575)"><image xlink:href="../../06B3AA21-D882-422D-839A-D1F582B7C583/assets/EF165E39D9811DD4FD9EE61CC5D7174B.png" width="39.00" height="92.00" transform="matrix(1.00, 0.00, -0.00, -1.00, 1069.0, 689.0)"></image></g></g></g></g><g><clipPath id="clip-1576"><path d="M 1111.0 689.0 L 1150.0 689.0 L 1150.0 597.0 L 1111.0 597.0 Z M 1110.5 689.4 "></path></clipPath><g clip-path="url(#clip-1576)"><g><clipPath id="clip-1577"><path d="M 1110.5 597.4 L 1150.0 597.4 L 1150.0 689.4 L 1110.5 689.4 Z M 1110.5 597.4 "></path></clipPath><g clip-path="url(#clip-1577)"><image xlink:href="../../06B3AA21-D882-422D-839A-D1F582B7C583/assets/EF165E39D9811DD4FD9EE61CC5D7174B.png" width="39.00" height="92.00" transform="matrix(1.00, 0.00, -0.00, -1.00, 1111.0, 689.0)"></image></g></g></g></g><g><clipPath id="clip-1578"><path d="M 1152.0 689.0 L 1192.0 689.0 L 1192.0 597.0 L 1152.0 597.0 Z M 1152.5 689.4 "></path></clipPath><g clip-path="url(#clip-1578)"><g><clipPath id="clip-1579"><path d="M 1152.5 597.4 L 1192.0 597.4 L 1192.0 689.4 L 1152.5 689.4 Z M 1152.5 597.4 "></path></clipPath><g clip-path="url(#clip-1579)"><image xlink:href="../../06B3AA21-D882-422D-839A-D1F582B7C583/assets/EF165E39D9811DD4FD9EE61CC5D7174B.png" width="39.00" height="92.00" transform="matrix(1.03, 0.00, -0.00, -1.00, 1152.0, 689.0)"></image></g></g></g></g><g><clipPath id="clip-1580"><path d="M 1194.0 689.0 L 1234.0 689.0 L 1234.0 597.0 L 1194.0 597.0 Z M 1194.4 689.4 "></path></clipPath><g clip-path="url(#clip-1580)"><g><clipPath id="clip-1581"><path d="M 1194.4 597.4 L 1234.0 597.4 L 1234.0 689.4 L 1194.4 689.4 Z M 1194.4 597.4 "></path></clipPath><g clip-path="url(#clip-1581)"><image xlink:href="../../06B3AA21-D882-422D-839A-D1F582B7C583/assets/EF165E39D9811DD4FD9EE61CC5D7174B.png" width="39.00" height="92.00" transform="matrix(1.03, 0.00, -0.00, -1.00, 1194.0, 689.0)"></image></g></g></g></g><g><clipPath id="clip-1582"><path d="M 1236.4 469.0 L 1275.9 469.0 L 1275.9 560.9 L 1236.4 560.9 Z M 1236.4 469.0 "></path></clipPath><g clip-path="url(#clip-1582)"><image xlink:href="../../06B3AA21-D882-422D-839A-D1F582B7C583/assets/4103A80BF45D36625AD0EC4FB3977A07.png" width="39.00" height="92.00" transform="matrix(1.03, 0.00, -0.00, -1.00, 1236.0, 561.0)"></image></g></g><g><clipPath id="clip-1583"><path d="M 1069.0 561.0 L 1108.0 561.0 L 1108.0 469.0 L 1069.0 469.0 Z M 1068.5 560.9 "></path></clipPath><g clip-path="url(#clip-1583)"><g><clipPath id="clip-1584"><path d="M 1068.5 469.0 L 1108.1 469.0 L 1108.1 560.9 L 1068.5 560.9 Z M 1068.5 469.0 "></path></clipPath><g clip-path="url(#clip-1584)"><image xlink:href="../../06B3AA21-D882-422D-839A-D1F582B7C583/assets/EF165E39D9811DD4FD9EE61CC5D7174B.png" width="39.00" height="92.00" transform="matrix(1.00, 0.00, -0.00, -1.00, 1069.0, 561.0)"></image></g></g></g></g><g><clipPath id="clip-1585"><path d="M 1111.0 561.0 L 1150.0 561.0 L 1150.0 469.0 L 1111.0 469.0 Z M 1110.5 560.9 "></path></clipPath><g clip-path="url(#clip-1585)"><g><clipPath id="clip-1586"><path d="M 1110.5 469.0 L 1150.0 469.0 L 1150.0 560.9 L 1110.5 560.9 Z M 1110.5 469.0 "></path></clipPath><g clip-path="url(#clip-1586)"><image xlink:href="../../06B3AA21-D882-422D-839A-D1F582B7C583/assets/EF165E39D9811DD4FD9EE61CC5D7174B.png" width="39.00" height="92.00" transform="matrix(1.00, 0.00, -0.00, -1.00, 1111.0, 561.0)"></image></g></g></g></g><g><clipPath id="clip-1587"><path d="M 1152.0 561.0 L 1192.0 561.0 L 1192.0 469.0 L 1152.0 469.0 Z M 1152.5 560.9 "></path></clipPath><g clip-path="url(#clip-1587)"><g><clipPath id="clip-1588"><path d="M 1152.5 469.0 L 1192.0 469.0 L 1192.0 560.9 L 1152.5 560.9 Z M 1152.5 469.0 "></path></clipPath><g clip-path="url(#clip-1588)"><image xlink:href="../../06B3AA21-D882-422D-839A-D1F582B7C583/assets/EF165E39D9811DD4FD9EE61CC5D7174B.png" width="39.00" height="92.00" transform="matrix(1.03, 0.00, -0.00, -1.00, 1152.0, 561.0)"></image></g></g></g></g><g><clipPath id="clip-1589"><path d="M 1194.0 561.0 L 1234.0 561.0 L 1234.0 469.0 L 1194.0 469.0 Z M 1194.4 560.9 "></path></clipPath><g clip-path="url(#clip-1589)"><g><clipPath id="clip-1590"><path d="M 1194.4 469.0 L 1234.0 469.0 L 1234.0 560.9 L 1194.4 560.9 Z M 1194.4 469.0 "></path></clipPath><g clip-path="url(#clip-1590)"><image xlink:href="../../06B3AA21-D882-422D-839A-D1F582B7C583/assets/EF165E39D9811DD4FD9EE61CC5D7174B.png" width="39.00" height="92.00" transform="matrix(1.03, 0.00, -0.00, -1.00, 1194.0, 561.0)"></image></g></g></g></g><g><clipPath id="clip-1591"><path d="M 1667.0 680.0 L 1707.0 680.0 L 1707.0 588.0 L 1667.0 588.0 Z M 1667.3 679.6 "></path></clipPath><g clip-path="url(#clip-1591)"><image xlink:href="../../06B3AA21-D882-422D-839A-D1F582B7C583/assets/EF165E39D9811DD4FD9EE61CC5D7174B.png" width="39.00" height="92.00" transform="matrix(1.03, 0.00, -0.00, -1.00, 1667.0, 680.0)"></image></g></g><g><clipPath id="clip-1592"><path d="M 1499.0 680.0 L 1539.0 680.0 L 1539.0 588.0 L 1499.0 588.0 Z M 1499.4 679.6 "></path></clipPath><g clip-path="url(#clip-1592)"><image xlink:href="../../06B3AA21-D882-422D-839A-D1F582B7C583/assets/EF165E39D9811DD4FD9EE61CC5D7174B.png" width="39.00" height="92.00" transform="matrix(1.03, 0.00, -0.00, -1.00, 1499.0, 680.0)"></image></g></g><g><clipPath id="clip-1593"><path d="M 1541.0 680.0 L 1581.0 680.0 L 1581.0 588.0 L 1541.0 588.0 Z M 1541.4 679.6 "></path></clipPath><g clip-path="url(#clip-1593)"><image xlink:href="../../06B3AA21-D882-422D-839A-D1F582B7C583/assets/EF165E39D9811DD4FD9EE61CC5D7174B.png" width="39.00" height="92.00" transform="matrix(1.03, 0.00, -0.00, -1.00, 1541.0, 680.0)"></image></g></g><g><clipPath id="clip-1594"><path d="M 1583.0 680.0 L 1623.0 680.0 L 1623.0 588.0 L 1583.0 588.0 Z M 1583.3 679.6 "></path></clipPath><g clip-path="url(#clip-1594)"><image xlink:href="../../06B3AA21-D882-422D-839A-D1F582B7C583/assets/EF165E39D9811DD4FD9EE61CC5D7174B.png" width="39.00" height="92.00" transform="matrix(1.03, 0.00, -0.00, -1.00, 1583.0, 680.0)"></image></g></g><g><clipPath id="clip-1595"><path d="M 1625.0 680.0 L 1665.0 680.0 L 1665.0 588.0 L 1625.0 588.0 Z M 1625.3 679.6 "></path></clipPath><g clip-path="url(#clip-1595)"><image xlink:href="../../06B3AA21-D882-422D-839A-D1F582B7C583/assets/EF165E39D9811DD4FD9EE61CC5D7174B.png" width="39.00" height="92.00" transform="matrix(1.03, 0.00, -0.00, -1.00, 1625.0, 680.0)"></image></g></g><g><clipPath id="clip-1596"><path d="M 1667.0 551.0 L 1707.0 551.0 L 1707.0 459.0 L 1667.0 459.0 Z M 1667.3 551.1 "></path></clipPath><g clip-path="url(#clip-1596)"><image xlink:href="../../06B3AA21-D882-422D-839A-D1F582B7C583/assets/EF165E39D9811DD4FD9EE61CC5D7174B.png" width="39.00" height="92.00" transform="matrix(1.03, 0.00, -0.00, -1.00, 1667.0, 551.0)"></image></g></g><g><clipPath id="clip-1597"><path d="M 1499.0 551.0 L 1539.0 551.0 L 1539.0 459.0 L 1499.0 459.0 Z M 1499.4 551.1 "></path></clipPath><g clip-path="url(#clip-1597)"><image xlink:href="../../06B3AA21-D882-422D-839A-D1F582B7C583/assets/EF165E39D9811DD4FD9EE61CC5D7174B.png" width="39.00" height="92.00" transform="matrix(1.03, 0.00, -0.00, -1.00, 1499.0, 551.0)"></image></g></g><g><clipPath id="clip-1598"><path d="M 1541.0 551.0 L 1581.0 551.0 L 1581.0 459.0 L 1541.0 459.0 Z M 1541.4 551.1 "></path></clipPath><g clip-path="url(#clip-1598)"><image xlink:href="../../06B3AA21-D882-422D-839A-D1F582B7C583/assets/EF165E39D9811DD4FD9EE61CC5D7174B.png" width="39.00" height="92.00" transform="matrix(1.03, 0.00, -0.00, -1.00, 1541.0, 551.0)"></image></g></g><g><clipPath id="clip-1599"><path d="M 1583.0 551.0 L 1623.0 551.0 L 1623.0 459.0 L 1583.0 459.0 Z M 1583.3 551.1 "></path></clipPath><g clip-path="url(#clip-1599)"><image xlink:href="../../06B3AA21-D882-422D-839A-D1F582B7C583/assets/EF165E39D9811DD4FD9EE61CC5D7174B.png" width="39.00" height="92.00" transform="matrix(1.03, 0.00, -0.00, -1.00, 1583.0, 551.0)"></image></g></g><g><clipPath id="clip-1600"><path d="M 1625.0 551.0 L 1665.0 551.0 L 1665.0 459.0 L 1625.0 459.0 Z M 1625.3 551.1 "></path></clipPath><g clip-path="url(#clip-1600)"><image xlink:href="../../06B3AA21-D882-422D-839A-D1F582B7C583/assets/EF165E39D9811DD4FD9EE61CC5D7174B.png" width="39.00" height="92.00" transform="matrix(1.03, 0.00, -0.00, -1.00, 1625.0, 551.0)"></image></g></g><text xml:space="preserve" font-family="HelveticaNeue" font-size="40.0" fill="#000000" transform="matrix(1.00, 0.00, -0.00, -1.00, 1561.0, 763.0)">T</text><text xml:space="preserve" font-family="HelveticaNeue" font-size="40.0" fill="#000000" transform="matrix(1.00, 0.00, -0.00, -1.00, 1579.5, 763.0)">o</text><text xml:space="preserve" font-family="HelveticaNeue" font-size="40.0" fill="#000000" transform="matrix(1.00, 0.00, -0.00, -1.00, 1602.5, 763.0)">t</text><text xml:space="preserve" font-family="HelveticaNeue" font-size="40.0" fill="#000000" transform="matrix(1.00, 0.00, -0.00, -1.00, 1615.1, 763.0)">a</text><text xml:space="preserve" font-family="HelveticaNeue" font-size="40.0" fill="#000000" transform="matrix(1.00, 0.00, -0.00, -1.00, 1636.6, 763.0)">l</text><g><clipPath id="clip-1601"><path d="M 1667.0 423.0 L 1707.0 423.0 L 1707.0 331.0 L 1667.0 331.0 Z M 1667.3 422.6 "></path></clipPath><g clip-path="url(#clip-1601)"><image xlink:href="../../06B3AA21-D882-422D-839A-D1F582B7C583/assets/EF165E39D9811DD4FD9EE61CC5D7174B.png" width="39.00" height="92.00" transform="matrix(1.03, 0.00, -0.00, -1.00, 1667.0, 423.0)"></image></g></g><g><clipPath id="clip-1602"><path d="M 1499.0 423.0 L 1539.0 423.0 L 1539.0 331.0 L 1499.0 331.0 Z M 1499.4 422.6 "></path></clipPath><g clip-path="url(#clip-1602)"><image xlink:href="../../06B3AA21-D882-422D-839A-D1F582B7C583/assets/EF165E39D9811DD4FD9EE61CC5D7174B.png" width="39.00" height="92.00" transform="matrix(1.03, 0.00, -0.00, -1.00, 1499.0, 423.0)"></image></g></g><g><clipPath id="clip-1603"><path d="M 1541.0 423.0 L 1581.0 423.0 L 1581.0 331.0 L 1541.0 331.0 Z M 1541.4 422.6 "></path></clipPath><g clip-path="url(#clip-1603)"><image xlink:href="../../06B3AA21-D882-422D-839A-D1F582B7C583/assets/EF165E39D9811DD4FD9EE61CC5D7174B.png" width="39.00" height="92.00" transform="matrix(1.03, 0.00, -0.00, -1.00, 1541.0, 423.0)"></image></g></g><g><clipPath id="clip-1604"><path d="M 1583.0 423.0 L 1623.0 423.0 L 1623.0 331.0 L 1583.0 331.0 Z M 1583.3 422.6 "></path></clipPath><g clip-path="url(#clip-1604)"><image xlink:href="../../06B3AA21-D882-422D-839A-D1F582B7C583/assets/EF165E39D9811DD4FD9EE61CC5D7174B.png" width="39.00" height="92.00" transform="matrix(1.03, 0.00, -0.00, -1.00, 1583.0, 423.0)"></image></g></g><g><clipPath id="clip-1605"><path d="M 1625.0 423.0 L 1665.0 423.0 L 1665.0 331.0 L 1625.0 331.0 Z M 1625.3 422.6 "></path></clipPath><g clip-path="url(#clip-1605)"><image xlink:href="../../06B3AA21-D882-422D-839A-D1F582B7C583/assets/EF165E39D9811DD4FD9EE61CC5D7174B.png" width="39.00" height="92.00" transform="matrix(1.03, 0.00, -0.00, -1.00, 1625.0, 423.0)"></image></g></g><g><clipPath id="clip-1606"><path d="M 1499.0 294.0 L 1539.0 294.0 L 1539.0 202.0 L 1499.0 202.0 Z M 1499.4 294.2 "></path></clipPath><g clip-path="url(#clip-1606)"><image xlink:href="../../06B3AA21-D882-422D-839A-D1F582B7C583/assets/EF165E39D9811DD4FD9EE61CC5D7174B.png" width="39.00" height="92.00" transform="matrix(1.03, 0.00, -0.00, -1.00, 1499.0, 294.0)"></image></g></g><g><clipPath id="clip-1607"><path d="M 1541.0 294.0 L 1581.0 294.0 L 1581.0 202.0 L 1541.0 202.0 Z M 1541.4 294.2 "></path></clipPath><g clip-path="url(#clip-1607)"><image xlink:href="../../06B3AA21-D882-422D-839A-D1F582B7C583/assets/4103A80BF45D36625AD0EC4FB3977A07.png" width="39.00" height="92.00" transform="matrix(1.03, 0.00, -0.00, -1.00, 1541.0, 294.0)"></image></g></g><g><clipPath id="clip-1608"><path d="M 1583.0 294.0 L 1623.0 294.0 L 1623.0 202.0 L 1583.0 202.0 Z M 1583.3 294.2 "></path></clipPath><g clip-path="url(#clip-1608)"><image xlink:href="../../06B3AA21-D882-422D-839A-D1F582B7C583/assets/4103A80BF45D36625AD0EC4FB3977A07.png" width="39.00" height="92.00" transform="matrix(1.03, 0.00, -0.00, -1.00, 1583.0, 294.0)"></image></g></g><g><clipPath id="clip-1609"><path d="M 1625.0 294.0 L 1665.0 294.0 L 1665.0 202.0 L 1625.0 202.0 Z M 1625.3 294.2 "></path></clipPath><g clip-path="url(#clip-1609)"><image xlink:href="../../06B3AA21-D882-422D-839A-D1F582B7C583/assets/4103A80BF45D36625AD0EC4FB3977A07.png" width="39.00" height="92.00" transform="matrix(1.03, 0.00, -0.00, -1.00, 1625.0, 294.0)"></image></g></g><g><clipPath id="clip-1610"><path d="M 24.8 23.9 L 388.6 23.9 L 388.6 276.5 L 24.8 276.5 Z M 24.8 23.9 "></path></clipPath><g clip-path="url(#clip-1610)"><path d="M 0.0 0.0 L 357.8 0.0 L 357.8 246.7 L 0.0 246.7 Z M 0.0 0.0 " fill="none" stroke="#A6AAA8" stroke-opacity="0.50" stroke-width="4.00" transform="matrix(1.00, 0.00, 0.00, -1.00, 27.8, 273.5)"></path></g></g><g><clipPath id="clip-1611"><path d="M 75.0 250.0 L 115.0 250.0 L 115.0 158.0 L 75.0 158.0 Z M 75.3 250.2 "></path></clipPath><g clip-path="url(#clip-1611)"><g><clipPath id="clip-1612"><path d="M 75.3 158.3 L 114.8 158.3 L 114.8 250.2 L 75.3 250.2 Z M 75.3 158.3 "></path></clipPath><g clip-path="url(#clip-1612)"><image xlink:href="../../06B3AA21-D882-422D-839A-D1F582B7C583/assets/EF165E39D9811DD4FD9EE61CC5D7174B.png" width="39.00" height="92.00" transform="matrix(1.03, 0.00, -0.00, -1.00, 75.0, 250.0)"></image></g></g></g></g><g><clipPath id="clip-1613"><path d="M 75.3 50.1 L 114.8 50.1 L 114.8 142.1 L 75.3 142.1 Z M 75.3 50.1 "></path></clipPath><g clip-path="url(#clip-1613)"><image xlink:href="../../06B3AA21-D882-422D-839A-D1F582B7C583/assets/4103A80BF45D36625AD0EC4FB3977A07.png" width="39.00" height="92.00" transform="matrix(1.03, 0.00, -0.00, -1.00, 75.0, 142.0)"></image></g></g><g><clipPath id="clip-1614"><path d="M 126.5 172.8 L 365.0 172.8 L 365.0 226.3 L 126.5 226.3 Z M 126.5 172.8 "></path></clipPath><g clip-path="url(#clip-1614)"><text xml:space="preserve" font-family="HelveticaNeue" font-size="30.0" fill="#000000" transform="matrix(1.00, 0.00, -0.00, -1.00, 135.0, 189.0)">S</text><text xml:space="preserve" font-family="HelveticaNeue" font-size="30.0" fill="#000000" transform="matrix(1.00, 0.00, -0.00, -1.00, 154.4, 189.0)">t</text><text xml:space="preserve" font-family="HelveticaNeue" font-size="30.0" fill="#000000" transform="matrix(1.00, 0.00, -0.00, -1.00, 163.9, 189.0)">r</text><text xml:space="preserve" font-family="HelveticaNeue" font-size="30.0" fill="#000000" transform="matrix(1.00, 0.00, -0.00, -1.00, 173.9, 189.0)">a</text><text xml:space="preserve" font-family="HelveticaNeue" font-size="30.0" fill="#000000" transform="matrix(1.00, 0.00, -0.00, -1.00, 190.0, 189.0)">n</text><text xml:space="preserve" font-family="HelveticaNeue" font-size="30.0" fill="#000000" transform="matrix(1.00, 0.00, -0.00, -1.00, 206.7, 189.0)">g</text><text xml:space="preserve" font-family="HelveticaNeue" font-size="30.0" fill="#000000" transform="matrix(1.00, 0.00, -0.00, -1.00, 223.9, 189.0)">e</text><text xml:space="preserve" font-family="HelveticaNeue" font-size="30.0" fill="#000000" transform="matrix(1.00, 0.00, -0.00, -1.00, 240.0, 189.0)">r</text></g></g><g><clipPath id="clip-1615"><path d="M 126.5 64.7 L 356.7 64.7 L 356.7 118.2 L 126.5 118.2 Z M 126.5 64.7 "></path></clipPath><g clip-path="url(#clip-1615)"><text xml:space="preserve" font-family="HelveticaNeue" font-size="30.0" fill="#000000" transform="matrix(1.00, 0.00, -0.00, -1.00, 135.0, 81.0)">C</text><text xml:space="preserve" font-family="HelveticaNeue" font-size="30.0" fill="#000000" transform="matrix(1.00, 0.00, -0.00, -1.00, 156.7, 81.0)">M</text><text xml:space="preserve" font-family="HelveticaNeue" font-size="30.0" fill="#000000" transform="matrix(1.00, 0.00, -0.00, -1.00, 182.8, 81.0)">U</text><text xml:space="preserve" font-family="HelveticaNeue" font-size="30.0" fill="#000000" transform="matrix(1.00, 0.00, -0.00, -1.00, 204.4, 81.0)"> </text><text xml:space="preserve" font-family="HelveticaNeue" font-size="30.0" fill="#000000" transform="matrix(1.00, 0.00, -0.00, -1.00, 212.8, 81.0)">F</text><text xml:space="preserve" font-family="HelveticaNeue" font-size="30.0" fill="#000000" transform="matrix(1.00, 0.00, -0.00, -1.00, 230.0, 81.0)">a</text><text xml:space="preserve" font-family="HelveticaNeue" font-size="30.0" fill="#000000" transform="matrix(1.00, 0.00, -0.00, -1.00, 246.1, 81.0)">c</text><text xml:space="preserve" font-family="HelveticaNeue" font-size="30.0" fill="#000000" transform="matrix(1.00, 0.00, -0.00, -1.00, 262.2, 81.0)">u</text><text xml:space="preserve" font-family="HelveticaNeue" font-size="30.0" fill="#000000" transform="matrix(1.00, 0.00, -0.00, -1.00, 278.9, 81.0)">l</text><text xml:space="preserve" font-family="HelveticaNeue" font-size="30.0" fill="#000000" transform="matrix(1.00, 0.00, -0.00, -1.00, 285.6, 81.0)">t</text><text xml:space="preserve" font-family="HelveticaNeue" font-size="30.0" fill="#000000" transform="matrix(1.00, 0.00, -0.00, -1.00, 295.0, 81.0)">y</text></g></g><text xml:space="preserve" font-family="HelveticaNeue" font-size="60.0" fill="#000000" transform="matrix(1.00, 0.00, -0.00, -1.00, 298.0, 518.0)">4</text><text xml:space="preserve" font-family="HelveticaNeue" font-size="60.0" fill="#000000" transform="matrix(1.00, 0.00, -0.00, -1.00, 751.0, 518.0)">5</text><text xml:space="preserve" font-family="HelveticaNeue" font-size="60.0" fill="#000000" transform="matrix(1.00, 0.00, -0.00, -1.00, 1139.0, 385.0)">1</text><text xml:space="preserve" font-family="HelveticaNeue" font-size="60.0" fill="#000000" transform="matrix(1.00, 0.00, -0.00, -1.00, 1172.4, 385.0)">0</text><text xml:space="preserve" font-family="HelveticaNeue" font-size="60.0" fill="#000000" transform="matrix(1.00, 0.00, -0.00, -1.00, 1570.0, 103.0)">1</text><text xml:space="preserve" font-family="HelveticaNeue" font-size="60.0" fill="#000000" transform="matrix(1.00, 0.00, -0.00, -1.00, 1603.4, 103.0)">9</text><text xml:space="preserve" font-family="Helvetica-Light" font-size="24.0" fill="#000000" transform="matrix(1.00, 0.00, -0.00, -1.00, 946.0, 26.0)">5</text><text xml:space="preserve" font-family="Helvetica-Light" font-size="24.0" fill="#000000" transform="matrix(1.00, 0.00, -0.00, -1.00, 959.3, 26.0)">7</text></g></svg>