<?xml version="1.0" encoding="UTF-8" standalone="no"?><svg xmlns="http://www.w3.org/2000/svg" xmlns:xlink="http://www.w3.org/1999/xlink" clip-rule="evenodd" stroke-miterlimit="4.00" viewBox="0 0 473 50"><desc>SVG generated by Keynote</desc><defs></defs><g transform="matrix(1.00, 0.00, -0.00, -1.00, 0.0, 50.0)"><text xml:space="preserve" font-family="HelveticaNeue-Light" font-size="50.0" fill="#52575F" transform="matrix(1.00, 0.00, -0.00, -1.00, 0.0, 12.0)">S</text><text xml:space="preserve" font-family="HelveticaNeue-Light" font-size="50.0" fill="#52575F" transform="matrix(1.00, 0.00, -0.00, -1.00, 31.5, 12.0)">m</text><text xml:space="preserve" font-family="HelveticaNeue-Light" font-size="50.0" fill="#52575F" transform="matrix(1.00, 0.00, -0.00, -1.00, 73.2, 12.0)">a</text><text xml:space="preserve" font-family="HelveticaNeue-Light" font-size="50.0" fill="#52575F" transform="matrix(1.00, 0.00, -0.00, -1.00, 99.1, 12.0)">r</text><text xml:space="preserve" font-family="HelveticaNeue-Light" font-size="50.0" fill="#52575F" transform="matrix(1.00, 0.00, -0.00, -1.00, 114.9, 12.0)">t</text><text xml:space="preserve" font-family="HelveticaNeue-Light" font-size="50.0" fill="#52575F" transform="matrix(1.00, 0.00, -0.00, -1.00, 129.7, 12.0)">p</text><text xml:space="preserve" font-family="HelveticaNeue-Light" font-size="50.0" fill="#52575F" transform="matrix(1.00, 0.00, -0.00, -1.00, 158.4, 12.0)">h</text><text xml:space="preserve" font-family="HelveticaNeue-Light" font-size="50.0" fill="#52575F" transform="matrix(1.00, 0.00, -0.00, -1.00, 185.2, 12.0)">o</text><text xml:space="preserve" font-family="HelveticaNeue-Light" font-size="50.0" fill="#52575F" transform="matrix(1.00, 0.00, -0.00, -1.00, 213.0, 12.0)">n</text><text xml:space="preserve" font-family="HelveticaNeue-Light" font-size="50.0" fill="#52575F" transform="matrix(1.00, 0.00, -0.00, -1.00, 239.9, 12.0)">e</text><text xml:space="preserve" font-family="HelveticaNeue-Light" font-size="50.0" fill="#52575F" transform="matrix(1.00, 0.00, -0.00, -1.00, 265.8, 12.0)"> </text><text xml:space="preserve" font-family="HelveticaNeue-Light" font-size="50.0" fill="#52575F" transform="matrix(1.00, 0.00, -0.00, -1.00, 279.7, 12.0)">k</text><text xml:space="preserve" font-family="HelveticaNeue-Light" font-size="50.0" fill="#52575F" transform="matrix(1.00, 0.00, -0.00, -1.00, 304.7, 12.0)">n</text><text xml:space="preserve" font-family="HelveticaNeue-Light" font-size="50.0" fill="#52575F" transform="matrix(1.00, 0.00, -0.00, -1.00, 331.6, 12.0)">o</text><text xml:space="preserve" font-family="HelveticaNeue-Light" font-size="50.0" fill="#52575F" transform="matrix(1.00, 0.00, -0.00, -1.00, 359.4, 12.0)">w</text><text xml:space="preserve" font-family="HelveticaNeue-Light" font-size="50.0" fill="#52575F" transform="matrix(1.00, 0.00, -0.00, -1.00, 396.4, 12.0)">s</text><text xml:space="preserve" font-family="HelveticaNeue-Light" font-size="50.0" fill="#52575F" transform="matrix(1.00, 0.00, -0.00, -1.00, 420.5, 12.0)">…</text><text xml:space="preserve" font-family="HelveticaNeue-Light" font-size="50.0" fill="#52575F" transform="matrix(1.00, 0.00, -0.00, -1.00, 470.5, 12.0)"> </text></g></svg>