<?xml version="1.0" encoding="UTF-8" standalone="no"?><svg xmlns="http://www.w3.org/2000/svg" xmlns:xlink="http://www.w3.org/1999/xlink" clip-rule="evenodd" stroke-miterlimit="4.00" viewBox="0 0 480 142"><desc>SVG generated by Keynote</desc><defs></defs><g transform="matrix(1.00, 0.00, -0.00, -1.00, 0.0, 142.0)"><g><clipPath id="clip-1325"><path d="M 53.0 67.3 L 484.3 67.3 L 484.3 138.6 L 53.0 138.6 Z M 53.0 67.3 "></path></clipPath><g clip-path="url(#clip-1325)"><text xml:space="preserve" font-family="HelveticaNeue" font-size="40.0" fill="#000000" transform="matrix(1.00, 0.00, -0.00, -1.00, 65.0, 89.0)">Y</text><text xml:space="preserve" font-family="HelveticaNeue" font-size="40.0" fill="#000000" transform="matrix(1.00, 0.00, -0.00, -1.00, 86.5, 89.0)">o</text><text xml:space="preserve" font-family="HelveticaNeue" font-size="40.0" fill="#000000" transform="matrix(1.00, 0.00, -0.00, -1.00, 109.4, 89.0)">u</text><text xml:space="preserve" font-family="HelveticaNeue" font-size="40.0" fill="#000000" transform="matrix(1.00, 0.00, -0.00, -1.00, 131.7, 89.0)">r</text><text xml:space="preserve" font-family="HelveticaNeue" font-size="40.0" fill="#000000" transform="matrix(1.00, 0.00, -0.00, -1.00, 145.0, 89.0)"> </text><text xml:space="preserve" font-family="HelveticaNeue" font-size="40.0" fill="#000000" transform="matrix(1.00, 0.00, -0.00, -1.00, 156.1, 89.0)">T</text><text xml:space="preserve" font-family="HelveticaNeue" font-size="40.0" fill="#000000" transform="matrix(1.00, 0.00, -0.00, -1.00, 179.1, 89.0)">V</text><text xml:space="preserve" font-family="HelveticaNeue" font-size="40.0" fill="#000000" transform="matrix(1.00, 0.00, -0.00, -1.00, 203.5, 89.0)"> </text><text xml:space="preserve" font-family="HelveticaNeue" font-size="40.0" fill="#000000" transform="matrix(1.00, 0.00, -0.00, -1.00, 214.6, 89.0)">A</text><text xml:space="preserve" font-family="HelveticaNeue" font-size="40.0" fill="#000000" transform="matrix(1.00, 0.00, -0.00, -1.00, 240.6, 89.0)">s</text><text xml:space="preserve" font-family="HelveticaNeue" font-size="40.0" fill="#000000" transform="matrix(1.00, 0.00, -0.00, -1.00, 260.6, 89.0)">s</text><text xml:space="preserve" font-family="HelveticaNeue" font-size="40.0" fill="#000000" transform="matrix(1.00, 0.00, -0.00, -1.00, 280.6, 89.0)">i</text><text xml:space="preserve" font-family="HelveticaNeue" font-size="40.0" fill="#000000" transform="matrix(1.00, 0.00, -0.00, -1.00, 289.4, 89.0)">s</text><text xml:space="preserve" font-family="HelveticaNeue" font-size="40.0" fill="#000000" transform="matrix(1.00, 0.00, -0.00, -1.00, 309.4, 89.0)">t</text><text xml:space="preserve" font-family="HelveticaNeue" font-size="40.0" fill="#000000" transform="matrix(1.00, 0.00, -0.00, -1.00, 322.0, 89.0)">a</text><text xml:space="preserve" font-family="HelveticaNeue" font-size="40.0" fill="#000000" transform="matrix(1.00, 0.00, -0.00, -1.00, 343.5, 89.0)">n</text><text xml:space="preserve" font-family="HelveticaNeue" font-size="40.0" fill="#000000" transform="matrix(1.00, 0.00, -0.00, -1.00, 365.8, 89.0)">t</text></g></g><g><clipPath id="clip-1326"><path d="M 58.5 32.3 L 430.1 32.3 L 430.1 86.0 L 58.5 86.0 Z M 58.5 32.3 "></path></clipPath><g clip-path="url(#clip-1326)"><text xml:space="preserve" font-family="HelveticaNeue-Thin" font-size="30.0" fill="#000000" transform="matrix(1.00, 0.00, -0.00, -1.00, 67.0, 48.0)">P</text><text xml:space="preserve" font-family="HelveticaNeue-Thin" font-size="30.0" fill="#000000" transform="matrix(1.00, 0.00, -0.00, -1.00, 83.5, 48.0)">e</text><text xml:space="preserve" font-family="HelveticaNeue-Thin" font-size="30.0" fill="#000000" transform="matrix(1.00, 0.00, -0.00, -1.00, 99.0, 48.0)">r</text><text xml:space="preserve" font-family="HelveticaNeue-Thin" font-size="30.0" fill="#000000" transform="matrix(1.00, 0.00, -0.00, -1.00, 107.4, 48.0)">s</text><text xml:space="preserve" font-family="HelveticaNeue-Thin" font-size="30.0" fill="#000000" transform="matrix(1.00, 0.00, -0.00, -1.00, 121.8, 48.0)">o</text><text xml:space="preserve" font-family="HelveticaNeue-Thin" font-size="30.0" fill="#000000" transform="matrix(1.00, 0.00, -0.00, -1.00, 137.9, 48.0)">n</text><text xml:space="preserve" font-family="HelveticaNeue-Thin" font-size="30.0" fill="#000000" transform="matrix(1.00, 0.00, -0.00, -1.00, 153.5, 48.0)">a</text><text xml:space="preserve" font-family="HelveticaNeue-Thin" font-size="30.0" fill="#000000" transform="matrix(1.00, 0.00, -0.00, -1.00, 168.5, 48.0)">l</text><text xml:space="preserve" font-family="HelveticaNeue-Thin" font-size="30.0" fill="#000000" transform="matrix(1.00, 0.00, -0.00, -1.00, 173.5, 48.0)">i</text><text xml:space="preserve" font-family="HelveticaNeue-Thin" font-size="30.0" fill="#000000" transform="matrix(1.00, 0.00, -0.00, -1.00, 178.6, 48.0)">z</text><text xml:space="preserve" font-family="HelveticaNeue-Thin" font-size="30.0" fill="#000000" transform="matrix(1.00, 0.00, -0.00, -1.00, 190.8, 48.0)">e</text><text xml:space="preserve" font-family="HelveticaNeue-Thin" font-size="30.0" fill="#000000" transform="matrix(1.00, 0.00, -0.00, -1.00, 206.4, 48.0)">d</text><text xml:space="preserve" font-family="HelveticaNeue-Thin" font-size="30.0" fill="#000000" transform="matrix(1.00, 0.00, -0.00, -1.00, 223.1, 48.0)"> </text><text xml:space="preserve" font-family="HelveticaNeue-Thin" font-size="30.0" fill="#000000" transform="matrix(1.00, 0.00, -0.00, -1.00, 231.4, 48.0)">C</text><text xml:space="preserve" font-family="HelveticaNeue-Thin" font-size="30.0" fill="#000000" transform="matrix(1.00, 0.00, -0.00, -1.00, 252.5, 48.0)">o</text><text xml:space="preserve" font-family="HelveticaNeue-Thin" font-size="30.0" fill="#000000" transform="matrix(1.00, 0.00, -0.00, -1.00, 268.6, 48.0)">n</text><text xml:space="preserve" font-family="HelveticaNeue-Thin" font-size="30.0" fill="#000000" transform="matrix(1.00, 0.00, -0.00, -1.00, 284.2, 48.0)">t</text><text xml:space="preserve" font-family="HelveticaNeue-Thin" font-size="30.0" fill="#000000" transform="matrix(1.00, 0.00, -0.00, -1.00, 291.6, 48.0)">e</text><text xml:space="preserve" font-family="HelveticaNeue-Thin" font-size="30.0" fill="#000000" transform="matrix(1.00, 0.00, -0.00, -1.00, 307.1, 48.0)">n</text><text xml:space="preserve" font-family="HelveticaNeue-Thin" font-size="30.0" fill="#000000" transform="matrix(1.00, 0.00, -0.00, -1.00, 322.7, 48.0)">t</text></g></g><g><clipPath id="clip-1327"><path d="M 7.2 30.2 L 40.2 30.2 L 40.2 142.0 L 7.2 142.0 Z M 7.2 30.2 "></path></clipPath><g clip-path="url(#clip-1327)"><text xml:space="preserve" font-family="HelveticaNeue" font-size="70.0" fill="#A6AAA8" transform="matrix(1.00, 0.00, -0.00, -1.00, 7.0, 67.0)">1</text></g></g><g><clipPath id="clip-1328"><path d="M 58.5 -3.1 L 430.1 -3.1 L 430.1 50.6 L 58.5 50.6 Z M 58.5 -3.1 "></path></clipPath><g clip-path="url(#clip-1328)"><text xml:space="preserve" font-family="HelveticaNeue-Thin" font-size="30.0" fill="#000000" transform="matrix(1.00, 0.00, -0.00, -1.00, 67.0, 13.0)">P</text><text xml:space="preserve" font-family="HelveticaNeue-Thin" font-size="30.0" fill="#000000" transform="matrix(1.00, 0.00, -0.00, -1.00, 84.1, 13.0)">r</text><text xml:space="preserve" font-family="HelveticaNeue-Thin" font-size="30.0" fill="#000000" transform="matrix(1.00, 0.00, -0.00, -1.00, 92.1, 13.0)">o</text><text xml:space="preserve" font-family="HelveticaNeue-Thin" font-size="30.0" fill="#000000" transform="matrix(1.00, 0.00, -0.00, -1.00, 108.2, 13.0)">a</text><text xml:space="preserve" font-family="HelveticaNeue-Thin" font-size="30.0" fill="#000000" transform="matrix(1.00, 0.00, -0.00, -1.00, 123.2, 13.0)">c</text><text xml:space="preserve" font-family="HelveticaNeue-Thin" font-size="30.0" fill="#000000" transform="matrix(1.00, 0.00, -0.00, -1.00, 138.8, 13.0)">t</text><text xml:space="preserve" font-family="HelveticaNeue-Thin" font-size="30.0" fill="#000000" transform="matrix(1.00, 0.00, -0.00, -1.00, 146.6, 13.0)">i</text><text xml:space="preserve" font-family="HelveticaNeue-Thin" font-size="30.0" fill="#000000" transform="matrix(1.00, 0.00, -0.00, -1.00, 151.6, 13.0)">v</text><text xml:space="preserve" font-family="HelveticaNeue-Thin" font-size="30.0" fill="#000000" transform="matrix(1.00, 0.00, -0.00, -1.00, 164.9, 13.0)">e</text><text xml:space="preserve" font-family="HelveticaNeue-Thin" font-size="30.0" fill="#000000" transform="matrix(1.00, 0.00, -0.00, -1.00, 180.5, 13.0)"> </text></g></g></g></svg>