<?xml version="1.0" encoding="UTF-8" standalone="no"?><svg xmlns="http://www.w3.org/2000/svg" xmlns:xlink="http://www.w3.org/1999/xlink" clip-rule="evenodd" stroke-miterlimit="4.00" viewBox="0 0 1920 1080"><desc>SVG generated by Keynote</desc><defs></defs><g transform="matrix(1.00, 0.00, -0.00, -1.00, 0.0, 1080.0)"><path d="M 0.0 1080.0 L 1920.0 1080.0 L 1920.0 0.0 L 0.0 0.0 Z M 0.0 1080.0 " fill="#FEFFFF"></path><image xlink:href="0822EF27BD24A0E53591EEF3ED5987E9.png" width="1080.00" height="1920.00" transform="matrix(0.56, 0.00, -0.00, -0.56, 208.0, 1080.0)"></image><text xml:space="preserve" font-family="HelveticaNeue-Light" font-size="32.0" fill="#000000" transform="matrix(1.00, 0.00, -0.00, -1.00, 881.0, 517.0)">“</text><text xml:space="preserve" font-family="HelveticaNeue-Light" font-size="32.0" fill="#000000" transform="matrix(1.00, 0.00, -0.00, -1.00, 892.8, 517.0)">I</text><text xml:space="preserve" font-family="HelveticaNeue-Light" font-size="32.0" fill="#000000" transform="matrix(1.00, 0.00, -0.00, -1.00, 899.9, 517.0)">f</text><text xml:space="preserve" font-family="HelveticaNeue-Light" font-size="32.0" fill="#000000" transform="matrix(1.00, 0.00, -0.00, -1.00, 908.2, 517.0)"> </text><text xml:space="preserve" font-family="HelveticaNeue-Light" font-size="32.0" fill="#000000" transform="matrix(1.00, 0.00, -0.00, -1.00, 917.1, 517.0)">t</text><text xml:space="preserve" font-family="HelveticaNeue-Light" font-size="32.0" fill="#000000" transform="matrix(1.00, 0.00, -0.00, -1.00, 926.6, 517.0)">h</text><text xml:space="preserve" font-family="HelveticaNeue-Light" font-size="32.0" fill="#000000" transform="matrix(1.00, 0.00, -0.00, -1.00, 943.8, 517.0)">e</text><text xml:space="preserve" font-family="HelveticaNeue-Light" font-size="32.0" fill="#000000" transform="matrix(1.00, 0.00, -0.00, -1.00, 960.4, 517.0)">r</text><text xml:space="preserve" font-family="HelveticaNeue-Light" font-size="32.0" fill="#000000" transform="matrix(1.00, 0.00, -0.00, -1.00, 969.9, 517.0)">e</text><text xml:space="preserve" font-family="HelveticaNeue-Light" font-size="32.0" fill="#000000" transform="matrix(1.00, 0.00, -0.00, -1.00, 986.5, 517.0)"> </text><text xml:space="preserve" font-family="HelveticaNeue-Light" font-size="32.0" fill="#000000" transform="matrix(1.00, 0.00, -0.00, -1.00, 995.4, 517.0)">i</text><text xml:space="preserve" font-family="HelveticaNeue-Light" font-size="32.0" fill="#000000" transform="matrix(1.00, 0.00, -0.00, -1.00, 1001.3, 517.0)">s</text><text xml:space="preserve" font-family="HelveticaNeue-Light" font-size="32.0" fill="#000000" transform="matrix(1.00, 0.00, -0.00, -1.00, 1016.7, 517.0)"> </text><text xml:space="preserve" font-family="HelveticaNeue-Light" font-size="32.0" fill="#000000" transform="matrix(1.00, 0.00, -0.00, -1.00, 1025.6, 517.0)">a</text><text xml:space="preserve" font-family="HelveticaNeue-Light" font-size="32.0" fill="#000000" transform="matrix(1.00, 0.00, -0.00, -1.00, 1042.2, 517.0)"> </text><text xml:space="preserve" font-family="HelveticaNeue-Light" font-size="32.0" fill="#000000" transform="matrix(1.00, 0.00, -0.00, -1.00, 1051.1, 517.0)">p</text><text xml:space="preserve" font-family="HelveticaNeue-Light" font-size="32.0" fill="#000000" transform="matrix(1.00, 0.00, -0.00, -1.00, 1069.5, 517.0)">r</text><text xml:space="preserve" font-family="HelveticaNeue-Light" font-size="32.0" fill="#000000" transform="matrix(1.00, 0.00, -0.00, -1.00, 1079.0, 517.0)">o</text><text xml:space="preserve" font-family="HelveticaNeue-Light" font-size="32.0" fill="#000000" transform="matrix(1.00, 0.00, -0.00, -1.00, 1096.8, 517.0)">g</text><text xml:space="preserve" font-family="HelveticaNeue-Light" font-size="32.0" fill="#000000" transform="matrix(1.00, 0.00, -0.00, -1.00, 1114.6, 517.0)">r</text><text xml:space="preserve" font-family="HelveticaNeue-Light" font-size="32.0" fill="#000000" transform="matrix(1.00, 0.00, -0.00, -1.00, 1124.6, 517.0)">a</text><text xml:space="preserve" font-family="HelveticaNeue-Light" font-size="32.0" fill="#000000" transform="matrix(1.00, 0.00, -0.00, -1.00, 1141.3, 517.0)">m</text><text xml:space="preserve" font-family="HelveticaNeue-Light" font-size="32.0" fill="#000000" transform="matrix(1.00, 0.00, -0.00, -1.00, 1167.9, 517.0)"> </text><text xml:space="preserve" font-family="HelveticaNeue-Light" font-size="32.0" fill="#000000" transform="matrix(1.00, 0.00, -0.00, -1.00, 1176.8, 517.0)">I</text><text xml:space="preserve" font-family="HelveticaNeue-Light" font-size="32.0" fill="#000000" transform="matrix(1.00, 0.00, -0.00, -1.00, 1183.9, 517.0)"> </text><text xml:space="preserve" font-family="HelveticaNeue-Light" font-size="32.0" fill="#000000" transform="matrix(1.00, 0.00, -0.00, -1.00, 1192.8, 517.0)">r</text><text xml:space="preserve" font-family="HelveticaNeue-Light" font-size="32.0" fill="#000000" transform="matrix(1.00, 0.00, -0.00, -1.00, 1202.3, 517.0)">e</text><text xml:space="preserve" font-family="HelveticaNeue-Light" font-size="32.0" fill="#000000" transform="matrix(1.00, 0.00, -0.00, -1.00, 1218.9, 517.0)">a</text><text xml:space="preserve" font-family="HelveticaNeue-Light" font-size="32.0" fill="#000000" transform="matrix(1.00, 0.00, -0.00, -1.00, 1235.5, 517.0)">l</text><text xml:space="preserve" font-family="HelveticaNeue-Light" font-size="32.0" fill="#000000" transform="matrix(1.00, 0.00, -0.00, -1.00, 1241.4, 517.0)">l</text><text xml:space="preserve" font-family="HelveticaNeue-Light" font-size="32.0" fill="#000000" transform="matrix(1.00, 0.00, -0.00, -1.00, 1247.4, 517.0)">y</text><text xml:space="preserve" font-family="HelveticaNeue-Light" font-size="32.0" fill="#000000" transform="matrix(1.00, 0.00, -0.00, -1.00, 1262.2, 517.0)"> </text><text xml:space="preserve" font-family="HelveticaNeue-Light" font-size="32.0" fill="#000000" transform="matrix(1.00, 0.00, -0.00, -1.00, 1271.1, 517.0)">l</text><text xml:space="preserve" font-family="HelveticaNeue-Light" font-size="32.0" fill="#000000" transform="matrix(1.00, 0.00, -0.00, -1.00, 1277.0, 517.0)">i</text><text xml:space="preserve" font-family="HelveticaNeue-Light" font-size="32.0" fill="#000000" transform="matrix(1.00, 0.00, -0.00, -1.00, 1282.9, 517.0)">k</text><text xml:space="preserve" font-family="HelveticaNeue-Light" font-size="32.0" fill="#000000" transform="matrix(1.00, 0.00, -0.00, -1.00, 1298.9, 517.0)">e</text><text xml:space="preserve" font-family="HelveticaNeue-Light" font-size="32.0" fill="#000000" transform="matrix(1.00, 0.00, -0.00, -1.00, 1315.5, 517.0)"> </text><text xml:space="preserve" font-family="HelveticaNeue-Light" font-size="32.0" fill="#000000" transform="matrix(1.00, 0.00, -0.00, -1.00, 1324.4, 517.0)">t</text><text xml:space="preserve" font-family="HelveticaNeue-Light" font-size="32.0" fill="#000000" transform="matrix(1.00, 0.00, -0.00, -1.00, 1333.9, 517.0)">o</text><text xml:space="preserve" font-family="HelveticaNeue-Light" font-size="32.0" fill="#000000" transform="matrix(1.00, 0.00, -0.00, -1.00, 1351.7, 517.0)"> </text><text xml:space="preserve" font-family="HelveticaNeue-Light" font-size="32.0" fill="#000000" transform="matrix(1.00, 0.00, -0.00, -1.00, 1360.6, 517.0)">w</text><text xml:space="preserve" font-family="HelveticaNeue-Light" font-size="32.0" fill="#000000" transform="matrix(1.00, 0.00, -0.00, -1.00, 1384.3, 517.0)">a</text><text xml:space="preserve" font-family="HelveticaNeue-Light" font-size="32.0" fill="#000000" transform="matrix(1.00, 0.00, -0.00, -1.00, 1400.9, 517.0)">t</text><text xml:space="preserve" font-family="HelveticaNeue-Light" font-size="32.0" fill="#000000" transform="matrix(1.00, 0.00, -0.00, -1.00, 1410.4, 517.0)">c</text><text xml:space="preserve" font-family="HelveticaNeue-Light" font-size="32.0" fill="#000000" transform="matrix(1.00, 0.00, -0.00, -1.00, 1427.0, 517.0)">h</text><text xml:space="preserve" font-family="HelveticaNeue-Light" font-size="32.0" fill="#000000" transform="matrix(1.00, 0.00, -0.00, -1.00, 1444.2, 517.0)"> </text><text xml:space="preserve" font-family="HelveticaNeue-Light" font-size="32.0" fill="#000000" transform="matrix(1.00, 0.00, -0.00, -1.00, 1453.1, 517.0)">a</text><text xml:space="preserve" font-family="HelveticaNeue-Light" font-size="32.0" fill="#000000" transform="matrix(1.00, 0.00, -0.00, -1.00, 1469.7, 517.0)">n</text><text xml:space="preserve" font-family="HelveticaNeue-Light" font-size="32.0" fill="#000000" transform="matrix(1.00, 0.00, -0.00, -1.00, 1486.9, 517.0)">d</text><text xml:space="preserve" font-family="HelveticaNeue-Light" font-size="32.0" fill="#000000" transform="matrix(1.00, 0.00, -0.00, -1.00, 1505.2, 517.0)"> </text><text xml:space="preserve" font-family="HelveticaNeue-Light" font-size="32.0" fill="#000000" transform="matrix(1.00, 0.00, -0.00, -1.00, 1514.1, 517.0)">I</text><text xml:space="preserve" font-family="HelveticaNeue-Light" font-size="32.0" fill="#000000" transform="matrix(1.00, 0.00, -0.00, -1.00, 1521.2, 517.0)"> </text><text xml:space="preserve" font-family="HelveticaNeue-Light" font-size="32.0" fill="#000000" transform="matrix(1.00, 0.00, -0.00, -1.00, 1530.1, 517.0)">d</text><text xml:space="preserve" font-family="HelveticaNeue-Light" font-size="32.0" fill="#000000" transform="matrix(1.00, 0.00, -0.00, -1.00, 1548.5, 517.0)">o</text><text xml:space="preserve" font-family="HelveticaNeue-Light" font-size="32.0" fill="#000000" transform="matrix(1.00, 0.00, -0.00, -1.00, 1566.3, 517.0)">n</text><text xml:space="preserve" font-family="HelveticaNeue-Light" font-size="32.0" fill="#000000" transform="matrix(1.00, 0.00, -0.00, -1.00, 1583.5, 517.0)">’</text><text xml:space="preserve" font-family="HelveticaNeue-Light" font-size="32.0" fill="#000000" transform="matrix(1.00, 0.00, -0.00, -1.00, 1591.8, 517.0)">t</text><text xml:space="preserve" font-family="HelveticaNeue-Light" font-size="32.0" fill="#000000" transform="matrix(1.00, 0.00, -0.00, -1.00, 1601.3, 517.0)"> </text><text xml:space="preserve" font-family="HelveticaNeue-Light" font-size="32.0" fill="#000000" transform="matrix(1.00, 0.00, -0.00, -1.00, 1610.2, 517.0)">k</text><text xml:space="preserve" font-family="HelveticaNeue-Light" font-size="32.0" fill="#000000" transform="matrix(1.00, 0.00, -0.00, -1.00, 1626.2, 517.0)">n</text><text xml:space="preserve" font-family="HelveticaNeue-Light" font-size="32.0" fill="#000000" transform="matrix(1.00, 0.00, -0.00, -1.00, 1643.3, 517.0)">o</text><text xml:space="preserve" font-family="HelveticaNeue-Light" font-size="32.0" fill="#000000" transform="matrix(1.00, 0.00, -0.00, -1.00, 1661.1, 517.0)">w</text><text xml:space="preserve" font-family="HelveticaNeue-Light" font-size="32.0" fill="#000000" transform="matrix(1.00, 0.00, -0.00, -1.00, 1684.8, 517.0)"> </text><text xml:space="preserve" font-family="HelveticaNeue-Light" font-size="32.0" fill="#000000" transform="matrix(1.00, 0.00, -0.00, -1.00, 1693.7, 517.0)">w</text><text xml:space="preserve" font-family="HelveticaNeue-Light" font-size="32.0" fill="#000000" transform="matrix(1.00, 0.00, -0.00, -1.00, 1717.4, 517.0)">h</text><text xml:space="preserve" font-family="HelveticaNeue-Light" font-size="32.0" fill="#000000" transform="matrix(1.00, 0.00, -0.00, -1.00, 1734.6, 517.0)">a</text><text xml:space="preserve" font-family="HelveticaNeue-Light" font-size="32.0" fill="#000000" transform="matrix(1.00, 0.00, -0.00, -1.00, 1751.2, 517.0)">t</text><text xml:space="preserve" font-family="HelveticaNeue-Light" font-size="32.0" fill="#000000" transform="matrix(1.00, 0.00, -0.00, -1.00, 1760.7, 517.0)"> </text><text xml:space="preserve" font-family="HelveticaNeue-Light" font-size="32.0" fill="#000000" transform="matrix(1.00, 0.00, -0.00, -1.00, 881.0, 478.0)">i</text><text xml:space="preserve" font-family="HelveticaNeue-Light" font-size="32.0" fill="#000000" transform="matrix(1.00, 0.00, -0.00, -1.00, 886.9, 478.0)">s</text><text xml:space="preserve" font-family="HelveticaNeue-Light" font-size="32.0" fill="#000000" transform="matrix(1.00, 0.00, -0.00, -1.00, 902.3, 478.0)"> </text><text xml:space="preserve" font-family="HelveticaNeue-Light" font-size="32.0" fill="#000000" transform="matrix(1.00, 0.00, -0.00, -1.00, 911.2, 478.0)">t</text><text xml:space="preserve" font-family="HelveticaNeue-Light" font-size="32.0" fill="#000000" transform="matrix(1.00, 0.00, -0.00, -1.00, 920.7, 478.0)">h</text><text xml:space="preserve" font-family="HelveticaNeue-Light" font-size="32.0" fill="#000000" transform="matrix(1.00, 0.00, -0.00, -1.00, 937.9, 478.0)">a</text><text xml:space="preserve" font-family="HelveticaNeue-Light" font-size="32.0" fill="#000000" transform="matrix(1.00, 0.00, -0.00, -1.00, 954.5, 478.0)">t</text><text xml:space="preserve" font-family="HelveticaNeue-Light" font-size="32.0" fill="#000000" transform="matrix(1.00, 0.00, -0.00, -1.00, 963.9, 478.0)"> </text><text xml:space="preserve" font-family="HelveticaNeue-Light" font-size="32.0" fill="#000000" transform="matrix(1.00, 0.00, -0.00, -1.00, 972.8, 478.0)">p</text><text xml:space="preserve" font-family="HelveticaNeue-Light" font-size="32.0" fill="#000000" transform="matrix(1.00, 0.00, -0.00, -1.00, 991.2, 478.0)">r</text><text xml:space="preserve" font-family="HelveticaNeue-Light" font-size="32.0" fill="#000000" transform="matrix(1.00, 0.00, -0.00, -1.00, 1000.7, 478.0)">o</text><text xml:space="preserve" font-family="HelveticaNeue-Light" font-size="32.0" fill="#000000" transform="matrix(1.00, 0.00, -0.00, -1.00, 1018.5, 478.0)">g</text><text xml:space="preserve" font-family="HelveticaNeue-Light" font-size="32.0" fill="#000000" transform="matrix(1.00, 0.00, -0.00, -1.00, 1036.3, 478.0)">r</text><text xml:space="preserve" font-family="HelveticaNeue-Light" font-size="32.0" fill="#000000" transform="matrix(1.00, 0.00, -0.00, -1.00, 1046.4, 478.0)">a</text><text xml:space="preserve" font-family="HelveticaNeue-Light" font-size="32.0" fill="#000000" transform="matrix(1.00, 0.00, -0.00, -1.00, 1063.0, 478.0)">m</text><text xml:space="preserve" font-family="HelveticaNeue-Light" font-size="32.0" fill="#000000" transform="matrix(1.00, 0.00, -0.00, -1.00, 1089.6, 478.0)">,</text><text xml:space="preserve" font-family="HelveticaNeue-Light" font-size="32.0" fill="#000000" transform="matrix(1.00, 0.00, -0.00, -1.00, 1098.5, 478.0)"> </text><text xml:space="preserve" font-family="HelveticaNeue-Light" font-size="32.0" fill="#000000" transform="matrix(1.00, 0.00, -0.00, -1.00, 1107.4, 478.0)">t</text><text xml:space="preserve" font-family="HelveticaNeue-Light" font-size="32.0" fill="#000000" transform="matrix(1.00, 0.00, -0.00, -1.00, 1116.9, 478.0)">h</text><text xml:space="preserve" font-family="HelveticaNeue-Light" font-size="32.0" fill="#000000" transform="matrix(1.00, 0.00, -0.00, -1.00, 1134.1, 478.0)">e</text><text xml:space="preserve" font-family="HelveticaNeue-Light" font-size="32.0" fill="#000000" transform="matrix(1.00, 0.00, -0.00, -1.00, 1150.7, 478.0)">n</text><text xml:space="preserve" font-family="HelveticaNeue-Light" font-size="32.0" fill="#000000" transform="matrix(1.00, 0.00, -0.00, -1.00, 1167.9, 478.0)"> </text><text xml:space="preserve" font-family="HelveticaNeue-Light" font-size="32.0" fill="#000000" transform="matrix(1.00, 0.00, -0.00, -1.00, 1176.8, 478.0)">I</text><text xml:space="preserve" font-family="HelveticaNeue-Light" font-size="32.0" fill="#000000" transform="matrix(1.00, 0.00, -0.00, -1.00, 1183.9, 478.0)"> </text><text xml:space="preserve" font-family="HelveticaNeue-Light" font-size="32.0" fill="#000000" transform="matrix(1.00, 0.00, -0.00, -1.00, 1192.8, 478.0)">c</text><text xml:space="preserve" font-family="HelveticaNeue-Light" font-size="32.0" fill="#000000" transform="matrix(1.00, 0.00, -0.00, -1.00, 1209.4, 478.0)">a</text><text xml:space="preserve" font-family="HelveticaNeue-Light" font-size="32.0" fill="#000000" transform="matrix(1.00, 0.00, -0.00, -1.00, 1226.0, 478.0)">n</text><text xml:space="preserve" font-family="HelveticaNeue-Light" font-size="32.0" fill="#000000" transform="matrix(1.00, 0.00, -0.00, -1.00, 1243.2, 478.0)"> </text><text xml:space="preserve" font-family="HelveticaNeue-Light" font-size="32.0" fill="#000000" transform="matrix(1.00, 0.00, -0.00, -1.00, 1252.1, 478.0)">c</text><text xml:space="preserve" font-family="HelveticaNeue-Light" font-size="32.0" fill="#000000" transform="matrix(1.00, 0.00, -0.00, -1.00, 1268.7, 478.0)">h</text><text xml:space="preserve" font-family="HelveticaNeue-Light" font-size="32.0" fill="#000000" transform="matrix(1.00, 0.00, -0.00, -1.00, 1285.9, 478.0)">e</text><text xml:space="preserve" font-family="HelveticaNeue-Light" font-size="32.0" fill="#000000" transform="matrix(1.00, 0.00, -0.00, -1.00, 1302.5, 478.0)">c</text><text xml:space="preserve" font-family="HelveticaNeue-Light" font-size="32.0" fill="#000000" transform="matrix(1.00, 0.00, -0.00, -1.00, 1319.1, 478.0)">k</text><text xml:space="preserve" font-family="HelveticaNeue-Light" font-size="32.0" fill="#000000" transform="matrix(1.00, 0.00, -0.00, -1.00, 1335.1, 478.0)"> </text><text xml:space="preserve" font-family="HelveticaNeue-Light" font-size="32.0" fill="#000000" transform="matrix(1.00, 0.00, -0.00, -1.00, 1344.0, 478.0)">t</text><text xml:space="preserve" font-family="HelveticaNeue-Light" font-size="32.0" fill="#000000" transform="matrix(1.00, 0.00, -0.00, -1.00, 1353.4, 478.0)">h</text><text xml:space="preserve" font-family="HelveticaNeue-Light" font-size="32.0" fill="#000000" transform="matrix(1.00, 0.00, -0.00, -1.00, 1370.6, 478.0)">i</text><text xml:space="preserve" font-family="HelveticaNeue-Light" font-size="32.0" fill="#000000" transform="matrix(1.00, 0.00, -0.00, -1.00, 1376.6, 478.0)">s</text><text xml:space="preserve" font-family="HelveticaNeue-Light" font-size="32.0" fill="#000000" transform="matrix(1.00, 0.00, -0.00, -1.00, 1391.9, 478.0)"> </text><text xml:space="preserve" font-family="HelveticaNeue-Light" font-size="32.0" fill="#000000" transform="matrix(1.00, 0.00, -0.00, -1.00, 1400.8, 478.0)">a</text><text xml:space="preserve" font-family="HelveticaNeue-Light" font-size="32.0" fill="#000000" transform="matrix(1.00, 0.00, -0.00, -1.00, 1417.4, 478.0)">n</text><text xml:space="preserve" font-family="HelveticaNeue-Light" font-size="32.0" fill="#000000" transform="matrix(1.00, 0.00, -0.00, -1.00, 1434.6, 478.0)">d</text><text xml:space="preserve" font-family="HelveticaNeue-Light" font-size="32.0" fill="#000000" transform="matrix(1.00, 0.00, -0.00, -1.00, 1453.0, 478.0)"> </text><text xml:space="preserve" font-family="HelveticaNeue-Light" font-size="32.0" fill="#000000" transform="matrix(1.00, 0.00, -0.00, -1.00, 1461.9, 478.0)">g</text><text xml:space="preserve" font-family="HelveticaNeue-Light" font-size="32.0" fill="#000000" transform="matrix(1.00, 0.00, -0.00, -1.00, 1479.7, 478.0)">o</text><text xml:space="preserve" font-family="HelveticaNeue-Light" font-size="32.0" fill="#000000" transform="matrix(1.00, 0.00, -0.00, -1.00, 1497.5, 478.0)"> </text><text xml:space="preserve" font-family="HelveticaNeue-Light" font-size="32.0" fill="#000000" transform="matrix(1.00, 0.00, -0.00, -1.00, 1506.4, 478.0)">b</text><text xml:space="preserve" font-family="HelveticaNeue-Light" font-size="32.0" fill="#000000" transform="matrix(1.00, 0.00, -0.00, -1.00, 1524.7, 478.0)">a</text><text xml:space="preserve" font-family="HelveticaNeue-Light" font-size="32.0" fill="#000000" transform="matrix(1.00, 0.00, -0.00, -1.00, 1541.4, 478.0)">c</text><text xml:space="preserve" font-family="HelveticaNeue-Light" font-size="32.0" fill="#000000" transform="matrix(1.00, 0.00, -0.00, -1.00, 1558.0, 478.0)">k</text><text xml:space="preserve" font-family="HelveticaNeue-Light" font-size="32.0" fill="#000000" transform="matrix(1.00, 0.00, -0.00, -1.00, 1574.0, 478.0)"> </text><text xml:space="preserve" font-family="HelveticaNeue-Light" font-size="32.0" fill="#000000" transform="matrix(1.00, 0.00, -0.00, -1.00, 1582.9, 478.0)">t</text><text xml:space="preserve" font-family="HelveticaNeue-Light" font-size="32.0" fill="#000000" transform="matrix(1.00, 0.00, -0.00, -1.00, 1592.3, 478.0)">o</text><text xml:space="preserve" font-family="HelveticaNeue-Light" font-size="32.0" fill="#000000" transform="matrix(1.00, 0.00, -0.00, -1.00, 1610.1, 478.0)"> </text><text xml:space="preserve" font-family="HelveticaNeue-Light" font-size="32.0" fill="#000000" transform="matrix(1.00, 0.00, -0.00, -1.00, 1619.0, 478.0)">w</text><text xml:space="preserve" font-family="HelveticaNeue-Light" font-size="32.0" fill="#000000" transform="matrix(1.00, 0.00, -0.00, -1.00, 1642.7, 478.0)">a</text><text xml:space="preserve" font-family="HelveticaNeue-Light" font-size="32.0" fill="#000000" transform="matrix(1.00, 0.00, -0.00, -1.00, 1659.3, 478.0)">t</text><text xml:space="preserve" font-family="HelveticaNeue-Light" font-size="32.0" fill="#000000" transform="matrix(1.00, 0.00, -0.00, -1.00, 1668.8, 478.0)">c</text><text xml:space="preserve" font-family="HelveticaNeue-Light" font-size="32.0" fill="#000000" transform="matrix(1.00, 0.00, -0.00, -1.00, 1685.4, 478.0)">h</text><text xml:space="preserve" font-family="HelveticaNeue-Light" font-size="32.0" fill="#000000" transform="matrix(1.00, 0.00, -0.00, -1.00, 1702.6, 478.0)"> </text><text xml:space="preserve" font-family="HelveticaNeue-Light" font-size="32.0" fill="#000000" transform="matrix(1.00, 0.00, -0.00, -1.00, 1711.5, 478.0)">i</text><text xml:space="preserve" font-family="HelveticaNeue-Light" font-size="32.0" fill="#000000" transform="matrix(1.00, 0.00, -0.00, -1.00, 1717.4, 478.0)">t</text><text xml:space="preserve" font-family="HelveticaNeue-Light" font-size="32.0" fill="#000000" transform="matrix(1.00, 0.00, -0.00, -1.00, 1726.9, 478.0)"> </text><text xml:space="preserve" font-family="HelveticaNeue-Light" font-size="32.0" fill="#000000" transform="matrix(1.00, 0.00, -0.00, -1.00, 881.0, 439.0)">a</text><text xml:space="preserve" font-family="HelveticaNeue-Light" font-size="32.0" fill="#000000" transform="matrix(1.00, 0.00, -0.00, -1.00, 897.6, 439.0)">g</text><text xml:space="preserve" font-family="HelveticaNeue-Light" font-size="32.0" fill="#000000" transform="matrix(1.00, 0.00, -0.00, -1.00, 915.4, 439.0)">a</text><text xml:space="preserve" font-family="HelveticaNeue-Light" font-size="32.0" fill="#000000" transform="matrix(1.00, 0.00, -0.00, -1.00, 932.0, 439.0)">i</text><text xml:space="preserve" font-family="HelveticaNeue-Light" font-size="32.0" fill="#000000" transform="matrix(1.00, 0.00, -0.00, -1.00, 937.9, 439.0)">n</text><text xml:space="preserve" font-family="HelveticaNeue-Light" font-size="32.0" fill="#000000" transform="matrix(1.00, 0.00, -0.00, -1.00, 955.1, 439.0)"> </text><text xml:space="preserve" font-family="HelveticaNeue-Light" font-size="32.0" fill="#000000" transform="matrix(1.00, 0.00, -0.00, -1.00, 964.0, 439.0)">o</text><text xml:space="preserve" font-family="HelveticaNeue-Light" font-size="32.0" fill="#000000" transform="matrix(1.00, 0.00, -0.00, -1.00, 981.8, 439.0)">r</text><text xml:space="preserve" font-family="HelveticaNeue-Light" font-size="32.0" fill="#000000" transform="matrix(1.00, 0.00, -0.00, -1.00, 991.9, 439.0)"> </text><text xml:space="preserve" font-family="HelveticaNeue-Light" font-size="32.0" fill="#000000" transform="matrix(1.00, 0.00, -0.00, -1.00, 1000.8, 439.0)">t</text><text xml:space="preserve" font-family="HelveticaNeue-Light" font-size="32.0" fill="#000000" transform="matrix(1.00, 0.00, -0.00, -1.00, 1010.2, 439.0)">e</text><text xml:space="preserve" font-family="HelveticaNeue-Light" font-size="32.0" fill="#000000" transform="matrix(1.00, 0.00, -0.00, -1.00, 1026.9, 439.0)">l</text><text xml:space="preserve" font-family="HelveticaNeue-Light" font-size="32.0" fill="#000000" transform="matrix(1.00, 0.00, -0.00, -1.00, 1032.8, 439.0)">l</text><text xml:space="preserve" font-family="HelveticaNeue-Light" font-size="32.0" fill="#000000" transform="matrix(1.00, 0.00, -0.00, -1.00, 1038.7, 439.0)"> </text><text xml:space="preserve" font-family="HelveticaNeue-Light" font-size="32.0" fill="#000000" transform="matrix(1.00, 0.00, -0.00, -1.00, 1047.6, 439.0)">m</text><text xml:space="preserve" font-family="HelveticaNeue-Light" font-size="32.0" fill="#000000" transform="matrix(1.00, 0.00, -0.00, -1.00, 1074.2, 439.0)">y</text><text xml:space="preserve" font-family="HelveticaNeue-Light" font-size="32.0" fill="#000000" transform="matrix(1.00, 0.00, -0.00, -1.00, 1089.1, 439.0)"> </text><text xml:space="preserve" font-family="HelveticaNeue-Light" font-size="32.0" fill="#000000" transform="matrix(1.00, 0.00, -0.00, -1.00, 1098.0, 439.0)">f</text><text xml:space="preserve" font-family="HelveticaNeue-Light" font-size="32.0" fill="#000000" transform="matrix(1.00, 0.00, -0.00, -1.00, 1106.2, 439.0)">r</text><text xml:space="preserve" font-family="HelveticaNeue-Light" font-size="32.0" fill="#000000" transform="matrix(1.00, 0.00, -0.00, -1.00, 1116.3, 439.0)">i</text><text xml:space="preserve" font-family="HelveticaNeue-Light" font-size="32.0" fill="#000000" transform="matrix(1.00, 0.00, -0.00, -1.00, 1122.2, 439.0)">e</text><text xml:space="preserve" font-family="HelveticaNeue-Light" font-size="32.0" fill="#000000" transform="matrix(1.00, 0.00, -0.00, -1.00, 1138.9, 439.0)">n</text><text xml:space="preserve" font-family="HelveticaNeue-Light" font-size="32.0" fill="#000000" transform="matrix(1.00, 0.00, -0.00, -1.00, 1156.0, 439.0)">d</text><text xml:space="preserve" font-family="HelveticaNeue-Light" font-size="32.0" fill="#000000" transform="matrix(1.00, 0.00, -0.00, -1.00, 1174.4, 439.0)"> </text><text xml:space="preserve" font-family="HelveticaNeue-Light" font-size="32.0" fill="#000000" transform="matrix(1.00, 0.00, -0.00, -1.00, 1183.3, 439.0)">a</text><text xml:space="preserve" font-family="HelveticaNeue-Light" font-size="32.0" fill="#000000" transform="matrix(1.00, 0.00, -0.00, -1.00, 1199.9, 439.0)">b</text><text xml:space="preserve" font-family="HelveticaNeue-Light" font-size="32.0" fill="#000000" transform="matrix(1.00, 0.00, -0.00, -1.00, 1218.3, 439.0)">o</text><text xml:space="preserve" font-family="HelveticaNeue-Light" font-size="32.0" fill="#000000" transform="matrix(1.00, 0.00, -0.00, -1.00, 1236.1, 439.0)">u</text><text xml:space="preserve" font-family="HelveticaNeue-Light" font-size="32.0" fill="#000000" transform="matrix(1.00, 0.00, -0.00, -1.00, 1253.3, 439.0)">t</text><text xml:space="preserve" font-family="HelveticaNeue-Light" font-size="32.0" fill="#000000" transform="matrix(1.00, 0.00, -0.00, -1.00, 1262.7, 439.0)"> </text><text xml:space="preserve" font-family="HelveticaNeue-Light" font-size="32.0" fill="#000000" transform="matrix(1.00, 0.00, -0.00, -1.00, 1271.6, 439.0)">t</text><text xml:space="preserve" font-family="HelveticaNeue-Light" font-size="32.0" fill="#000000" transform="matrix(1.00, 0.00, -0.00, -1.00, 1281.1, 439.0)">h</text><text xml:space="preserve" font-family="HelveticaNeue-Light" font-size="32.0" fill="#000000" transform="matrix(1.00, 0.00, -0.00, -1.00, 1298.3, 439.0)">a</text><text xml:space="preserve" font-family="HelveticaNeue-Light" font-size="32.0" fill="#000000" transform="matrix(1.00, 0.00, -0.00, -1.00, 1314.9, 439.0)">t</text><text xml:space="preserve" font-family="HelveticaNeue-Light" font-size="32.0" fill="#000000" transform="matrix(1.00, 0.00, -0.00, -1.00, 1324.4, 439.0)">.</text><text xml:space="preserve" font-family="HelveticaNeue-Light" font-size="32.0" fill="#000000" transform="matrix(1.00, 0.00, -0.00, -1.00, 1333.3, 439.0)">”</text><text xml:space="preserve" font-family="Helvetica-Light" font-size="24.0" fill="#000000" transform="matrix(1.00, 0.00, -0.00, -1.00, 946.0, 26.0)">2</text><text xml:space="preserve" font-family="Helvetica-Light" font-size="24.0" fill="#000000" transform="matrix(1.00, 0.00, -0.00, -1.00, 959.3, 26.0)">3</text></g></svg>