<?xml version="1.0" encoding="UTF-8" standalone="no"?><svg xmlns="http://www.w3.org/2000/svg" xmlns:xlink="http://www.w3.org/1999/xlink" clip-rule="evenodd" stroke-miterlimit="4.00" viewBox="0 0 302 62"><desc>SVG generated by Keynote</desc><defs></defs><g transform="matrix(1.00, 0.00, -0.00, -1.00, 0.0, 62.0)"><text xml:space="preserve" font-family="HelveticaNeue-Thin" font-size="30.0" fill="#000000" transform="matrix(1.00, 0.00, -0.00, -1.00, 1.0, 38.0)">E</text><text xml:space="preserve" font-family="HelveticaNeue-Thin" font-size="30.0" fill="#000000" transform="matrix(1.00, 0.00, -0.00, -1.00, 17.8, 38.0)">n</text><text xml:space="preserve" font-family="HelveticaNeue-Thin" font-size="30.0" fill="#000000" transform="matrix(1.00, 0.00, -0.00, -1.00, 33.4, 38.0)">a</text><text xml:space="preserve" font-family="HelveticaNeue-Thin" font-size="30.0" fill="#000000" transform="matrix(1.00, 0.00, -0.00, -1.00, 48.4, 38.0)">b</text><text xml:space="preserve" font-family="HelveticaNeue-Thin" font-size="30.0" fill="#000000" transform="matrix(1.00, 0.00, -0.00, -1.00, 65.1, 38.0)">l</text><text xml:space="preserve" font-family="HelveticaNeue-Thin" font-size="30.0" fill="#000000" transform="matrix(1.00, 0.00, -0.00, -1.00, 70.1, 38.0)">e</text><text xml:space="preserve" font-family="HelveticaNeue-Thin" font-size="30.0" fill="#000000" transform="matrix(1.00, 0.00, -0.00, -1.00, 85.7, 38.0)"> </text><text xml:space="preserve" font-family="HelveticaNeue-Thin" font-size="30.0" fill="#000000" transform="matrix(1.00, 0.00, -0.00, -1.00, 94.0, 38.0)">v</text><text xml:space="preserve" font-family="HelveticaNeue-Thin" font-size="30.0" fill="#000000" transform="matrix(1.00, 0.00, -0.00, -1.00, 107.3, 38.0)">o</text><text xml:space="preserve" font-family="HelveticaNeue-Thin" font-size="30.0" fill="#000000" transform="matrix(1.00, 0.00, -0.00, -1.00, 123.4, 38.0)">i</text><text xml:space="preserve" font-family="HelveticaNeue-Thin" font-size="30.0" fill="#000000" transform="matrix(1.00, 0.00, -0.00, -1.00, 128.5, 38.0)">c</text><text xml:space="preserve" font-family="HelveticaNeue-Thin" font-size="30.0" fill="#000000" transform="matrix(1.00, 0.00, -0.00, -1.00, 144.0, 38.0)">e</text><text xml:space="preserve" font-family="HelveticaNeue-Thin" font-size="30.0" fill="#000000" transform="matrix(1.00, 0.00, -0.00, -1.00, 159.6, 38.0)"> </text><text xml:space="preserve" font-family="HelveticaNeue-Thin" font-size="30.0" fill="#000000" transform="matrix(1.00, 0.00, -0.00, -1.00, 168.0, 38.0)">c</text><text xml:space="preserve" font-family="HelveticaNeue-Thin" font-size="30.0" fill="#000000" transform="matrix(1.00, 0.00, -0.00, -1.00, 183.5, 38.0)">o</text><text xml:space="preserve" font-family="HelveticaNeue-Thin" font-size="30.0" fill="#000000" transform="matrix(1.00, 0.00, -0.00, -1.00, 199.6, 38.0)">m</text><text xml:space="preserve" font-family="HelveticaNeue-Thin" font-size="30.0" fill="#000000" transform="matrix(1.00, 0.00, -0.00, -1.00, 223.5, 38.0)">m</text><text xml:space="preserve" font-family="HelveticaNeue-Thin" font-size="30.0" fill="#000000" transform="matrix(1.00, 0.00, -0.00, -1.00, 247.4, 38.0)">a</text><text xml:space="preserve" font-family="HelveticaNeue-Thin" font-size="30.0" fill="#000000" transform="matrix(1.00, 0.00, -0.00, -1.00, 262.4, 38.0)">n</text><text xml:space="preserve" font-family="HelveticaNeue-Thin" font-size="30.0" fill="#000000" transform="matrix(1.00, 0.00, -0.00, -1.00, 278.0, 38.0)">d</text><text xml:space="preserve" font-family="HelveticaNeue-Thin" font-size="30.0" fill="#000000" transform="matrix(1.00, 0.00, -0.00, -1.00, 294.6, 38.0)"> </text><text xml:space="preserve" font-family="HelveticaNeue-Thin" font-size="30.0" fill="#000000" transform="matrix(1.00, 0.00, -0.00, -1.00, 1.0, 2.0)">C</text><text xml:space="preserve" font-family="HelveticaNeue-Thin" font-size="30.0" fill="#000000" transform="matrix(1.00, 0.00, -0.00, -1.00, 22.1, 2.0)">o</text><text xml:space="preserve" font-family="HelveticaNeue-Thin" font-size="30.0" fill="#000000" transform="matrix(1.00, 0.00, -0.00, -1.00, 38.2, 2.0)">n</text><text xml:space="preserve" font-family="HelveticaNeue-Thin" font-size="30.0" fill="#000000" transform="matrix(1.00, 0.00, -0.00, -1.00, 53.8, 2.0)">t</text><text xml:space="preserve" font-family="HelveticaNeue-Thin" font-size="30.0" fill="#000000" transform="matrix(1.00, 0.00, -0.00, -1.00, 61.1, 2.0)">e</text><text xml:space="preserve" font-family="HelveticaNeue-Thin" font-size="30.0" fill="#000000" transform="matrix(1.00, 0.00, -0.00, -1.00, 76.4, 2.0)">x</text><text xml:space="preserve" font-family="HelveticaNeue-Thin" font-size="30.0" fill="#000000" transform="matrix(1.00, 0.00, -0.00, -1.00, 89.7, 2.0)">t</text><text xml:space="preserve" font-family="HelveticaNeue-Thin" font-size="30.0" fill="#000000" transform="matrix(1.00, 0.00, -0.00, -1.00, 97.5, 2.0)">-</text><text xml:space="preserve" font-family="HelveticaNeue-Thin" font-size="30.0" fill="#000000" transform="matrix(1.00, 0.00, -0.00, -1.00, 108.0, 2.0)">b</text><text xml:space="preserve" font-family="HelveticaNeue-Thin" font-size="30.0" fill="#000000" transform="matrix(1.00, 0.00, -0.00, -1.00, 124.7, 2.0)">a</text><text xml:space="preserve" font-family="HelveticaNeue-Thin" font-size="30.0" fill="#000000" transform="matrix(1.00, 0.00, -0.00, -1.00, 139.7, 2.0)">s</text><text xml:space="preserve" font-family="HelveticaNeue-Thin" font-size="30.0" fill="#000000" transform="matrix(1.00, 0.00, -0.00, -1.00, 154.1, 2.0)">e</text><text xml:space="preserve" font-family="HelveticaNeue-Thin" font-size="30.0" fill="#000000" transform="matrix(1.00, 0.00, -0.00, -1.00, 169.7, 2.0)">d</text><text xml:space="preserve" font-family="HelveticaNeue-Thin" font-size="30.0" fill="#000000" transform="matrix(1.00, 0.00, -0.00, -1.00, 186.4, 2.0)"> </text><text xml:space="preserve" font-family="HelveticaNeue-Thin" font-size="30.0" fill="#000000" transform="matrix(1.00, 0.00, -0.00, -1.00, 194.7, 2.0)">i</text><text xml:space="preserve" font-family="HelveticaNeue-Thin" font-size="30.0" fill="#000000" transform="matrix(1.00, 0.00, -0.00, -1.00, 199.8, 2.0)">n</text><text xml:space="preserve" font-family="HelveticaNeue-Thin" font-size="30.0" fill="#000000" transform="matrix(1.00, 0.00, -0.00, -1.00, 215.3, 2.0)">t</text><text xml:space="preserve" font-family="HelveticaNeue-Thin" font-size="30.0" fill="#000000" transform="matrix(1.00, 0.00, -0.00, -1.00, 222.7, 2.0)">e</text><text xml:space="preserve" font-family="HelveticaNeue-Thin" font-size="30.0" fill="#000000" transform="matrix(1.00, 0.00, -0.00, -1.00, 238.2, 2.0)">r</text><text xml:space="preserve" font-family="HelveticaNeue-Thin" font-size="30.0" fill="#000000" transform="matrix(1.00, 0.00, -0.00, -1.00, 247.4, 2.0)">f</text><text xml:space="preserve" font-family="HelveticaNeue-Thin" font-size="30.0" fill="#000000" transform="matrix(1.00, 0.00, -0.00, -1.00, 254.6, 2.0)">a</text><text xml:space="preserve" font-family="HelveticaNeue-Thin" font-size="30.0" fill="#000000" transform="matrix(1.00, 0.00, -0.00, -1.00, 269.6, 2.0)">c</text><text xml:space="preserve" font-family="HelveticaNeue-Thin" font-size="30.0" fill="#000000" transform="matrix(1.00, 0.00, -0.00, -1.00, 285.2, 2.0)">e</text></g></svg>