<?xml version="1.0" encoding="UTF-8" standalone="no"?><svg xmlns="http://www.w3.org/2000/svg" xmlns:xlink="http://www.w3.org/1999/xlink" clip-rule="evenodd" stroke-miterlimit="4.00" viewBox="0 0 1920 1080"><desc>SVG generated by Keynote</desc><defs></defs><g transform="matrix(1.00, 0.00, -0.00, -1.00, 0.0, 1080.0)"><path d="M 0.0 1080.0 L 1920.0 1080.0 L 1920.0 0.0 L 0.0 0.0 Z M 0.0 1080.0 " fill="#FEFFFF"></path><g><clipPath id="clip-1273"><path d="M -185.0 768.0 L 652.0 768.0 L 652.0 544.0 L -185.0 544.0 Z M -185.1 768.3 "></path></clipPath><g clip-path="url(#clip-1273)"><image xlink:href="../../F07FC550-9924-4B11-BEAB-1AC4F371F22E/assets/98A45E2CA9E311272BEEC3B3019AF876.jpeg" width="432.00" height="769.00" transform="matrix(1.41, 0.00, -0.00, -1.40, 1307.0, 986.0)"></image></g></g><image xlink:href="../../F07FC550-9924-4B11-BEAB-1AC4F371F22E/assets/1F9ECE852AF8610C08C0604036A90253.png" width="304.00" height="541.00" transform="matrix(1.44, 0.00, -0.00, -1.44, 1036.0, 941.0)"></image><image xlink:href="../../CF67F2FC-76F1-4CB4-BD70-9581F8CB7123/assets/8613AB1DBF423AEBC37A461C9084881C.png" width="383.00" height="147.00" transform="matrix(1.00, 0.00, -0.00, -1.00, 860.0, 669.0)"></image><g opacity="0.73"><g><clipPath id="clip-1274"><path d="M 1302.0 554.0 L 1366.0 554.0 L 1366.0 618.0 L 1302.0 618.0 Z M 1302.0 554.0 "></path></clipPath><g clip-path="url(#clip-1274)"><path d="M 1354.6 606.8 C 1366.3 595.1 1366.3 576.1 1354.6 564.4 C 1342.8 552.7 1323.9 552.7 1312.1 564.4 C 1300.4 576.1 1300.4 595.1 1312.1 606.8 C 1323.9 618.5 1342.8 618.5 1354.6 606.8 Z M 1354.6 606.8 " fill="#A6AAA8"></path></g></g></g><image xlink:href="../../F07FC550-9924-4B11-BEAB-1AC4F371F22E/assets/010A09E347060C37BA4185D2F7AAC490.png" width="191.00" height="147.00" transform="matrix(1.00, 0.00, -0.00, -1.00, 1257.9, 669.0)"></image><g><clipPath id="clip-1275"><path d="M 666.0 1130.0 L 1827.0 1130.0 L 1827.0 -31.0 L 666.0 -31.0 Z M 666.4 1130.3 "></path></clipPath><g clip-path="url(#clip-1275)"><image xlink:href="../../7BF17EFB-FC8B-4E1A-ACCC-40F242AA78C2/assets/13CA076A141AAC16F7526866D7ECC828.png" width="769.00" height="540.00" transform="matrix(2.15, 0.00, -0.00, -2.15, 421.0, 1130.0)"></image></g></g><image xlink:href="../../CF67F2FC-76F1-4CB4-BD70-9581F8CB7123/assets/153842D1F1F7A606A22469C963444085.png" width="382.00" height="128.00" transform="matrix(1.00, 0.00, -0.00, -1.01, 1064.0, 514.0)"></image><text xml:space="preserve" font-family="HelveticaNeue-Thin" font-size="40.0" fill="#000000" transform="matrix(1.00, 0.00, -0.00, -1.00, 236.0, 602.0)">R</text><text xml:space="preserve" font-family="HelveticaNeue-Thin" font-size="40.0" fill="#000000" transform="matrix(1.00, 0.00, -0.00, -1.00, 261.2, 602.0)">e</text><text xml:space="preserve" font-family="HelveticaNeue-Thin" font-size="40.0" fill="#000000" transform="matrix(1.00, 0.00, -0.00, -1.00, 282.0, 602.0)">m</text><text xml:space="preserve" font-family="HelveticaNeue-Thin" font-size="40.0" fill="#000000" transform="matrix(1.00, 0.00, -0.00, -1.00, 313.8, 602.0)">i</text><text xml:space="preserve" font-family="HelveticaNeue-Thin" font-size="40.0" fill="#000000" transform="matrix(1.00, 0.00, -0.00, -1.00, 320.5, 602.0)">n</text><text xml:space="preserve" font-family="HelveticaNeue-Thin" font-size="40.0" fill="#000000" transform="matrix(1.00, 0.00, -0.00, -1.00, 341.3, 602.0)">d</text><text xml:space="preserve" font-family="HelveticaNeue-Thin" font-size="40.0" fill="#000000" transform="matrix(1.00, 0.00, -0.00, -1.00, 363.5, 602.0)"> </text><text xml:space="preserve" font-family="HelveticaNeue-Thin" font-size="40.0" fill="#000000" transform="matrix(1.00, 0.00, -0.00, -1.00, 374.6, 602.0)">u</text><text xml:space="preserve" font-family="HelveticaNeue-Thin" font-size="40.0" fill="#000000" transform="matrix(1.00, 0.00, -0.00, -1.00, 395.4, 602.0)">s</text><text xml:space="preserve" font-family="HelveticaNeue-Thin" font-size="40.0" fill="#000000" transform="matrix(1.00, 0.00, -0.00, -1.00, 414.6, 602.0)">e</text><text xml:space="preserve" font-family="HelveticaNeue-Thin" font-size="40.0" fill="#000000" transform="matrix(1.00, 0.00, -0.00, -1.00, 435.4, 602.0)">r</text><text xml:space="preserve" font-family="HelveticaNeue-Thin" font-size="40.0" fill="#000000" transform="matrix(1.00, 0.00, -0.00, -1.00, 446.5, 602.0)">s</text><text xml:space="preserve" font-family="HelveticaNeue-Thin" font-size="40.0" fill="#000000" transform="matrix(1.00, 0.00, -0.00, -1.00, 465.8, 602.0)"> </text><text xml:space="preserve" font-family="HelveticaNeue-Thin" font-size="40.0" fill="#000000" transform="matrix(1.00, 0.00, -0.00, -1.00, 476.9, 602.0)">a</text><text xml:space="preserve" font-family="HelveticaNeue-Thin" font-size="40.0" fill="#000000" transform="matrix(1.00, 0.00, -0.00, -1.00, 496.9, 602.0)">b</text><text xml:space="preserve" font-family="HelveticaNeue-Thin" font-size="40.0" fill="#000000" transform="matrix(1.00, 0.00, -0.00, -1.00, 519.1, 602.0)">o</text><text xml:space="preserve" font-family="HelveticaNeue-Thin" font-size="40.0" fill="#000000" transform="matrix(1.00, 0.00, -0.00, -1.00, 540.6, 602.0)">u</text><text xml:space="preserve" font-family="HelveticaNeue-Thin" font-size="40.0" fill="#000000" transform="matrix(1.00, 0.00, -0.00, -1.00, 561.4, 602.0)">t</text><text xml:space="preserve" font-family="HelveticaNeue-Thin" font-size="40.0" fill="#000000" transform="matrix(1.00, 0.00, -0.00, -1.00, 571.7, 602.0)"> </text><text xml:space="preserve" font-family="HelveticaNeue-Thin" font-size="40.0" fill="#000000" transform="matrix(1.00, 0.00, -0.00, -1.00, 582.8, 602.0)">w</text><text xml:space="preserve" font-family="HelveticaNeue-Thin" font-size="40.0" fill="#000000" transform="matrix(1.00, 0.00, -0.00, -1.00, 611.0, 602.0)">h</text><text xml:space="preserve" font-family="HelveticaNeue-Thin" font-size="40.0" fill="#000000" transform="matrix(1.00, 0.00, -0.00, -1.00, 631.8, 602.0)">a</text><text xml:space="preserve" font-family="HelveticaNeue-Thin" font-size="40.0" fill="#000000" transform="matrix(1.00, 0.00, -0.00, -1.00, 651.8, 602.0)">t</text><text xml:space="preserve" font-family="HelveticaNeue-Thin" font-size="40.0" fill="#000000" transform="matrix(1.00, 0.00, -0.00, -1.00, 662.1, 602.0)"> </text><text xml:space="preserve" font-family="HelveticaNeue-Thin" font-size="40.0" fill="#000000" transform="matrix(1.00, 0.00, -0.00, -1.00, 673.2, 602.0)">t</text><text xml:space="preserve" font-family="HelveticaNeue-Thin" font-size="40.0" fill="#000000" transform="matrix(1.00, 0.00, -0.00, -1.00, 683.6, 602.0)">h</text><text xml:space="preserve" font-family="HelveticaNeue-Thin" font-size="40.0" fill="#000000" transform="matrix(1.00, 0.00, -0.00, -1.00, 704.4, 602.0)">e</text><text xml:space="preserve" font-family="HelveticaNeue-Thin" font-size="40.0" fill="#000000" transform="matrix(1.00, 0.00, -0.00, -1.00, 725.1, 602.0)">y</text><text xml:space="preserve" font-family="HelveticaNeue-Thin" font-size="40.0" fill="#000000" transform="matrix(1.00, 0.00, -0.00, -1.00, 742.9, 602.0)"> </text><text xml:space="preserve" font-family="HelveticaNeue-Thin" font-size="40.0" fill="#000000" transform="matrix(1.00, 0.00, -0.00, -1.00, 754.0, 602.0)">l</text><text xml:space="preserve" font-family="HelveticaNeue-Thin" font-size="40.0" fill="#000000" transform="matrix(1.00, 0.00, -0.00, -1.00, 760.7, 602.0)">o</text><text xml:space="preserve" font-family="HelveticaNeue-Thin" font-size="40.0" fill="#000000" transform="matrix(1.00, 0.00, -0.00, -1.00, 782.2, 602.0)">v</text><text xml:space="preserve" font-family="HelveticaNeue-Thin" font-size="40.0" fill="#000000" transform="matrix(1.00, 0.00, -0.00, -1.00, 800.0, 602.0)">e</text><text xml:space="preserve" font-family="HelveticaNeue" font-size="100.0" fill="#A6AAA8" transform="matrix(1.00, 0.00, -0.00, -1.00, 153.0, 626.0)">2</text><text xml:space="preserve" font-family="HelveticaNeue" font-size="60.0" fill="#000000" transform="matrix(1.00, 0.00, -0.00, -1.00, 226.0, 663.0)">N</text><text xml:space="preserve" font-family="HelveticaNeue" font-size="60.0" fill="#000000" transform="matrix(1.00, 0.00, -0.00, -1.00, 269.3, 663.0)">e</text><text xml:space="preserve" font-family="HelveticaNeue" font-size="60.0" fill="#000000" transform="matrix(1.00, 0.00, -0.00, -1.00, 301.5, 663.0)">v</text><text xml:space="preserve" font-family="HelveticaNeue" font-size="60.0" fill="#000000" transform="matrix(1.00, 0.00, -0.00, -1.00, 331.5, 663.0)">e</text><text xml:space="preserve" font-family="HelveticaNeue" font-size="60.0" fill="#000000" transform="matrix(1.00, 0.00, -0.00, -1.00, 363.8, 663.0)">r</text><text xml:space="preserve" font-family="HelveticaNeue" font-size="60.0" fill="#000000" transform="matrix(1.00, 0.00, -0.00, -1.00, 383.7, 663.0)">F</text><text xml:space="preserve" font-family="HelveticaNeue" font-size="60.0" fill="#000000" transform="matrix(1.00, 0.00, -0.00, -1.00, 418.2, 663.0)">o</text><text xml:space="preserve" font-family="HelveticaNeue" font-size="60.0" fill="#000000" transform="matrix(1.00, 0.00, -0.00, -1.00, 452.6, 663.0)">r</text><text xml:space="preserve" font-family="HelveticaNeue" font-size="60.0" fill="#000000" transform="matrix(1.00, 0.00, -0.00, -1.00, 470.9, 663.0)">g</text><text xml:space="preserve" font-family="HelveticaNeue" font-size="60.0" fill="#000000" transform="matrix(1.00, 0.00, -0.00, -1.00, 505.4, 663.0)">e</text><text xml:space="preserve" font-family="HelveticaNeue" font-size="60.0" fill="#000000" transform="matrix(1.00, 0.00, -0.00, -1.00, 537.6, 663.0)">t</text><text xml:space="preserve" font-family="HelveticaNeue" font-size="60.0" fill="#000000" transform="matrix(1.00, 0.00, -0.00, -1.00, 556.5, 663.0)"> </text><text xml:space="preserve" font-family="HelveticaNeue" font-size="60.0" fill="#000000" transform="matrix(1.00, 0.00, -0.00, -1.00, 573.2, 663.0)">R</text><text xml:space="preserve" font-family="HelveticaNeue" font-size="60.0" fill="#000000" transform="matrix(1.00, 0.00, -0.00, -1.00, 614.3, 663.0)">e</text><text xml:space="preserve" font-family="HelveticaNeue" font-size="60.0" fill="#000000" transform="matrix(1.00, 0.00, -0.00, -1.00, 646.5, 663.0)">m</text><text xml:space="preserve" font-family="HelveticaNeue" font-size="60.0" fill="#000000" transform="matrix(1.00, 0.00, -0.00, -1.00, 697.7, 663.0)">i</text><text xml:space="preserve" font-family="HelveticaNeue" font-size="60.0" fill="#000000" transform="matrix(1.00, 0.00, -0.00, -1.00, 711.0, 663.0)">n</text><text xml:space="preserve" font-family="HelveticaNeue" font-size="60.0" fill="#000000" transform="matrix(1.00, 0.00, -0.00, -1.00, 744.3, 663.0)">d</text><text xml:space="preserve" font-family="HelveticaNeue" font-size="60.0" fill="#000000" transform="matrix(1.00, 0.00, -0.00, -1.00, 779.9, 663.0)">e</text><text xml:space="preserve" font-family="HelveticaNeue" font-size="60.0" fill="#000000" transform="matrix(1.00, 0.00, -0.00, -1.00, 812.1, 663.0)">r</text><text xml:space="preserve" font-family="Helvetica-Light" font-size="24.0" fill="#000000" transform="matrix(1.00, 0.00, -0.00, -1.00, 946.0, 26.0)">3</text><text xml:space="preserve" font-family="Helvetica-Light" font-size="24.0" fill="#000000" transform="matrix(1.00, 0.00, -0.00, -1.00, 959.3, 26.0)">6</text></g></svg>